{
.appVersion = "3214";
.formatVersion = 3;
classes = (
{
automatic = 1;
code = "A Aacute Abreve Acircumflex Adieresis Agrave Amacron Aogonek Aring Atilde AE B C Cacute Ccaron Ccedilla Ccircumflex Cdotaccent D Eth Dcaron Dcedilla Dcroat E Eacute Ebreve Ecaron Ecircumflex Edieresis Edotaccent Edotbelow Egrave Emacron Eogonek Etilde Schwa F G Gbreve Gcaron Gcircumflex Gcommaaccent Gdotaccent Gmacron H Hbar Hcircumflex Hdotbelow I IJ Iacute Ibreve Icircumflex Idieresis Idotaccent Igrave Imacron Iogonek Istroke Itilde J Jacute Jcircumflex K Kcommaaccent L Lacute Lcaron Lcommaaccent Ldot Ldotbelow Lslash M N Nacute Ncaron Ncommaaccent Nhookleft Ntilde Eng O Oacute Obreve Ocircumflex Odieresis Odotbelow Ograve Ohungarumlaut Omacron Oslash Oslashacute Otilde OE P Thorn Q R Racute Rcaron Rcommaaccent S Sacute Saltillo Scaron Scedilla Scircumflex Scommaaccent Sdotbelow Germandbls T Tbar Tcaron Tcedilla Tcommaaccent U Uacute Ubar Ubreve Ucircumflex Udieresis Ugrave Uhungarumlaut Umacron Uogonek Uring Utilde V W Wacute Wcircumflex Wdieresis Wgrave X Y Yacute Ycircumflex Ydieresis Ygrave Ytilde Z Zacute Zcaron Zdotaccent Lcommaaccent.loclMAH Ncommaaccent.loclMAH Q.ss03 Omega";
name = Uppercase;
},
{
code = "one two three four five six seven eight nine zero";
name = Numbers;
}
);
customParameters = (
{
name = fsType;
value = (
);
},
{
name = "Use Extension Kerning";
value = 1;
},
{
name = "Decompose Components in Variable Font";
value = 1;
},
{
name = "Use Typo Metrics";
value = 1;
},
{
name = "Write lastChange";
value = 0;
},
{
name = "Write DisplayStrings";
value = 0;
}
);
date = "2023-07-14 18:33:04 +0000";
familyName = Absans;
featurePrefixes = (
{
automatic = 1;
code = "languagesystem DFLT dflt;

languagesystem latn dflt;
languagesystem latn AZE;
languagesystem latn CRT;
languagesystem latn KAZ;
languagesystem latn TAT;
languagesystem latn TRK;
languagesystem latn ROM;
languagesystem latn MOL;
languagesystem latn MAH;
languagesystem latn CAT;
languagesystem latn NLD;
";

glyphs = (
{
glyphname = A;
kernLeft = KO_A;
kernRight = KO_A;
layers = (
{
anchors = (
{
name = bottom;
pos = (379,0);
},
{
name = ogonek;
pos = (738,0);
},
{
name = top;
pos = (379,700);
}
);
layerId = m01;
shapes = (
{
attr = {
fillColor = (0,255);
identifier = ID0x7f7b90ceb000;
};
closed = 1;
nodes = (
(741,0,l),
(431,700,l),
(351,700,l),
(659,0,l)
);
},
{
attr = {
fillColor = (0,255);
identifier = ID0x7f7b90ceb000;
};
closed = 1;
nodes = (
(97,0,l),
(405,700,l),
(327,700,l),
(17,0,l)
);
},
{
attr = {
fillColor = (0,255);
identifier = ID0x7f7b90ceb000;
};
closed = 1;
nodes = (
(578,304,l),
(568,369,l),
(190,369,l),
(180,304,l)
);
}
);
width = 758;
}
);
metricRight = "=|";
unicode = 65;
},
{
glyphname = AE;
kernLeft = KO_AE;
kernRight = KO_E;
layers = (
{
anchors = (
{
name = bottom;
pos = (748,0);
},
{
name = ogonek;
pos = (999,10);
},
{
name = top;
pos = (748,700);
},
{
name = topleft;
pos = (454,700);
}
);
layerId = m01;
shapes = (
{
attr = {
fillColor = (0,255);
identifier = ID0x7f7b7d27fa90;
};
closed = 1;
nodes = (
(93,0,l),
(560,700,l),
(475,700,l),
(6,0,l)
);
},
{
attr = {
fillColor = (0,255);
identifier = ID0x7f7b7d27fa90;
};
closed = 1;
nodes = (
(532,304,l),
(557,369,l),
(279,369,l),
(234,304,l)
);
},
{
attr = {
fillColor = (0,255);
identifier = ID0x7f7b67fbdb80;
};
closed = 1;
nodes = (
(594,0,l),
(594,700,l),
(519,700,l),
(519,0,l)
);
},
{
attr = {
fillColor = (0,255);
identifier = ID0x7f7b67fbdb80;
};
closed = 1;
nodes = (
(1002,0,l),
(1002,65,l),
(554,65,l),
(554,0,l)
);
},
{
attr = {
fillColor = (0,255);
identifier = ID0x7f7b67fbdb80;
};
closed = 1;
nodes = (
(1002,635,l),
(1002,700,l),
(554,700,l),
(554,635,l)
);
},
{
attr = {
fillColor = (0,255);
identifier = ID0x7f7b67fbdb80;
};
closed = 1;
nodes = (
(992,344,l),
(992,409,l),
(554,409,l),
(554,344,l)
);
}
);
width = 1052;
}
);
metricRight = E;
unicode = 198;
},
{
glyphname = B;
kernLeft = KO_H;
kernRight = KO_B;
layers = (
{
layerId = m01;
shapes = (
{
closed = 1;
nodes = (
(362,0,ls),
(524,0,o),
(624,83,o),
(624,213,cs),
(624,343,o),
(524,419,o),
(362,419,cs),
(122,419,l),
(122,365,l),
(362,365,ls),
(478,365,o),
(549,307,o),
(549,213,cs),
(549,121,o),
(478,65,o),
(362,65,cs),
(122,65,l),
(122,0,l)
);
},
{
closed = 1;
nodes = (
(85,0,l),
(160,0,l),
(160,700,l),
(85,700,l)
);
},
{
closed = 1;
nodes = (
(382,380,ls),
(507,380,o),
(584,444,o),
(584,539,cs),
(584,642,o),
(508,700,o),
(382,700,cs),
(122,700,l),
(122,635,l),
(382,635,ls),
(461,635,o),
(509,596,o),
(509,533,cs),
(509,469,o),
(461,430,o),
(382,430,cs),
(122,430,l),
(122,380,l)
);
}
);
width = 694;
}
);
metricLeft = H;
unicode = 66;
},
{
glyphname = C;
kernLeft = KO_O;
kernRight = KO_C;
layers = (
{
anchors = (
{
name = bottom;
pos = (411,0);
},
{
name = top;
pos = (411,700);
}
);
layerId = m01;
shapes = (
{
closed = 1;
nodes = (
(682,262,l),
(653,130,o),
(542,57,o),
(414,57,cs),
(247,57,o),
(127,181,o),
(127,353,cs),
(127,525,o),
(247,648,o),
(414,648,cs),
(539,648,o),
(648,579,o),
(680,451,c),
(727,546,l),
(668,649,o),
(558,713,o),
(414,713,cs),
(194,713,o),
(52,562,o),
(52,353,cs),
(52,143,o),
(194,-8,o),
(414,-8,cs),
(560,-8,o),
(672,58,o),
(730,165,c)
);
}
);
width = 776;
}
);
metricLeft = O;
unicode = 67;
},
{
glyphname = D;
kernLeft = KO_H;
kernRight = KO_O;
layers = (
{
anchors = (
{
name = bottom;
pos = (357,0);
},
{
name = center;
pos = (125,350);
},
{
name = top;
pos = (357,700);
}
);
layerId = m01;
shapes = (
{
closed = 1;
nodes = (
(122,635,l),
(302,635,ls),
(469,635,o),
(589,516,o),
(589,353,cs),
(589,185,o),
(469,64,o),
(302,64,cs),
(122,64,l),
(122,0,l),
(302,0,ls),
(522,0,o),
(664,148,o),
(664,353,cs),
(664,554,o),
(522,700,o),
(302,700,cs),
(122,700,l)
);
},
{
closed = 1;
nodes = (
(160,0,l),
(160,700,l),
(85,700,l),
(85,0,l)
);
}
);
width = 716;
}
);
metricLeft = H;
metricRight = O;
unicode = 68;
},
{
glyphname = E;
kernLeft = KO_H;
kernRight = KO_E;
layers = (
{
anchors = (
{
name = bottom;
pos = (314,0);
},
{
name = ogonek;
pos = (565,0);
},
{
name = top;
pos = (314,700);
},
{
name = topleft;
pos = (20,700);
}
);
layerId = m01;
shapes = (
{
attr = {
fillColor = (0,255);
identifier = ID0x7f7b79282bf0;
};
closed = 1;
nodes = (
(160,0,l),
(160,700,l),
(85,700,l),
(85,0,l)
);
},
{
attr = {
fillColor = (0,255);
identifier = ID0x7f7b79282bf0;
};
closed = 1;
nodes = (
(568,0,l),
(568,65,l),
(120,65,l),
(120,0,l)
);
},
{
attr = {
fillColor = (0,255);
identifier = ID0x7f7b79282bf0;
};
closed = 1;
nodes = (
(568,635,l),
(568,700,l),
(120,700,l),
(120,635,l)
);
},
{
attr = {
fillColor = (0,255);
identifier = ID0x7f7b90ceb000;
};
closed = 1;
nodes = (
(558,344,l),
(558,409,l),
(120,409,l),
(120,344,l)
);
}
);
width = 618;
}
);
metricLeft = H;
unicode = 69;
},
{
glyphname = Schwa;
kernLeft = KO_Schwa;
kernRight = KO_O;
layers = (
{
anchors = (
{
name = bottom;
pos = (516,0);
},
{
name = ogonek;
pos = (294,700);
},
{
name = top;
pos = (516,700);
}
);
layerId = m01;
shapes = (
{
closed = 1;
nodes = (
(690,353,l),
(57,353,l),
(57,322,ls),
(57,143,o),
(191,-8,o),
(400,-8,cs),
(615,-8,o),
(755,143,o),
(755,351,cs),
(755,564,o),
(615,712,o),
(399,712,cs),
(259,712,o),
(152,663,o),
(90,575,c),
(129,486,l),
(179,590,o),
(268,644,o),
(399,644,cs),
(565,644,o),
(680,519,o),
(680,365,cs),
(680,328,ls),
(680,171,o),
(578,57,o),
(400,57,cs),
(260,57,o),
(133,146,o),
(133,310,cs),
(133,296,l),
(126,290,l),
(690,290,l)
);
}
);
width = 807;
}
);
metricRight = O;
unicode = 399;
},
{
glyphname = F;
kernLeft = KO_H;
kernRight = KO_F;
layers = (
{
layerId = m01;
shapes = (
{
attr = {
fillColor = (0,255);
identifier = ID0x7f7b794606c0;
};
closed = 1;
nodes = (
(160,0,l),
(160,700,l),
(85,700,l),
(85,0,l)
);
},
{
attr = {
fillColor = (0,255);
identifier = ID0x7f7b794606c0;
};
closed = 1;
nodes = (
(568,635,l),
(568,700,l),
(120,700,l),
(120,635,l)
);
},
{
attr = {
fillColor = (0,255);
identifier = ID0x7f7b794606c0;
};
closed = 1;
nodes = (
(558,344,l),
(558,409,l),
(120,409,l),
(120,344,l)
);
}
);
width = 583;
}
);
metricLeft = H;
unicode = 70;
},
{
glyphname = G;
kernLeft = KO_O;
kernRight = KO_G;
layers = (
{
anchors = (
{
name = bottom;
pos = (409,0);
},
{
name = top;
pos = (409,700);
}
);
layerId = m01;
shapes = (
{
closed = 1;
nodes = (
(655,312,l),
(653,130,o),
(537,57,o),
(409,57,cs),
(242,57,o),
(127,181,o),
(127,353,cs),
(127,525,o),
(247,648,o),
(414,648,cs),
(539,648,o),
(648,579,o),
(680,451,c),
(727,546,l),
(668,649,o),
(558,713,o),
(414,713,cs),
(194,713,o),
(52,563,o),
(52,351,cs),
(52,143,o),
(189,-8,o),
(392,-8,cs),
(562,-8,o),
(678,98,o),
(680,312,c)
);
},
{
closed = 1;
nodes = (
(730,0,l),
(730,390,l),
(310,390,l),
(310,325,l),
(655,325,l),
(655,0,l)
);
}
);
width = 816;
}
);
metricLeft = O;
unicode = 71;
},
{
glyphname = H;
kernLeft = KO_H;
kernRight = KO_H;
layers = (
{
anchors = (
{
name = bottom;
pos = (378,0);
},
{
name = center;
pos = (378,545);
},
{
name = top;
pos = (378,700);
},
{
name = topleft;
pos = (20,700);
}
);
layerId = m01;
shapes = (
{
attr = {
fillColor = (0,255);
identifier = ID0x7f7b798e9f20;
};
closed = 1;
nodes = (
(160,0,l),
(160,700,l),
(85,700,l),
(85,0,l)
);
},
{
attr = {
fillColor = (0,255);
identifier = ID0x7f7b798e9f20;
};
closed = 1;
nodes = (
(670,0,l),
(670,700,l),
(595,700,l),
(595,0,l)
);
},
{
attr = {
fillColor = (0,255);
identifier = ID0x7f7b90ceb000;
};
closed = 1;
nodes = (
(628,344,l),
(628,409,l),
(120,409,l),
(120,344,l)
);
}
);
width = 755;
}
);
metricRight = "=|";
unicode = 72;
},
{
glyphname = I;
kernLeft = KO_H;
kernRight = KO_H;
layers = (
{
anchors = (
{
name = bottom;
pos = (123,0);
},
{
name = center;
pos = (122,350);
},
{
name = ogonek;
pos = (188,0);
},
{
name = top;
pos = (123,700);
},
{
name = topleft;
pos = (20,700);
}
);
layerId = m01;
shapes = (
{
attr = {
fillColor = (0,255);
identifier = ID0x7f7b7e3fe490;
};
closed = 1;
nodes = (
(160,0,l),
(160,700,l),
(85,700,l),
(85,0,l)
);
}
);
width = 245;
}
);
metricLeft = H;
metricRight = "=|";
unicode = 73;
},
{
glyphname = IJ;
kernRight = KO_U;
layers = (
{
anchors = (
{
name = bottom;
pos = (348,0);
},
{
name = ogonek;
pos = (-37,0);
},
{
name = top;
pos = (348,700);
},
{
name = topleft;
pos = (-205,700);
}
);
layerId = m01;
shapes = (
{
attr = {
fillColor = (0,255);
identifier = ID0x7f7b6b1df3b0;
};
closed = 1;
nodes = (
(155,370,l),
(155,700,l),
(80,700,l),
(80,370,l)
);
},
{
closed = 1;
nodes = (
(492,-10,o),
(590,91,o),
(590,257,cs),
(590,700,l),
(515,700,l),
(515,257,ls),
(515,132,o),
(446,56,o),
(333,56,cs),
(240,56,o),
(151,116,o),
(155,266,c),
(85,183,l),
(107,67,o),
(192,-10,o),
(333,-10,cs)
);
}
);
width = 670;
}
);
metricLeft = U;
metricRight = U;
unicode = 306;
},
{
glyphname = J;
kernLeft = KO_J;
kernRight = KO_U;
layers = (
{
anchors = (
{
name = bottom;
pos = (308,0);
},
{
name = top;
pos = (511,700);
}
);
layerId = m01;
shapes = (
{
closed = 1;
nodes = (
(452,-10,o),
(550,91,o),
(550,257,cs),
(550,700,l),
(475,700,l),
(475,257,ls),
(475,132,o),
(406,56,o),
(293,56,cs),
(200,56,o),
(111,116,o),
(115,266,c),
(45,183,l),
(67,67,o),
(152,-10,o),
(293,-10,cs)
);
}
);
width = 630;
}
);
metricRight = U;
unicode = 74;
},
{
glyphname = K;
kernLeft = KO_H;
kernRight = KO_K;
layers = (
{
anchors = (
{
name = bottom;
pos = (344,0);
},
{
name = top;
pos = (344,700);
}
);
associatedMasterId = m01;
layerId = "325A7B68-524A-4FA9-8CCB-D490B3DC0A6F";
name = "6 Mar 23 at 02:38";
shapes = (
{
attr = {
fillColor = (0,255);
identifier = ID0x7f7b678a52d0;
};
closed = 1;
nodes = (
(160,0,l),
(160,700,l),
(85,700,l),
(85,0,l)
);
},
{
attr = {
fillColor = (0,255);
identifier = ID0x7f7b678a52d0;
};
closed = 1;
nodes = (
(111,307,l),
(650,700,l),
(541,700,l),
(111,383,l)
);
},
{
attr = {
fillColor = (0,255);
identifier = ID0x7f7b678a52d0;
};
closed = 1;
nodes = (
(591,0,l),
(678,0,l),
(356,498,l),
(296,454,l)
);
}
);
width = 688;
},
{
anchors = (
{
name = bottom;
pos = (344,0);
},
{
name = top;
pos = (344,700);
}
);
layerId = m01;
name = Regular;
shapes = (
{
attr = {
fillColor = (0,255);
identifier = ID0x7f7b678a52d0;
};
closed = 1;
nodes = (
(160,0,l),
(160,700,l),
(85,700,l),
(85,0,l)
);
},
{
attr = {
fillColor = (0,255);
identifier = ID0x7f7b678a52d0;
};
closed = 1;
nodes = (
(111,217,l),
(650,700,l),
(554,700,l),
(114,303,l)
);
},
{
attr = {
fillColor = (0,255);
identifier = ID0x7f7b678a52d0;
};
closed = 1;
nodes = (
(587,0,l),
(678,0,l),
(336,478,l),
(277,435,l)
);
}
);
width = 688;
}
);
metricLeft = H;
unicode = 75;
},
{
glyphname = L;
kernLeft = KO_H;
kernRight = KO_L;
layers = (
{
anchors = (
{
name = bottom;
pos = (289,0);
},
{
name = center;
pos = (289,350);
},
{
name = top;
pos = (119,700);
},
{
name = topright;
pos = (398,700);
}
);
layerId = m01;
shapes = (
{
attr = {
fillColor = (0,255);
identifier = ID0x7f7b79ac5780;
};
closed = 1;
nodes = (
(160,0,l),
(160,700,l),
(85,700,l),
(85,0,l)
);
},
{
attr = {
fillColor = (0,255);
identifier = ID0x7f7b79ac5780;
};
closed = 1;
nodes = (
(548,0,l),
(548,65,l),
(120,65,l),
(120,0,l)
);
}
);
width = 568;
}
);
metricLeft = H;
unicode = 76;
},
{
glyphname = M;
kernLeft = KO_H;
kernRight = KO_H;
layers = (
{
layerId = m01;
shapes = (
{
closed = 1;
nodes = (
(659,630,l),
(659,0,l),
(734,0,l),
(734,700,l),
(618,700,l),
(392,271,l),
(432,271,l),
(206,700,l),
(85,700,l),
(85,0,l),
(160,0,l),
(160,630,l),
(410,169,l)
);
}
);
width = 819;
},
{
associatedMasterId = m01;
layerId = "0C3F24C2-2E20-4700-82A6-CE0B754AE66F";
name = "5 Mar 23 at 23:58";
shapes = (
{
closed = 1;
nodes = (
(445,-1,l),
(669,630,l),
(669,0,l),
(744,0,l),
(744,700,l),
(621,700,l),
(433,150,l),
(244,700,l),
(115,700,l),
(115,0,l),
(190,0,l),
(190,630,l),
(415,-1,l)
);
}
);
width = 809;
}
);
metricLeft = H;
metricRight = H;
unicode = 77;
},
{
glyphname = N;
kernLeft = KO_H;
kernRight = KO_H;
layers = (
{
anchors = (
{
name = bottom;
pos = (373,0);
},
{
name = top;
pos = (373,700);
}
);
layerId = m01;
shapes = (
{
closed = 1;
nodes = (
(160,0,l),
(160,647,l),
(154,639,l),
(542,0,l),
(660,0,l),
(660,700,l),
(585,700,l),
(585,45,l),
(591,53,l),
(203,700,l),
(85,700,l),
(85,0,l)
);
}
);
width = 745;
}
);
metricLeft = H;
unicode = 78;
},
{
glyphname = Nhookleft;
kernRight = KO_H;
layers = (
{
anchors = (
{
name = bottom;
pos = (893,-200);
},
{
name = top;
pos = (893,708);
}
);
layerId = m01;
shapes = (
{
closed = 1;
nodes = (
(206,0,l),
(206,647,l),
(200,639,l),
(568,0,l),
(686,0,l),
(686,700,l),
(611,700,l),
(611,45,l),
(617,53,l),
(249,700,l),
(131,700,l),
(131,0,l)
);
},
{
closed = 1;
nodes = (
(131,-119,o),
(113,-142,o),
(81,-142,cs),
(57,-142,o),
(30,-133,o),
(5,-86,c),
(5,-175,l),
(30,-197,o),
(65,-206,o),
(89,-206,cs),
(161,-206,o),
(206,-157,o),
(206,-77,cs),
(206,500,l),
(131,500,l),
(131,-67,ls)
);
}
);
width = 771;
}
);
metricLeft = j;
metricRight = N;
unicode = 413;
},
{
glyphname = Eng;
kernLeft = KO_H;
kernRight = KO_H;
layers = (
{
anchors = (
{
name = bottom;
pos = (847,-200);
},
{
name = top;
pos = (847,708);
}
);
layerId = m01;
shapes = (
{
closed = 1;
nodes = (
(160,0,l),
(160,647,l),
(154,639,l),
(522,0,l),
(640,0,l),
(640,700,l),
(565,700,l),
(565,45,l),
(571,53,l),
(203,700,l),
(85,700,l),
(85,0,l)
);
},
{
closed = 1;
nodes = (
(565,-119,o),
(547,-142,o),
(515,-142,cs),
(491,-142,o),
(464,-133,o),
(439,-86,c),
(439,-175,l),
(464,-197,o),
(499,-206,o),
(523,-206,cs),
(595,-206,o),
(640,-157,o),
(640,-77,cs),
(640,500,l),
(565,500,l),
(565,-67,ls)
);
}
);
width = 725;
}
);
metricLeft = N;
metricRight = N;
unicode = 330;
},
{
glyphname = O;
kernLeft = KO_O;
kernRight = KO_O;
layers = (
{
anchors = (
{
name = bottom;
pos = (414,0);
},
{
name = center;
pos = (414,350);
},
{
name = ogonek;
pos = (744,10);
},
{
name = top;
pos = (414,700);
},
{
name = topleft;
pos = (22,700);
},
{
name = topright;
pos = (806,700);
}
);
layerId = m01;
shapes = (
{
closed = 1;
nodes = (
(634,-8,o),
(776,143,o),
(776,353,cs),
(776,562,o),
(634,713,o),
(414,713,cs),
(194,713,o),
(52,562,o),
(52,353,cs),
(52,143,o),
(194,-8,o),
(414,-8,cs)
);
},
{
closed = 1;
nodes = (
(247,57,o),
(127,181,o),
(127,353,cs),
(127,525,o),
(247,648,o),
(414,648,cs),
(581,648,o),
(701,525,o),
(701,353,cs),
(701,181,o),
(581,57,o),
(414,57,cs)
);
}
);
width = 828;
}
);
metricRight = "=|";
unicode = 79;
},
{
glyphname = OE;
kernLeft = KO_O;
kernRight = KO_E;
layers = (
{
anchors = (
{
name = bottom;
pos = (623,0);
},
{
name = top;
pos = (623,700);
}
);
layerId = m01;
shapes = (
{
closed = 1;
nodes = (
(634,-8,o),
(776,143,o),
(776,353,cs),
(776,562,o),
(634,713,o),
(414,713,cs),
(194,713,o),
(52,562,o),
(52,353,cs),
(52,143,o),
(194,-8,o),
(414,-8,cs)
);
},
{
closed = 1;
nodes = (
(247,57,o),
(127,181,o),
(127,353,cs),
(127,525,o),
(247,648,o),
(414,648,cs),
(581,648,o),
(701,525,o),
(701,353,cs),
(701,181,o),
(581,57,o),
(414,57,cs)
);
},
{
attr = {
fillColor = (0,255);
identifier = ID0x7f7b6b50c9a0;
};
closed = 1;
nodes = (
(776,0,l),
(776,700,l),
(701,700,l),
(701,0,l)
);
},
{
attr = {
fillColor = (0,255);
identifier = ID0x7f7b6b50c9a0;
};
closed = 1;
nodes = (
(1184,0,l),
(1184,65,l),
(736,65,l),
(736,0,l)
);
},
{
attr = {
fillColor = (0,255);
identifier = ID0x7f7b6b50c9a0;
};
closed = 1;
nodes = (
(1184,635,l),
(1184,700,l),
(736,700,l),
(736,635,l)
);
},
{
attr = {
fillColor = (0,255);
identifier = ID0x7f7b6b50c9a0;
};
closed = 1;
nodes = (
(1174,344,l),
(1174,409,l),
(736,409,l),
(736,344,l)
);
}
);
width = 1234;
}
);
metricLeft = O;
metricRight = E;
unicode = 338;
},
{
glyphname = P;
kernLeft = KO_H;
kernRight = KO_P;
layers = (
{
layerId = m01;
shapes = (
{
closed = 1;
nodes = (
(122,635,l),
(392,635,ls),
(489,635,o),
(549,586,o),
(549,506,cs),
(549,425,o),
(489,375,o),
(392,375,cs),
(122,375,l),
(122,310,l),
(392,310,ls),
(536,310,o),
(624,384,o),
(624,506,cs),
(624,626,o),
(536,700,o),
(392,700,cs),
(122,700,l)
);
},
{
closed = 1;
nodes = (
(160,0,l),
(160,700,l),
(85,700,l),
(85,0,l)
);
}
);
width = 664;
}
);
metricLeft = H;
unicode = 80;
},
{
glyphname = Thorn;
kernLeft = KO_H;
layers = (
{
layerId = m01;
shapes = (
{
closed = 1;
nodes = (
(122,495,l),
(372,495,ls),
(476,495,o),
(539,447,o),
(539,367,cs),
(539,285,o),
(476,235,o),
(372,235,cs),
(122,235,l),
(122,170,l),
(372,170,ls),
(522,170,o),
(614,244,o),
(614,367,cs),
(614,487,o),
(522,560,o),
(372,560,cs),
(122,560,l)
);
},
{
closed = 1;
nodes = (
(160,0,l),
(160,700,l),
(85,700,l),
(85,0,l)
);
}
);
width = 654;
}
);
metricLeft = P;
metricRight = P;
unicode = 222;
},
{
glyphname = Q;
kernLeft = KO_O;
kernRight = KO_Q;
layers = (
{
background = {
shapes = (
{
closed = 0;
nodes = (
(412,54,l),
(394,54,o),
(378,59,o),
(364,71,cs),
(347,86,o),
(340,103,o),
(340,119,cs),
(340,151,o),
(367,180,o),
(400,180,cs),
(413,180,o),
(427,176,o),
(441,164,cs),
(475,136,o),
(482,102,o),
(482,67,cs),
(482,41,o),
(478,13,o),
(478,-15,cs),
(478,-63,o),
(489,-113,o),
(545,-160,cs),
(562,-175,o),
(600,-201,o),
(654,-201,cs),
(674,-201,o),
(697,-197,o),
(722,-187,c),
(756,-93,l),
(724,-118,o),
(689,-131,o),
(655,-131,cs),
(625,-131,o),
(595,-120,o),
(570,-99,cs),
(474,-18,o),
(567,106,o),
(465,191,cs),
(439,213,o),
(413,222,o),
(388,222,cs),
(330,222,o),
(283,173,o),
(283,117,cs),
(283,86,o),
(297,53,o),
(331,25,cs),
(361,-1,o),
(395,-12,o),
(428,-12,cs)
);
}
);
};
layerId = m01;
shapes = (
{
closed = 1;
nodes = (
(634,-8,o),
(776,143,o),
(776,353,cs),
(776,562,o),
(634,713,o),
(414,713,cs),
(194,713,o),
(52,562,o),
(52,353,cs),
(52,143,o),
(194,-8,o),
(414,-8,cs)
);
},
{
closed = 1;
nodes = (
(247,57,o),
(127,181,o),
(127,353,cs),
(127,525,o),
(247,648,o),
(414,648,cs),
(581,648,o),
(701,525,o),
(701,353,cs),
(701,181,o),
(581,57,o),
(414,57,cs)
);
},
{
closed = 1;
nodes = (
(414,57,l),
(354,57,o),
(327,95,o),
(327,130,cs),
(327,165,o),
(348,190,o),
(384,190,cs),
(535,190,o),
(427,-131,o),
(660,-131,cs),
(693,-131,o),
(714,-125,o),
(730,-114,c),
(766,-23,l),
(738,-45,o),
(713,-61,o),
(657,-61,cs),
(472,-61,o),
(582,238,o),
(383,238,cs),
(324,238,o),
(277,197,o),
(277,134,cs),
(277,70,o),
(325,35,o),
(420,35,c)
);
}
);
width = 828;
}
);
metricLeft = O;
metricRight = O;
unicode = 81;
},
{
glyphname = R;
kernLeft = KO_H;
kernRight = KO_R;
layers = (
{
anchors = (
{
name = bottom;
pos = (362,0);
},
{
name = top;
pos = (362,700);
}
);
layerId = m01;
shapes = (
{
closed = 1;
nodes = (
(425,350,l),
(435,360,l),
(569,360,o),
(637,429,o),
(637,532,cs),
(637,636,o),
(560,700,o),
(435,700,cs),
(122,700,l),
(122,635,l),
(435,635,ls),
(514,635,o),
(562,593,o),
(562,524,cs),
(562,457,o),
(514,415,o),
(435,415,cs),
(122,415,l),
(122,350,l)
);
},
{
closed = 1;
nodes = (
(160,0,l),
(160,700,l),
(85,700,l),
(85,0,l)
);
},
{
closed = 1;
nodes = (
(668,0,l),
(612,37,o),
(600,104,o),
(600,174,cs),
(600,199,ls),
(600,349,o),
(538,385,o),
(368,385,cs),
(230,385,l),
(230,350,l),
(368,350,ls),
(457,350,o),
(529,326,o),
(524,199,cs),
(523,174,ls),
(520,105,o),
(529,37,o),
(572,0,c)
);
}
);
width = 734;
}
);
metricLeft = H;
unicode = 82;
},
{
glyphname = S;
kernLeft = KO_S;
kernRight = KO_S;
layers = (
{
anchors = (
{
name = bottom;
pos = (335,0);
},
{
name = top;
pos = (335,700);
}
);
layerId = m01;
shapes = (
{
closed = 1;
nodes = (
(422,651,o),
(525,594,o),
(518,450,c),
(588,533,l),
(562,648,o),
(468,712,o),
(331,712,cs),
(196,712,o),
(89,654,o),
(89,521,cs),
(89,241,o),
(539,414,o),
(539,190,cs),
(539,99,o),
(446,55,o),
(346,55,cs),
(228,55,o),
(116,115,o),
(121,266,c),
(51,183,l),
(77,67,o),
(175,-10,o),
(339,-10,cs),
(485,-10,o),
(616,51,o),
(616,194,cs),
(616,491,o),
(166,326,o),
(166,528,cs),
(166,610,o),
(242,651,o),
(327,651,cs)
);
}
);
width = 670;
}
);
unicode = 83;
},
{
glyphname = Saltillo;
layers = (
{
anchors = (
{
name = "#entry";
pos = (23,0);
},
{
name = "#exit";
pos = (183,0);
}
);
layerId = m01;
shapes = (
{
attr = {
fillColor = (0,255);
identifier = ID0x56ffcd850;
};
closed = 1;
nodes = (
(153,331,l),
(180,700,l),
(85,700,l),
(113,331,l)
);
}
);
width = 265;
}
);
metricLeft = quotesingle;
metricRight = quotesingle;
unicode = 42891;
},
{
glyphname = Germandbls;
kernRight = KO_S;
layers = (
{
anchors = (
{
name = bottom;
pos = (539,0);
},
{
name = bottomleft;
pos = (25,-9);
},
{
name = ogonek;
pos = (73,681);
},
{
name = top;
pos = (539,700);
}
);
layerId = m01;
shapes = (
{
closed = 1;
nodes = (
(347,700,l),
(181,700,o),
(80,600,o),
(80,434,cs),
(80,0,l),
(155,0,l),
(155,434,ls),
(155,559,o),
(228,635,o),
(347,635,cs),
(619,635,l),
(641,642,l),
(533,642,o),
(472,577,o),
(472,495,cs),
(472,351,o),
(661,337,o),
(661,190,cs),
(661,108,o),
(598,50,o),
(504,50,cs),
(393,50,o),
(322,134,o),
(327,261,c),
(257,178,l),
(279,65,o),
(377,-11,o),
(501,-11,cs),
(642,-11,o),
(736,73,o),
(736,194,cs),
(736,384,o),
(542,388,o),
(542,513,cs),
(542,596,o),
(629,627,o),
(712,639,c),
(712,700,l)
);
}
);
width = 786;
}
);
metricLeft = "=|U";
unicode = 7838;
},
{
glyphname = T;
kernLeft = KO_T;
kernRight = KO_T;
layers = (
{
anchors = (
{
name = bottom;
pos = (328,0);
},
{
name = center;
pos = (328,350);
},
{
name = top;
pos = (328,700);
}
);
layerId = m01;
shapes = (
{
attr = {
fillColor = (0,255);
identifier = ID0x7f7b7e2b1730;
};
closed = 1;
nodes = (
(288,700,l),
(288,0,l),
(363,0,l),
(363,700,l)
);
},
{
closed = 1;
nodes = (
(20,700,l),
(20,635,l),
(645,635,l),
(645,700,l)
);
}
);
width = 665;
}
);
metricRight = "=|";
unicode = 84;
},
{
glyphname = U;
kernLeft = KO_U;
kernRight = KO_U;
layers = (
{
anchors = (
{
name = bottom;
pos = (348,0);
},
{
name = center;
pos = (348,375);
},
{
name = ogonek;
pos = (454,-3);
},
{
name = top;
pos = (348,700);
},
{
name = topright;
pos = (670,700);
}
);
layerId = m01;
shapes = (
{
closed = 1;
nodes = (
(514,-10,o),
(615,91,o),
(615,257,cs),
(615,700,l),
(540,700,l),
(540,257,ls),
(540,132,o),
(467,56,o),
(348,56,cs),
(228,56,o),
(155,132,o),
(155,257,cs),
(155,700,l),
(80,700,l),
(80,257,ls),
(80,91,o),
(182,-10,o),
(348,-10,cs)
);
}
);
width = 695;
}
);
metricRight = "=|";
unicode = 85;
},
{
glyphname = V;
kernLeft = KO_V;
kernRight = KO_V;
layers = (
{
layerId = m01;
shapes = (
{
attr = {
fillColor = (0,255);
identifier = ID0x7f7b7dba1330;
};
closed = 1;
nodes = (
(17,700,l),
(307,0,l),
(387,0,l),
(99,700,l)
);
},
{
attr = {
fillColor = (0,255);
identifier = ID0x7f7b7dba1330;
};
closed = 1;
nodes = (
(621,700,l),
(333,0,l),
(411,0,l),
(701,700,l)
);
}
);
width = 718;
}
);
metricLeft = "=|A";
metricRight = "=|";
unicode = 86;
},
{
glyphname = W;
kernLeft = KO_V;
kernRight = KO_W;
layers = (
{
anchors = (
{
name = bottom;
pos = (474,0);
},
{
name = top;
pos = (474,700);
}
);
layerId = m01;
shapes = (
{
attr = {
fillColor = (0,255);
identifier = ID0x7f7b64bc6dc0;
};
closed = 1;
nodes = (
(22,700,l),
(282,0,l),
(358,0,l),
(100,700,l)
);
},
{
attr = {
fillColor = (0,255);
identifier = ID0x7f7b64bc6dc0;
};
closed = 1;
nodes = (
(498,291,l),
(650,700,l),
(581,700,l),
(464,382,l)
);
},
{
attr = {
fillColor = (0,255);
identifier = ID0x7f7b64bc6dc0;
};
closed = 1;
nodes = (
(313,700,l),
(573,0,l),
(642,0,l),
(384,700,l)
);
},
{
attr = {
fillColor = (0,255);
identifier = ID0x7f7b64bc6dc0;
};
closed = 1;
nodes = (
(850,700,l),
(592,0,l),
(666,0,l),
(926,700,l)
);
},
{
attr = {
fillColor = (0,255);
identifier = ID0x7f7b64bc6dc0;
};
closed = 1;
nodes = (
(449,382,l),
(308,0,l),
(375,0,l),
(483,291,l)
);
}
);
width = 948;
}
);
metricRight = "=|";
unicode = 87;
},
{
glyphname = X;
kernLeft = KO_X;
kernRight = KO_X;
layers = (
{
layerId = m01;
shapes = (
{
closed = 1;
nodes = (
(34,700,l),
(331,356,l),
(20,0,l),
(114,0,l),
(402,328,l),
(362,328,l),
(650,0,l),
(744,0,l),
(432,356,l),
(730,700,l),
(636,700,l),
(362,384,l),
(402,384,l),
(128,700,l)
);
}
);
width = 764;
}
);
metricRight = "=|";
unicode = 88;
},
{
glyphname = Y;
kernLeft = KO_Y;
kernRight = KO_Y;
layers = (
{
anchors = (
{
name = bottom;
pos = (344,0);
},
{
name = top;
pos = (344,700);
},
{
name = topleft;
pos = (-10,700);
}
);
layerId = m01;
shapes = (
{
closed = 1;
nodes = (
(2,700,l),
(307,334,l),
(307,0,l),
(382,0,l),
(382,335,l),
(686,700,l),
(595,700,l),
(304,354,l),
(385,354,l),
(94,700,l)
);
}
);
width = 688;
}
);
metricRight = "=|";
unicode = 89;
},
{
glyphname = Z;
kernLeft = KO_Z;
kernRight = KO_Z;
layers = (
{
anchors = (
{
name = bottom;
pos = (308,0);
},
{
name = center;
pos = (308,350);
},
{
name = top;
pos = (308,700);
}
);
layerId = m01;
shapes = (
{
closed = 1;
nodes = (
(576,700,l),
(40,700,l),
(40,635,l),
(484,635,l),
(40,55,l),
(40,0,l),
(576,0,l),
(576,65,l),
(132,65,l),
(576,645,l)
);
}
);
width = 616;
}
);
metricRight = "=|";
unicode = 90;
},
{
glyphname = Q.ss03;
kernLeft = KO_O;
kernRight = KO_O;
layers = (
{
background = {
shapes = (
{
closed = 0;
nodes = (
(412,54,l),
(394,54,o),
(378,59,o),
(364,71,cs),
(347,86,o),
(340,103,o),
(340,119,cs),
(340,151,o),
(367,180,o),
(400,180,cs),
(413,180,o),
(427,176,o),
(441,164,cs),
(475,136,o),
(482,102,o),
(482,67,cs),
(482,41,o),
(478,13,o),
(478,-15,cs),
(478,-63,o),
(489,-113,o),
(545,-160,cs),
(562,-175,o),
(600,-201,o),
(654,-201,cs),
(674,-201,o),
(697,-197,o),
(722,-187,c),
(756,-93,l),
(724,-118,o),
(689,-131,o),
(655,-131,cs),
(625,-131,o),
(595,-120,o),
(570,-99,cs),
(474,-18,o),
(567,106,o),
(465,191,cs),
(439,213,o),
(413,222,o),
(388,222,cs),
(330,222,o),
(283,173,o),
(283,117,cs),
(283,86,o),
(297,53,o),
(331,25,cs),
(361,-1,o),
(395,-12,o),
(428,-12,cs)
);
}
);
};
layerId = m01;
shapes = (
{
closed = 1;
nodes = (
(634,-8,o),
(776,143,o),
(776,353,cs),
(776,562,o),
(634,713,o),
(414,713,cs),
(194,713,o),
(52,562,o),
(52,353,cs),
(52,143,o),
(194,-8,o),
(414,-8,cs)
);
},
{
closed = 1;
nodes = (
(247,57,o),
(127,181,o),
(127,353,cs),
(127,525,o),
(247,648,o),
(414,648,cs),
(581,648,o),
(701,525,o),
(701,353,cs),
(701,181,o),
(581,57,o),
(414,57,cs)
);
},
{
closed = 1;
nodes = (
(408,-106,o),
(514,-188,o),
(655,-203,c),
(721,-136,l),
(714,-137,o),
(707,-137,o),
(700,-137,cs),
(544,-137,o),
(470,-64,o),
(425,26,c),
(366,27,l)
);
}
);
width = 828;
}
);
metricLeft = O;
metricRight = O;
},
{
glyphname = a;
kernLeft = KO_a;
kernRight = KO_a;
layers = (
{
anchors = (
{
name = bottom;
pos = (310,0);
},
{
name = ogonek;
pos = (561,0);
},
{
name = top;
pos = (310,500);
}
);
associatedMasterId = m01;
layerId = "8E575075-34E6-4850-AAC6-742B13C8E998";
name = "18 Jul 23 at 16:22";
shapes = (
{
attr = {
fillColor = (0,255);
};
closed = 1;
nodes = (
(334,404,o),
(371,374,o),
(371,294,cs),
(371,204,o),
(344,62,o),
(420,0,c),
(618,0,l),
(510,62,o),
(539,210,o),
(539,301,cs),
(539,459,o),
(435,526,o),
(286,526,cs),
(135,526,o),
(51,455,o),
(30,374,c),
(197,306,l),
(199,362,o),
(227,404,o),
(283,404,cs)
);
},
{
attr = {
fillColor = (0,255);
};
closed = 1;
nodes = (
(368,188,o),
(350,97,o),
(274,97,cs),
(237,97,o),
(209,119,o),
(209,160,cs),
(209,185,o),
(225,210,o),
(275,211,cs),
(382,213,l),
(381,315,l),
(275,314,ls),
(128,313,o),
(33,246,o),
(33,143,cs),
(33,48,o),
(101,-15,o),
(207,-15,cs),
(324,-15,o),
(405,60,o),
(387,219,c),
(368,224,l)
);
}
);
width = 580;
},
{
anchors = (
{
name = bottom;
pos = (280,0);
},
{
name = ogonek;
pos = (531,0);
},
{
name = top;
pos = (280,500);
}
);
layerId = m01;
name = Regular;
shapes = (
{
attr = {
fillColor = (0,255);
};
closed = 1;
nodes = (
(343,453,o),
(400,404,o),
(400,299,cs),
(400,199,o),
(375,60,o),
(445,0,c),
(538,0,l),
(448,60,o),
(473,205,o),
(473,305,cs),
(473,445,o),
(386,512,o),
(255,512,cs),
(146,512,o),
(64,449,o),
(49,364,c),
(121,298,l),
(102,403,o),
(182,453,o),
(254,453,cs)
);
},
{
attr = {
fillColor = (0,255);
};
closed = 1;
nodes = (
(397,170,o),
(354,49,o),
(225,49,cs),
(163,49,o),
(123,87,o),
(123,138,cs),
(123,207,o),
(175,236,o),
(253,237,cs),
(409,239,l),
(408,299,l),
(253,298,ls),
(140,297,o),
(51,238,o),
(51,131,cs),
(51,53,o),
(108,-10,o),
(215,-10,cs),
(339,-10,o),
(403,65,o),
(413,213,c),
(397,218,l)
);
}
);
width = 560;
}
);
unicode = 97;
},
{
glyphname = ae;
kernLeft = KO_a;
kernRight = KO_e;
layers = (
{
anchors = (
{
name = bottom;
pos = (860,0);
},
{
name = ogonek;
pos = (1100,10);
},
{
name = top;
pos = (860,500);
}
);
layerId = m01;
shapes = (
{
attr = {
fillColor = (0,255);
identifier = ID0x7f7b6c5354d0;
};
closed = 1;
nodes = (
(466,196,l),
(467,232,o),
(469,267,o),
(469,299,cs),
(469,439,o),
(384,512,o),
(255,512,cs),
(146,512,o),
(64,449,o),
(49,364,c),
(121,298,l),
(102,403,o),
(182,453,o),
(254,453,cs),
(343,453,o),
(400,404,o),
(400,299,cs),
(400,256,o),
(395,205,o),
(396,157,c)
);
},
{
attr = {
fillColor = (0,255);
identifier = ID0x7f7b6c5354d0;
};
closed = 1;
nodes = (
(397,170,o),
(354,49,o),
(225,49,cs),
(163,49,o),
(123,87,o),
(123,138,cs),
(123,207,o),
(175,236,o),
(253,237,cs),
(409,239,l),
(408,299,l),
(253,298,ls),
(140,297,o),
(51,238,o),
(51,131,cs),
(51,53,o),
(111,-10,o),
(225,-10,cs),
(362,-10,o),
(436,84,o),
(443,213,c),
(397,218,l)
);
},
{
closed = 1;
nodes = (
(447,241,l),
(909,241,l),
(909,280,ls),
(909,397,o),
(811,507,o),
(659,507,cs),
(505,507,o),
(404,397,o),
(404,250,cs),
(404,100,o),
(505,-8,o),
(660,-8,cs),
(763,-8,o),
(843,30,o),
(887,94,c),
(847,183,l),
(815,97,o),
(756,55,o),
(660,55,cs),
(553,55,o),
(476,137,o),
(476,240,cs),
(476,267,ls),
(476,371,o),
(543,444,o),
(659,444,cs),
(751,444,o),
(833,388,o),
(833,279,cs),
(833,268,l),
(874,300,l),
(447,300,l)
);
}
);
width = 952;
}
);
metricLeft = a;
metricRight = e;
unicode = 230;
},
{
glyphname = b;
kernLeft = KO_l;
kernRight = KO_o;
layers = (
{
layerId = m01;
shapes = (
{
attr = {
fillColor = (0,255);
};
closed = 1;
nodes = (
(106,250,l),
(106,100,o),
(209,-8,o),
(349,-8,cs),
(489,-8,o),
(591,100,o),
(591,250,cs),
(591,399,o),
(489,507,o),
(349,507,cs),
(209,507,o),
(106,399,o),
(106,250,c),
(147,250,l),
(147,365,o),
(225,447,o),
(332,447,cs),
(439,447,o),
(516,365,o),
(516,250,cs),
(516,135,o),
(439,52,o),
(332,52,cs),
(225,52,o),
(147,135,o),
(147,250,c)
);
},
{
attr = {
fillColor = (0,255);
identifier = ID0x7f7b913f2d50;
};
closed = 1;
nodes = (
(147,0,l),
(147,800,l),
(75,800,l),
(75,0,l)
);
}
);
width = 634;
}
);
metricLeft = l;
metricRight = o;
unicode = 98;
},
{
glyphname = c;
kernLeft = KO_e;
kernRight = KO_c;
layers = (
{
anchors = (
{
name = bottom;
pos = (280,0);
},
{
name = top;
pos = (280,500);
}
);
layerId = m01;
shapes = (
{
closed = 1;
nodes = (
(118,357,o),
(187,445,o),
(305,445,cs),
(388,445,o),
(452,403,o),
(482,317,c),
(522,406,l),
(481,468,o),
(400,508,o),
(302,508,cs),
(141,508,o),
(43,400,o),
(43,250,cs),
(43,100,o),
(141,-8,o),
(302,-8,cs),
(400,-8,o),
(481,32,o),
(522,94,c),
(482,183,l),
(452,97,o),
(388,55,o),
(305,55,cs),
(187,55,o),
(118,143,o),
(118,250,cs)
);
}
);
width = 569;
}
);
metricLeft = o;
unicode = 99;
},
{
glyphname = d;
kernLeft = KO_e;
kernRight = KO_l;
layers = (
{
anchors = (
{
name = bottom;
pos = (300,0);
},
{
name = center;
pos = (300,250);
},
{
name = top;
pos = (300,800);
},
{
name = topright;
pos = (599,800);
}
);
layerId = m01;
shapes = (
{
attr = {
fillColor = (0,255);
identifier = ID0x7f7b6ad2ef90;
};
closed = 1;
nodes = (
(487,135,o),
(409,52,o),
(302,52,cs),
(195,52,o),
(118,135,o),
(118,250,cs),
(118,365,o),
(195,447,o),
(302,447,cs),
(409,447,o),
(487,365,o),
(487,250,c),
(528,250,l),
(528,399,o),
(425,507,o),
(285,507,cs),
(145,507,o),
(43,399,o),
(43,250,cs),
(43,100,o),
(145,-8,o),
(285,-8,cs),
(425,-8,o),
(528,100,o),
(528,250,c),
(487,250,l)
);
},
{
attr = {
fillColor = (0,255);
identifier = ID0x7f7b6ad2ef90;
};
closed = 1;
nodes = (
(559,800,l),
(487,800,l),
(487,0,l),
(559,0,l)
);
}
);
width = 634;
}
);
metricLeft = "=|b";
metricRight = l;
unicode = 100;
},
{
glyphname = eth;
kernLeft = KO_egrave;
kernRight = KO_Q;
layers = (
{
anchors = (
{
name = _center;
pos = (410,600);
}
);
layerId = m01;
shapes = (
{
closed = 1;
nodes = (
(470,-10,o),
(569,152,o),
(569,357,cs),
(569,624,o),
(392,801,o),
(166,801,c),
(166,761,l),
(338,761,o),
(494,605,o),
(494,377,cs),
(494,335,o),
(489,294,o),
(478,260,c),
(507,252,l),
(506,401,o),
(423,507,o),
(282,507,cs),
(141,507,o),
(43,405,o),
(43,255,cs),
(43,104,o),
(141,-10,o),
(292,-10,cs)
);
},
{
closed = 1;
nodes = (
(466,135,o),
(396,55,o),
(292,55,cs),
(188,55,o),
(118,135,o),
(118,255,cs),
(118,368,o),
(188,444,o),
(292,444,cs),
(396,444,o),
(466,368,o),
(466,255,cs)
);
},
{
closed = 1;
nodes = (
(246,599,l),
(519,769,l),
(496,810,l),
(223,640,l)
);
}
);
width = 621;
}
);
metricLeft = o;
metricRight = "=|six";
unicode = 240;
},
{
glyphname = e;
kernLeft = KO_e;
kernRight = KO_e;
layers = (
{
anchors = (
{
name = bottom;
pos = (302,0);
},
{
name = ogonek;
pos = (409,0);
},
{
name = top;
pos = (302,500);
}
);
layerId = m01;
shapes = (
{
closed = 1;
nodes = (
(89,241,l),
(551,241,l),
(551,270,ls),
(551,397,o),
(453,507,o),
(301,507,cs),
(145,507,o),
(43,397,o),
(43,250,cs),
(43,100,o),
(145,-8,o),
(302,-8,cs),
(405,-8,o),
(485,30,o),
(529,94,c),
(489,183,l),
(457,97,o),
(398,55,o),
(302,55,cs),
(195,55,o),
(118,137,o),
(118,240,cs),
(118,267,ls),
(118,371,o),
(185,446,o),
(301,446,cs),
(393,446,o),
(475,388,o),
(475,279,cs),
(475,268,l),
(516,300,l),
(89,300,l)
);
}
);
width = 594;
}
);
metricLeft = o;
metricRight = o;
unicode = 101;
},
{
glyphname = f;
kernLeft = KO_f;
kernRight = KO_f;
layers = (
{
layerId = m01;
shapes = (
{
closed = 1;
nodes = (
(135,0,l),
(207,0,l),
(207,611,ls),
(207,704,o),
(250,748,o),
(318,748,cs),
(369,748,o),
(426,703,o),
(416,610,c),
(483,676,l),
(471,751,o),
(405,807,o),
(317,807,cs),
(208,807,o),
(135,743,o),
(135,621,cs)
);
},
{
closed = 1;
nodes = (
(433,441,l),
(433,500,l),
(30,500,l),
(30,441,l)
);
}
);
width = 453;
}
);
unicode = 102;
},
{
glyphname = g;
kernLeft = KO_g;
kernRight = KO_g;
layers = (
{
anchors = (
{
name = bottom;
pos = (305,-200);
},
{
name = top;
pos = (305,500);
}
);
layerId = m01;
shapes = (
{
closed = 1;
nodes = (
(32,-40,l),
(40,-137,o),
(145,-209,o),
(310,-209,cs),
(453,-209,o),
(590,-153,o),
(590,-33,cs),
(590,87,o),
(466,100,o),
(366,85,cs),
(235,66,ls),
(196,60,o),
(122,54,o),
(122,113,cs),
(122,152,o),
(158,172,o),
(206,172,cs),
(245,172,o),
(268,164,o),
(311,164,cs),
(439,164,o),
(515,236,o),
(515,336,cs),
(515,435,o),
(439,507,o),
(312,507,cs),
(189,507,o),
(109,435,o),
(109,336,cs),
(109,267,o),
(146,211,o),
(206,184,c),
(224,195,l),
(155,223,o),
(52,194,o),
(52,102,cs),
(52,-1,o),
(175,-10,o),
(242,0,cs),
(363,18,ls),
(437,29,o),
(521,32,o),
(521,-39,cs),
(521,-113,o),
(416,-149,o),
(310,-149,cs),
(185,-149,o),
(77,-94,o),
(103,27,c)
);
},
{
closed = 1;
nodes = (
(178,401,o),
(234,449,o),
(312,449,cs),
(394,449,o),
(446,401,o),
(446,336,cs),
(446,270,o),
(394,221,o),
(312,221,cs),
(230,221,o),
(178,270,o),
(178,336,cs)
);
},
{
closed = 1;
nodes = (
(451,468,l),
(451,534,o),
(489,587,o),
(568,587,cs),
(575,587,o),
(582,587,o),
(589,586,c),
(523,653,l),
(448,641,o),
(392,575,o),
(412,467,c)
);
}
);
width = 615;
}
);
unicode = 103;
},
{
glyphname = h;
kernLeft = KO_l;
kernRight = KO_n;
layers = (
{
anchors = (
{
name = bottom;
pos = (280,0);
},
{
name = center;
pos = (280,400);
},
{
name = top;
pos = (280,800);
},
{
name = topright;
pos = (267,800);
}
);
layerId = m01;
shapes = (
{
attr = {
fillColor = (0,255);
identifier = ID0x7f7b78b96040;
};
closed = 1;
nodes = (
(371,456,o),
(426,405,o),
(426,306,cs),
(426,0,l),
(499,0,l),
(499,319,ls),
(499,439,o),
(433,512,o),
(317,512,cs),
(188,512,o),
(126,421,o),
(121,292,c),
(147,292,l),
(154,398,o),
(210,456,o),
(294,456,cs)
);
},
{
attr = {
fillColor = (0,255);
identifier = ID0x7f7b78b96040;
};
closed = 1;
nodes = (
(147,0,l),
(147,800,l),
(75,800,l),
(75,0,l)
);
}
);
width = 559;
}
);
metricLeft = l;
metricRight = n;
unicode = 104;
},
{
glyphname = idotless;
kernLeft = KO_n;
kernRight = KO_u;
layers = (
{
anchors = (
{
name = bottom;
pos = (110,0);
},
{
name = center;
pos = (110,250);
},
{
name = ogonek;
pos = (174,0);
},
{
name = top;
pos = (110,500);
}
);
layerId = m01;
shapes = (
{
attr = {
fillColor = (0,255);
identifier = ID0x7f7b67a33430;
};
closed = 1;
nodes = (
(146,0,l),
(146,500,l),
(74,500,l),
(74,0,l)
);
}
);
width = 220;
}
);
metricRight = "=|";
unicode = 305;
},
{
glyphname = j;
kernLeft = KO_i;
kernRight = KO_i;
layers = (
{
layerId = m01;
shapes = (
{
ref = jdotless;
},
{
pos = (-26,0);
ref = dotaccentcomb;
}
);
width = 222;
},
{
associatedMasterId = m01;
layerId = "6AD78342-80A4-4654-9220-481EFF1399CE";
name = "6 Mar 23 at 00:14";
shapes = (
{
attr = {
fillColor = (0,255);
identifier = ID0x7f7b7914c350;
};
closed = 1;
nodes = (
(170,606,l),
(170,704,l),
(72,704,l),
(72,606,l)
);
},
{
closed = 1;
nodes = (
(157,500,l),
(85,500,l),
(85,-67,ls),
(85,-119,o),
(70,-147,o),
(35,-147,cs),
(8,-147,o),
(-19,-126,o),
(-20,-62,c),
(-69,-129,l),
(-55,-181,o),
(-18,-206,o),
(41,-206,cs),
(118,-206,o),
(157,-155,o),
(157,-77,cs)
);
}
);
width = 222;
}
);
metricRight = i;
unicode = 106;
},
{
glyphname = jdotless;
layers = (
{
anchors = (
{
name = bottom;
pos = (112,-200);
},
{
name = top;
pos = (112,500);
}
);
layerId = m01;
shapes = (
{
closed = 1;
nodes = (
(75,-88,o),
(65,-161,o),
(5,-200,c),
(98,-200,l),
(139,-165,o),
(147,-103,o),
(147,-38,cs),
(147,500,l),
(75,500,l),
(75,-13,ls)
);
}
);
width = 222;
},
{
anchors = (
{
name = bottom;
pos = (122,-200);
},
{
name = top;
pos = (122,500);
}
);
associatedMasterId = m01;
layerId = "44689650-653B-4ED5-87EA-9BA50F4904D7";
name = "23 Aug 23 at 01:16";
shapes = (
{
closed = 1;
nodes = (
(85,-119,o),
(67,-142,o),
(35,-142,cs),
(11,-142,o),
(-16,-133,o),
(-41,-86,c),
(-41,-175,l),
(-16,-197,o),
(19,-206,o),
(43,-206,cs),
(113,-206,o),
(157,-157,o),
(157,-77,cs),
(157,500,l),
(85,500,l),
(85,-67,ls)
);
}
);
width = 232;
},
{
anchors = (
{
name = bottom;
pos = (122,-200);
},
{
name = top;
pos = (122,500);
}
);
associatedMasterId = m01;
layerId = "697BDA3F-05AC-4C4E-B10D-4E24EAE5CC18";
name = "23 Aug 23 at 01:17";
shapes = (
{
closed = 1;
nodes = (
(87,-200,l),
(124,-175,o),
(157,-109,o),
(157,8,cs),
(157,500,l),
(85,500,l),
(85,-5,ls),
(85,-110,o),
(46,-165,o),
(-6,-200,c)
);
}
);
width = 232;
}
);
metricRight = l;
unicode = 567;
},
{
glyphname = k;
kernLeft = KO_l;
kernRight = KO_k;
layers = (
{
anchors = (
{
name = bottom;
pos = (274,0);
},
{
name = top;
pos = (274,800);
}
);
associatedMasterId = m01;
layerId = "39FBB691-CC37-4834-AA5C-5043A2DE086B";
name = "6 Mar 23 at 02:39";
shapes = (
{
attr = {
fillColor = (0,255);
identifier = ID0x7f7b7de7f8d0;
};
closed = 1;
nodes = (
(147,0,l),
(147,800,l),
(75,800,l),
(75,0,l)
);
},
{
attr = {
fillColor = (0,255);
identifier = ID0x7f7b7e0489c0;
};
closed = 1;
nodes = (
(147,250,l),
(507,500,l),
(402,500,l),
(106,295,l)
);
},
{
attr = {
fillColor = (0,255);
identifier = ID0x7f7b7e0489c0;
};
closed = 1;
nodes = (
(442,0,l),
(527,0,l),
(313,364,l),
(247,333,l)
);
}
);
width = 537;
},
{
anchors = (
{
name = bottom;
pos = (274,0);
},
{
name = top;
pos = (274,800);
}
);
layerId = m01;
name = Regular;
shapes = (
{
attr = {
fillColor = (0,255);
identifier = ID0x7f7b7de7f8d0;
};
closed = 1;
nodes = (
(147,0,l),
(147,800,l),
(75,800,l),
(75,0,l)
);
},
{
attr = {
fillColor = (0,255);
identifier = ID0x7f7b7e0489c0;
};
closed = 1;
nodes = (
(147,180,l),
(507,500,l),
(414,500,l),
(105,222,l)
);
},
{
attr = {
fillColor = (0,255);
identifier = ID0x7f7b7e0489c0;
};
closed = 1;
nodes = (
(442,0,l),
(527,0,l),
(283,344,l),
(217,313,l)
);
}
);
width = 527;
}
);
metricLeft = l;
unicode = 107;
},
{
glyphname = kgreenlandic;
kernRight = KO_k;
layers = (
{
anchors = (
{
name = bottom;
pos = (274,0);
},
{
name = top;
pos = (274,500);
}
);
layerId = m01;
shapes = (
{
attr = {
fillColor = (0,255);
identifier = ID0x56a987c40;
};
closed = 1;
nodes = (
(147,0,l),
(147,500,l),
(75,500,l),
(75,0,l)
);
},
{
attr = {
fillColor = (0,255);
identifier = ID0x56a987c40;
};
closed = 1;
nodes = (
(147,180,l),
(507,500,l),
(414,500,l),
(105,222,l)
);
},
{
attr = {
fillColor = (0,255);
identifier = ID0x56a987c40;
};
closed = 1;
nodes = (
(442,0,l),
(527,0,l),
(283,344,l),
(217,313,l)
);
}
);
width = 527;
}
);
unicode = 312;
},
{
glyphname = l;
kernLeft = KO_l;
kernRight = KO_l;
layers = (
{
anchors = (
{
name = bottom;
pos = (111,0);
},
{
name = center;
pos = (111,400);
},
{
name = top;
pos = (111,800);
},
{
name = topright;
pos = (187,800);
}
);
layerId = m01;
shapes = (
{
attr = {
fillColor = (0,255);
identifier = ID0x7f7b913f2d50;
};
closed = 1;
nodes = (
(147,0,l),
(147,800,l),
(75,800,l),
(75,0,l)
);
}
);
width = 222;
}
);
metricRight = "=|";
unicode = 108;
},
{
glyphname = m;
kernLeft = KO_n;
kernRight = KO_n;
layers = (
{
layerId = m01;
shapes = (
{
attr = {
fillColor = (0,255);
identifier = ID0x7f7b793fac10;
};
closed = 1;
nodes = (
(354,456,o),
(405,409,o),
(405,317,cs),
(405,0,l),
(478,0,l),
(478,330,ls),
(478,443,o),
(416,512,o),
(307,512,cs),
(184,512,o),
(125,425,o),
(120,303,c),
(146,303,l),
(153,402,o),
(205,456,o),
(283,456,cs)
);
},
{
attr = {
fillColor = (0,255);
identifier = ID0x7f7b793fac10;
};
closed = 1;
nodes = (
(146,0,l),
(146,500,l),
(74,500,l),
(74,0,l)
);
},
{
attr = {
fillColor = (0,255);
identifier = ID0x7f7b793fac10;
};
closed = 1;
nodes = (
(686,456,o),
(737,409,o),
(737,317,cs),
(737,0,l),
(810,0,l),
(810,330,ls),
(810,443,o),
(748,512,o),
(632,512,cs),
(507,512,o),
(439,432,o),
(432,303,c),
(478,303,l),
(485,402,o),
(537,456,o),
(615,456,cs)
);
}
);
width = 870;
}
);
metricLeft = n;
metricRight = n;
unicode = 109;
},
{
glyphname = n;
kernLeft = KO_n;
kernRight = KO_n;
layers = (
{
anchors = (
{
name = bottom;
pos = (283,0);
},
{
name = top;
pos = (283,500);
}
);
layerId = m01;
shapes = (
{
attr = {
fillColor = (0,255);
};
closed = 1;
nodes = (
(370,456,o),
(425,405,o),
(425,306,cs),
(425,0,l),
(498,0,l),
(498,319,ls),
(498,439,o),
(432,512,o),
(316,512,cs),
(187,512,o),
(125,421,o),
(120,292,c),
(146,292,l),
(153,398,o),
(209,456,o),
(293,456,cs)
);
},
{
attr = {
fillColor = (0,255);
};
closed = 1;
nodes = (
(146,0,l),
(146,500,l),
(74,500,l),
(74,0,l)
);
}
);
width = 558;
}
);
unicode = 110;
},
{
glyphname = napostrophe;
layers = (
{
anchors = (
{
name = bottom;
pos = (283,0);
},
{
name = top;
pos = (283,500);
}
);
layerId = m01;
shapes = (
{
attr = {
fillColor = (0,255);
identifier = ID0x5a8f7cba0;
};
closed = 1;
nodes = (
(370,456,o),
(425,405,o),
(425,306,cs),
(425,0,l),
(498,0,l),
(498,319,ls),
(498,439,o),
(432,512,o),
(316,512,cs),
(187,512,o),
(125,421,o),
(120,292,c),
(146,292,l),
(153,398,o),
(209,456,o),
(293,456,cs)
);
},
{
attr = {
fillColor = (0,255);
identifier = ID0x5a8f7cba0;
};
closed = 1;
nodes = (
(146,0,l),
(146,500,l),
(74,500,l),
(74,0,l)
);
},
{
closed = 1;
nodes = (
(130,695,l),
(130,633,o),
(125,595,o),
(65,545,c),
(144,545,l),
(184,595,o),
(189,630,o),
(189,705,cs),
(189,800,l),
(83,800,l),
(83,695,l)
);
}
);
width = 558;
}
);
unicode = 329;
},
{
glyphname = nhookleft;
kernRight = KO_n;
layers = (
{
anchors = (
{
name = bottom;
pos = (737,-200);
},
{
name = top;
pos = (737,708);
}
);
layerId = m01;
shapes = (
{
attr = {
fillColor = (0,255);
identifier = ID0x58334e2b0;
};
closed = 1;
nodes = (
(427,456,o),
(482,405,o),
(482,306,cs),
(482,0,l),
(555,0,l),
(555,319,ls),
(555,439,o),
(489,512,o),
(373,512,cs),
(244,512,o),
(182,421,o),
(177,292,c),
(203,292,l),
(210,398,o),
(266,456,o),
(350,456,cs)
);
},
{
attr = {
fillColor = (0,255);
identifier = ID0x58334e2b0;
};
closed = 1;
nodes = (
(203,0,l),
(203,500,l),
(131,500,l),
(131,0,l)
);
},
{
closed = 1;
nodes = (
(131,-119,o),
(113,-142,o),
(81,-142,cs),
(57,-142,o),
(30,-133,o),
(5,-86,c),
(5,-175,l),
(30,-197,o),
(65,-206,o),
(89,-206,cs),
(159,-206,o),
(203,-157,o),
(203,-77,cs),
(203,500,l),
(131,500,l),
(131,-67,ls)
);
}
);
width = 615;
}
);
metricLeft = j;
metricRight = n;
unicode = 626;
},
{
glyphname = eng;
kernRight = KO_n;
layers = (
{
anchors = (
{
name = bottom;
pos = (691,-200);
},
{
name = top;
pos = (691,708);
}
);
layerId = m01;
shapes = (
{
attr = {
fillColor = (0,255);
identifier = ID0x580d550a0;
};
closed = 1;
nodes = (
(381,456,o),
(436,405,o),
(436,306,cs),
(436,0,l),
(509,0,l),
(509,319,ls),
(509,439,o),
(443,512,o),
(327,512,cs),
(198,512,o),
(136,421,o),
(131,292,c),
(157,292,l),
(164,398,o),
(220,456,o),
(304,456,cs)
);
},
{
attr = {
fillColor = (0,255);
identifier = ID0x580d550a0;
};
closed = 1;
nodes = (
(157,0,l),
(157,500,l),
(85,500,l),
(85,0,l)
);
},
{
closed = 1;
nodes = (
(436,-119,o),
(418,-142,o),
(386,-142,cs),
(362,-142,o),
(335,-133,o),
(310,-86,c),
(310,-175,l),
(335,-197,o),
(370,-206,o),
(394,-206,cs),
(464,-206,o),
(509,-157,o),
(509,-77,cs),
(509,300,l),
(436,300,l),
(436,-67,ls)
);
}
);
width = 569;
}
);
unicode = 331;
},
{
glyphname = o;
kernLeft = KO_e;
kernRight = KO_o;
layers = (
{
anchors = (
{
name = bottom;
pos = (302,0);
},
{
name = center;
pos = (302,250);
},
{
name = ogonek;
pos = (560,10);
},
{
name = top;
pos = (302,500);
},
{
name = topright;
pos = (604,500);
}
);
layerId = m01;
shapes = (
{
closed = 1;
nodes = (
(459,-8,o),
(561,100,o),
(561,250,cs),
(561,399,o),
(459,507,o),
(302,507,cs),
(145,507,o),
(43,399,o),
(43,250,cs),
(43,100,o),
(145,-8,o),
(302,-8,cs)
);
},
{
closed = 1;
nodes = (
(195,55,o),
(118,137,o),
(118,250,cs),
(118,363,o),
(195,444,o),
(302,444,cs),
(409,444,o),
(486,363,o),
(486,250,cs),
(486,137,o),
(409,55,o),
(302,55,cs)
);
}
);
width = 604;
}
);
metricRight = "=|";
unicode = 111;
},
{
glyphname = oe;
kernLeft = KO_e;
kernRight = KO_e;
layers = (
{
anchors = (
{
name = bottom;
pos = (924,0);
},
{
name = center;
pos = (302,250);
},
{
name = ogonek;
pos = (1164,10);
},
{
name = top;
pos = (924,500);
},
{
name = topright;
pos = (604,500);
}
);
layerId = m01;
shapes = (
{
closed = 1;
nodes = (
(459,-8,o),
(561,100,o),
(561,250,cs),
(561,399,o),
(459,507,o),
(302,507,cs),
(145,507,o),
(43,399,o),
(43,250,cs),
(43,100,o),
(145,-8,o),
(302,-8,cs)
);
},
{
closed = 1;
nodes = (
(195,55,o),
(118,137,o),
(118,250,cs),
(118,363,o),
(195,444,o),
(302,444,cs),
(409,444,o),
(486,363,o),
(486,250,cs),
(486,137,o),
(409,55,o),
(302,55,cs)
);
},
{
closed = 1;
nodes = (
(532,241,l),
(994,241,l),
(994,280,ls),
(994,397,o),
(896,507,o),
(744,507,cs),
(588,507,o),
(486,397,o),
(486,250,cs),
(486,100,o),
(588,-8,o),
(745,-8,cs),
(848,-8,o),
(928,30,o),
(972,94,c),
(932,183,l),
(900,97,o),
(841,55,o),
(745,55,cs),
(638,55,o),
(561,137,o),
(561,240,cs),
(561,267,ls),
(561,371,o),
(628,444,o),
(744,444,cs),
(836,444,o),
(918,388,o),
(918,279,cs),
(918,268,l),
(959,300,l),
(532,300,l)
);
}
);
width = 1037;
}
);
metricLeft = o;
metricRight = e;
unicode = 339;
},
{
glyphname = p;
kernLeft = KO_n;
kernRight = KO_o;
layers = (
{
layerId = m01;
shapes = (
{
attr = {
fillColor = (0,255);
identifier = ID0x7f7b7d4d6b80;
};
closed = 1;
nodes = (
(105,250,l),
(105,100,o),
(208,-8,o),
(348,-8,cs),
(488,-8,o),
(590,100,o),
(590,250,cs),
(590,399,o),
(488,507,o),
(348,507,cs),
(208,507,o),
(105,399,o),
(105,250,c),
(146,250,l),
(146,365,o),
(224,447,o),
(331,447,cs),
(438,447,o),
(515,365,o),
(515,250,cs),
(515,135,o),
(438,52,o),
(331,52,cs),
(224,52,o),
(146,135,o),
(146,250,c)
);
},
{
attr = {
fillColor = (0,255);
identifier = ID0x7f7b7d4d6b80;
};
closed = 1;
nodes = (
(146,-200,l),
(146,500,l),
(74,500,l),
(74,-200,l)
);
}
);
width = 633;
}
);
metricLeft = n;
metricRight = o;
unicode = 112;
},
{
glyphname = thorn;
kernLeft = KO_l;
kernRight = KO_o;
layers = (
{
layerId = m01;
shapes = (
{
attr = {
fillColor = (0,255);
identifier = ID0x7f7b6c528910;
};
closed = 1;
nodes = (
(106,250,l),
(106,100,o),
(209,-8,o),
(349,-8,cs),
(489,-8,o),
(591,100,o),
(591,250,cs),
(591,399,o),
(489,507,o),
(349,507,cs),
(209,507,o),
(106,399,o),
(106,250,c),
(147,250,l),
(147,365,o),
(225,447,o),
(332,447,cs),
(439,447,o),
(516,365,o),
(516,250,cs),
(516,135,o),
(439,52,o),
(332,52,cs),
(225,52,o),
(147,135,o),
(147,250,c)
);
},
{
attr = {
fillColor = (0,255);
identifier = ID0x7f7b6c528910;
};
closed = 1;
nodes = (
(147,-200,l),
(147,800,l),
(75,800,l),
(75,-200,l)
);
}
);
width = 634;
}
);
metricLeft = l;
metricRight = p;
unicode = 254;
},
{
glyphname = r;
kernLeft = KO_n;
kernRight = KO_r;
layers = (
{
associatedMasterId = m01;
layerId = "84B74547-0C1C-4B55-9582-75C119B61588";
name = "6 Mar 23 at 02:14";
shapes = (
{
attr = {
fillColor = (0,255);
identifier = ID0x7f7b792fd500;
};
closed = 1;
nodes = (
(382,487,l),
(356,501,o),
(325,509,o),
(290,509,cs),
(166,509,o),
(119,417,o),
(114,242,c),
(136,242,l),
(142,381,o),
(181,443,o),
(266,443,cs),
(317,443,o),
(361,424,o),
(382,396,c)
);
},
{
attr = {
fillColor = (0,255);
identifier = ID0x7f7b792fd500;
};
closed = 1;
nodes = (
(136,0,l),
(136,500,l),
(64,500,l),
(64,0,l)
);
}
);
width = 392;
},
{
anchors = (
{
name = bottom;
pos = (228,0);
},
{
name = top;
pos = (228,500);
}
);
background = {
shapes = (
{
attr = {
fillColor = (0,255);
identifier = ID0x7f7b7d3292f0;
};
closed = 1;
nodes = (
(370,456,o),
(425,405,o),
(425,306,c),
(498,319,l),
(498,439,o),
(432,512,o),
(316,512,cs),
(187,512,o),
(125,421,o),
(120,292,c),
(146,292,l),
(153,398,o),
(209,456,o),
(293,456,cs)
);
}
);
};
layerId = m01;
name = Regular;
shapes = (
{
attr = {
fillColor = (0,255);
identifier = ID0x7f7b7d3292f0;
};
closed = 1;
nodes = (
(146,0,l),
(146,500,l),
(74,500,l),
(74,0,l)
);
},
{
closed = 1;
nodes = (
(146,215,l),
(146,407,o),
(196,448,o),
(266,448,cs),
(327,448,o),
(387,406,o),
(375,314,c),
(442,380,l),
(431,453,o),
(379,507,o),
(297,507,cs),
(193,507,o),
(116,441,o),
(116,215,c)
);
}
);
width = 455;
}
);
metricLeft = n;
unicode = 114;
},
{
glyphname = s;
kernLeft = KO_s;
kernRight = KO_s;
layers = (
{
associatedMasterId = m01;
layerId = "9BFE8C6E-E581-4322-960D-6E6120C20C7B";
name = "5 Mar 23 at 17:41";
shapes = (
{
attr = {
fillColor = (0,255);
};
closed = 1;
nodes = (
(360,512,o),
(441,454,o),
(441,374,c),
(441,374,l),
(426,454,o),
(345,512,o),
(249,512,cs),
(147,512,o),
(73,451,o),
(73,367,cs),
(73,160,o),
(387,275,o),
(387,138,cs),
(387,79,o),
(327,49,o),
(260,49,cs),
(180,49,o),
(103,97,o),
(118,204,c),
(46,138,l),
(64,46,o),
(141,-10,o),
(259,-10,cs),
(360,-10,o),
(460,35,o),
(460,144,cs),
(460,346,o),
(74,235,o),
(74,367,cs),
(74,451,o),
(148,512,o),
(249,512,cs)
);
}
);
width = 510;
},
{
anchors = (
{
name = bottom;
pos = (250,0);
},
{
name = top;
pos = (250,500);
}
);
layerId = m01;
name = Regular;
shapes = (
{
attr = {
fillColor = (0,255);
};
closed = 1;
nodes = (
(312,453,o),
(380,408,o),
(364,313,c),
(436,379,l),
(419,462,o),
(349,512,o),
(244,512,cs),
(152,512,o),
(68,466,o),
(68,369,cs),
(68,164,o),
(382,277,o),
(382,138,cs),
(382,79,o),
(322,49,o),
(255,49,cs),
(175,49,o),
(98,97,o),
(113,199,c),
(41,133,l),
(59,46,o),
(136,-10,o),
(254,-10,cs),
(355,-10,o),
(455,35,o),
(455,144,cs),
(455,349,o),
(141,237,o),
(141,375,cs),
(141,424,o),
(188,453,o),
(244,453,cs)
);
}
);
width = 500;
}
);
unicode = 115;
},
{
glyphname = germandbls;
kernLeft = KO_l;
kernRight = KO_germandbls;
layers = (
{
anchors = (
{
name = bottom;
pos = (436,0);
},
{
name = top;
pos = (436,500);
}
);
layerId = m01;
shapes = (
{
closed = 1;
nodes = (
(466,752,o),
(383,807,o),
(274,807,cs),
(157,807,o),
(75,730,o),
(75,601,cs),
(75,0,l),
(147,0,l),
(147,591,ls),
(147,691,o),
(200,748,o),
(275,748,cs),
(349,748,o),
(396,706,o),
(396,644,cs),
(396,546,o),
(289,531,o),
(289,407,cs),
(289,252,o),
(494,270,o),
(494,140,cs),
(494,85,o),
(456,48,o),
(400,48,cs),
(333,48,o),
(297,102,o),
(309,184,c),
(237,118,l),
(251,40,o),
(306,-12,o),
(400,-12,cs),
(497,-12,o),
(567,51,o),
(567,146,cs),
(567,313,o),
(361,304,o),
(361,417,cs),
(361,509,o),
(466,527,o),
(466,649,cs)
);
}
);
width = 591;
}
);
metricLeft = l;
unicode = 223;
},
{
glyphname = t;
kernLeft = KO_t;
kernRight = KO_t;
layers = (
{
anchors = (
{
name = "#entry";
pos = (62,0);
},
{
name = "#exit";
pos = (394,0);
},
{
name = bottom;
pos = (272,0);
},
{
name = center;
pos = (217,250);
},
{
name = top;
pos = (231,500);
},
{
name = topright;
pos = (282,800);
}
);
layerId = m01;
shapes = (
{
closed = 1;
nodes = (
(392,128,l),
(353,63,o),
(313,52,o),
(284,52,cs),
(239,52,o),
(216,75,o),
(216,127,cs),
(216,678,l),
(144,607,l),
(144,117,ls),
(144,37,o),
(197,-12,o),
(274,-12,cs),
(309,-12,o),
(353,-2,o),
(392,27,c)
);
},
{
closed = 1;
nodes = (
(39,441,l),
(392,441,l),
(392,500,l),
(39,500,l)
);
}
);
width = 422;
},
{
associatedMasterId = m01;
layerId = "30E0ECAA-ABEA-4E32-B8BB-9024311E413A";
name = "6 Mar 23 at 00:14";
shapes = (
{
closed = 1;
nodes = (
(272,55,l),
(263,50,o),
(253,48,o),
(244,48,cs),
(204,48,o),
(186,75,o),
(186,127,cs),
(186,678,l),
(114,607,l),
(114,117,ls),
(114,39,o),
(156,-12,o),
(238,-12,cs),
(242,-12,o),
(246,-12,o),
(250,-12,c)
);
},
{
closed = 1;
nodes = (
(9,441,l),
(362,441,l),
(362,500,l),
(9,500,l)
);
},
{
closed = 1;
nodes = (
(250,-12,l),
(309,-7,o),
(348,28,o),
(360,73,c),
(311,142,l),
(310,92,o),
(293,66,o),
(272,55,c)
);
}
);
width = 402;
}
);
unicode = 116;
},
{
glyphname = u;
kernLeft = KO_u;
kernRight = KO_u;
layers = (
{
anchors = (
{
name = bottom;
pos = (272,0);
},
{
name = top;
pos = (272,500);
}
);
associatedMasterId = m01;
layerId = "E86013C0-67C1-4219-BE42-E1F86C1059A4";
name = "6 Mar 23 at 03:01";
shapes = (
{
attr = {
fillColor = (0,255);
identifier = ID0x7f7b8521edc0;
};
closed = 1;
nodes = (
(185,44,o),
(130,95,o),
(130,194,cs),
(130,500,l),
(57,500,l),
(57,181,ls),
(57,61,o),
(123,-12,o),
(239,-12,cs),
(368,-12,o),
(430,79,o),
(435,208,c),
(409,208,l),
(402,102,o),
(346,44,o),
(262,44,cs)
);
},
{
attr = {
fillColor = (0,255);
identifier = ID0x7f7b8521edc0;
};
closed = 1;
nodes = (
(409,500,l),
(409,200,l),
(481,200,l),
(481,500,l)
);
},
{
closed = 1;
nodes = (
(409,200,l),
(409,199,o),
(388,60,o),
(458,0,c),
(551,0,l),
(469,52,o),
(485,133,o),
(481,200,c)
);
}
);
width = 555;
},
{
anchors = (
{
name = bottom;
pos = (281,0);
},
{
name = ogonek;
pos = (512,0);
},
{
name = top;
pos = (281,500);
},
{
name = topright;
pos = (538,500);
}
);
layerId = m01;
name = Regular;
shapes = (
{
attr = {
fillColor = (0,255);
identifier = ID0x7f7b67d8aa20;
};
closed = 1;
nodes = (
(188,44,o),
(133,95,o),
(133,194,cs),
(133,500,l),
(60,500,l),
(60,181,ls),
(60,61,o),
(126,-12,o),
(242,-12,cs),
(371,-12,o),
(433,79,o),
(438,208,c),
(412,208,l),
(405,102,o),
(349,44,o),
(265,44,cs)
);
},
{
attr = {
fillColor = (0,255);
identifier = ID0x7f7b67d8aa20;
};
closed = 1;
nodes = (
(412,500,l),
(412,0,l),
(484,0,l),
(484,500,l)
);
}
);
width = 558;
}
);
metricLeft = "=|n";
metricRight = "=|n";
unicode = 117;
},
{
glyphname = v;
kernLeft = KO_v;
kernRight = KO_y;
layers = (
{
layerId = m01;
shapes = (
{
attr = {
fillColor = (0,255);
identifier = ID0x7f7b64abc510;
};
closed = 1;
nodes = (
(10,500,l),
(216,0,l),
(292,0,l),
(87,500,l)
);
},
{
attr = {
fillColor = (0,255);
identifier = ID0x7f7b64abc510;
};
closed = 1;
nodes = (
(451,500,l),
(246,0,l),
(320,0,l),
(527,500,l)
);
}
);
width = 537;
}
);
metricRight = "=|";
unicode = 118;
},
{
glyphname = w;
kernLeft = KO_w;
kernRight = KO_w;
layers = (
{
anchors = (
{
name = bottom;
pos = (349,0);
},
{
name = top;
pos = (349,500);
}
);
layerId = m01;
shapes = (
{
attr = {
fillColor = (0,255);
identifier = ID0x7f7b6c581120;
};
closed = 1;
nodes = (
(20,500,l),
(143,0,l),
(215,0,l),
(93,500,l)
);
},
{
attr = {
fillColor = (0,255);
identifier = ID0x7f7b6c581120;
};
closed = 1;
nodes = (
(306,500,l),
(179,0,l),
(243,0,l),
(372,500,l)
);
},
{
attr = {
fillColor = (0,255);
identifier = ID0x7f7b6c581120;
};
closed = 1;
nodes = (
(325,500,l),
(453,0,l),
(519,0,l),
(392,500,l)
);
},
{
attr = {
fillColor = (0,255);
identifier = ID0x7f7b6c581120;
};
closed = 1;
nodes = (
(605,500,l),
(483,0,l),
(553,0,l),
(677,500,l)
);
}
);
width = 697;
},
{
anchors = (
{
name = bottom;
pos = (349,0);
},
{
name = top;
pos = (349,500);
}
);
associatedMasterId = m01;
layerId = "65F7142A-5D55-4781-B750-C30787B9973D";
name = "6 Mar 23 at 02:18";
shapes = (
{
attr = {
fillColor = (0,255);
identifier = ID0x7f7b65737a00;
};
closed = 1;
nodes = (
(20,500,l),
(196,0,l),
(271,0,l),
(96,500,l)
);
},
{
attr = {
fillColor = (0,255);
identifier = ID0x7f7b65737a00;
};
closed = 1;
nodes = (
(383,228,l),
(479,500,l),
(410,500,l),
(345,313,l)
);
},
{
attr = {
fillColor = (0,255);
identifier = ID0x7f7b65737a00;
};
closed = 1;
nodes = (
(228,500,l),
(404,0,l),
(473,0,l),
(298,500,l)
);
},
{
attr = {
fillColor = (0,255);
identifier = ID0x7f7b65737a00;
};
closed = 1;
nodes = (
(602,500,l),
(427,0,l),
(500,0,l),
(677,500,l)
);
},
{
attr = {
fillColor = (0,255);
identifier = ID0x7f7b65737a00;
};
closed = 1;
nodes = (
(335,313,l),
(225,0,l),
(292,0,l),
(373,228,l)
);
}
);
width = 697;
}
);
metricRight = "=|";
unicode = 119;
},
{
glyphname = x;
kernLeft = KO_x;
kernRight = KO_x;
layers = (
{
layerId = m01;
shapes = (
{
closed = 1;
nodes = (
(30,500,l),
(231,254,l),
(20,0,l),
(108,0,l),
(303,234,l),
(255,234,l),
(450,0,l),
(537,0,l),
(325,254,l),
(527,500,l),
(440,500,l),
(255,274,l),
(303,274,l),
(118,500,l)
);
}
);
width = 557;
}
);
metricRight = "=|";
unicode = 120;
},
{
glyphname = y;
kernLeft = KO_y;
kernRight = KO_y;
layers = (
{
anchors = (
{
name = bottom;
pos = (267,0);
},
{
name = top;
pos = (267,500);
}
);
layerId = m01;
shapes = (
{
attr = {
fillColor = (0,255);
identifier = ID0x7f7b65b3be60;
};
closed = 1;
nodes = (
(10,500,l),
(241,-60,l),
(292,0,l),
(87,500,l)
);
},
{
closed = 1;
nodes = (
(451,500,l),
(228,-43,ls),
(195,-124,o),
(174,-148,o),
(133,-148,cs),
(109,-148,o),
(72,-138,o),
(40,-82,c),
(40,-183,l),
(66,-205,o),
(103,-212,o),
(129,-212,cs),
(211,-212,o),
(254,-159,o),
(284,-86,cs),
(527,500,l)
);
}
);
width = 537;
},
{
anchors = (
{
name = bottom;
pos = (281,0);
},
{
name = top;
pos = (281,500);
}
);
associatedMasterId = m01;
layerId = "AC9177A2-8173-4A2F-8AE0-81FCC6AC34A4";
name = "6 Mar 23 at 02:22";
shapes = (
{
attr = {
fillColor = (0,255);
identifier = ID0x7f7b65b3be60;
};
closed = 1;
nodes = (
(24,500,l),
(255,-60,l),
(306,0,l),
(101,500,l)
);
},
{
closed = 1;
nodes = (
(465,500,l),
(242,-43,ls),
(216,-107,o),
(199,-155,o),
(149,-155,cs),
(108,-155,o),
(77,-120,o),
(87,-42,c),
(20,-108,l),
(30,-170,o),
(67,-215,o),
(147,-215,cs),
(241,-215,o),
(271,-152,o),
(302,-77,cs),
(541,500,l)
);
}
);
width = 561;
}
);
metricLeft = v;
metricRight = v;
unicode = 121;
},
{
glyphname = z;
kernLeft = KO_z;
kernRight = KO_z;
layers = (
{
anchors = (
{
name = bottom;
pos = (235,0);
},
{
name = center;
pos = (235,250);
},
{
name = top;
pos = (235,500);
}
);
layerId = m01;
shapes = (
{
closed = 1;
nodes = (
(426,500,l),
(43,500,l),
(43,441,l),
(387,441,l),
(371,491,l),
(43,52,l),
(43,0,l),
(426,0,l),
(426,59,l),
(82,59,l),
(98,9,l),
(426,448,l)
);
}
);
width = 469;
}
);
metricRight = "=|";
unicode = 122;
},
{
color = 9;
glyphname = a.ordn;
layers = (
{
anchors = (
{
name = bottom;
pos = (310,0);
},
{
name = ogonek;
pos = (561,0);
},
{
name = top;
pos = (310,500);
}
);
associatedMasterId = m01;
layerId = "8E575075-34E6-4850-AAC6-742B13C8E998";
name = "18 Jul 23 at 16:22";
shapes = (
{
attr = {
fillColor = (0,255);
};
closed = 1;
nodes = (
(334,404,o),
(371,374,o),
(371,294,cs),
(371,204,o),
(344,62,o),
(420,0,c),
(618,0,l),
(510,62,o),
(539,210,o),
(539,301,cs),
(539,459,o),
(435,526,o),
(286,526,cs),
(135,526,o),
(51,455,o),
(30,374,c),
(197,306,l),
(199,362,o),
(227,404,o),
(283,404,cs)
);
},
{
attr = {
fillColor = (0,255);
};
closed = 1;
nodes = (
(368,188,o),
(350,97,o),
(274,97,cs),
(237,97,o),
(209,119,o),
(209,160,cs),
(209,185,o),
(225,210,o),
(275,211,cs),
(382,213,l),
(381,315,l),
(275,314,ls),
(128,313,o),
(33,246,o),
(33,143,cs),
(33,48,o),
(101,-15,o),
(207,-15,cs),
(324,-15,o),
(405,60,o),
(387,219,c),
(368,224,l)
);
}
);
width = 580;
},
{
anchors = (
{
name = bottom;
pos = (227,307);
},
{
name = ogonek;
pos = (420,307);
},
{
name = top;
pos = (227,691);
}
);
layerId = m01;
name = Regular;
shapes = (
{
closed = 1;
nodes = (
(274,657,o),
(314,621,o),
(314,542,cs),
(314,465,o),
(294,357,o),
(352,309,c),
(438,309,l),
(359,349,o),
(381,465,o),
(381,546,cs),
(381,655,o),
(312,709,o),
(208,709,cs),
(121,709,o),
(55,658,o),
(44,591,c),
(113,529,l),
(89,617,o),
(151,657,o),
(207,657,cs)
);
},
{
closed = 1;
nodes = (
(315,450,o),
(284,352,o),
(185,352,cs),
(140,352,o),
(111,380,o),
(111,418,cs),
(111,470,o),
(148,490,o),
(206,491,cs),
(331,493,l),
(331,545,l),
(206,544,ls),
(117,543,o),
(46,496,o),
(46,412,cs),
(46,351,o),
(92,301,o),
(177,301,cs),
(277,301,o),
(328,362,o),
(334,478,c),
(312,484,l)
);
}
);
vertWidth = 0;
width = 458;
}
);
metricLeft = "=a*0.9";
metricRight = "=a*0.9";
},
{
color = 9;
glyphname = d.ordn;
layers = (
{
anchors = (
{
name = bottom;
pos = (241,307);
},
{
name = center;
pos = (241,499);
},
{
name = top;
pos = (241,923);
},
{
name = topright;
pos = (471,923);
}
);
layerId = m01;
shapes = (
{
closed = 1;
nodes = (
(381,418,o),
(323,355,o),
(243,355,cs),
(163,355,o),
(106,417,o),
(106,504,cs),
(106,592,o),
(163,653,o),
(243,653,cs),
(323,653,o),
(381,591,o),
(380,501,c),
(422,501,l),
(423,619,o),
(341,705,o),
(230,705,cs),
(119,705,o),
(39,620,o),
(39,504,cs),
(39,388,o),
(119,303,o),
(230,303,cs),
(341,303,o),
(423,389,o),
(422,507,c),
(380,507,l)
);
},
{
closed = 1;
nodes = (
(445,931,l),
(380,931,l),
(380,309,l),
(445,309,l)
);
}
);
vertWidth = 0;
width = 513;
}
);
metricLeft = "=d*0.9";
metricRight = "=d*0.9";
},
{
color = 9;
glyphname = e.ordn;
layers = (
{
anchors = (
{
name = bottom;
pos = (243,307);
},
{
name = ogonek;
pos = (325,307);
},
{
name = top;
pos = (243,692);
}
);
layerId = m01;
shapes = (
{
closed = 1;
nodes = (
(74,495,l),
(439,495,l),
(439,520,ls),
(439,619,o),
(362,705,o),
(242,705,cs),
(119,705,o),
(39,619,o),
(39,504,cs),
(39,388,o),
(119,303,o),
(243,303,cs),
(324,303,o),
(389,334,o),
(422,384,c),
(386,466,l),
(362,392,o),
(319,357,o),
(243,357,cs),
(164,357,o),
(106,419,o),
(106,497,cs),
(106,518,ls),
(106,597,o),
(156,652,o),
(242,652,cs),
(311,652,o),
(371,610,o),
(371,527,cs),
(371,509,l),
(417,546,l),
(74,546,l)
);
}
);
vertWidth = 0;
width = 478;
}
);
metricLeft = "=e*0.9";
metricRight = "=e*0.9";
},
{
color = 9;
glyphname = h.ordn;
layers = (
{
anchors = (
{
name = topright;
pos = (221,924);
}
);
layerId = m01;
shapes = (
{
closed = 1;
nodes = (
(298,660,o),
(338,623,o),
(338,547,cs),
(338,309,l),
(404,309,l),
(404,557,ls),
(404,651,o),
(351,709,o),
(259,709,cs),
(155,709,o),
(106,635,o),
(103,534,c),
(133,534,l),
(138,616,o),
(179,660,o),
(241,660,cs)
);
},
{
closed = 1;
nodes = (
(133,309,l),
(133,930,l),
(68,930,l),
(68,309,l)
);
}
);
vertWidth = 0;
width = 458;
}
);
metricLeft = "=h*0.9";
metricRight = "=h*0.9";
},
{
color = 9;
glyphname = m.ordn;
layers = (
{
layerId = m01;
shapes = (
{
closed = 1;
nodes = (
(285,660,o),
(322,626,o),
(322,556,cs),
(322,309,l),
(388,309,l),
(388,566,ls),
(388,654,o),
(338,709,o),
(251,709,cs),
(152,709,o),
(105,638,o),
(102,542,c),
(132,542,l),
(137,619,o),
(175,660,o),
(233,660,cs)
);
},
{
closed = 1;
nodes = (
(132,309,l),
(132,700,l),
(67,700,l),
(67,309,l)
);
},
{
closed = 1;
nodes = (
(540,660,o),
(577,626,o),
(577,556,cs),
(577,309,l),
(643,309,l),
(643,566,ls),
(643,654,o),
(593,709,o),
(501,709,cs),
(401,709,o),
(347,644,o),
(342,542,c),
(388,542,l),
(392,619,o),
(430,660,o),
(488,660,cs)
);
}
);
vertWidth = 0;
width = 697;
}
);
metricLeft = "=n*0.9";
metricRight = "=n*0.9";
},
{
color = 9;
glyphname = n.ordn;
layers = (
{
anchors = (
{
name = bottom;
pos = (233,309);
},
{
name = top;
pos = (233,694);
}
);
layerId = m01;
shapes = (
{
closed = 1;
nodes = (
(297,660,o),
(337,623,o),
(337,547,cs),
(337,309,l),
(403,309,l),
(403,557,ls),
(403,651,o),
(350,709,o),
(258,709,cs),
(154,709,o),
(105,635,o),
(102,534,c),
(132,534,l),
(137,616,o),
(178,660,o),
(240,660,cs)
);
},
{
closed = 1;
nodes = (
(132,309,l),
(132,700,l),
(67,700,l),
(67,309,l)
);
}
);
vertWidth = 0;
width = 457;
}
);
metricLeft = "=n*0.9";
metricRight = "=n*0.9";
},
{
color = 9;
glyphname = o.ordn;
layers = (
{
anchors = (
{
name = bottom;
pos = (243,307);
},
{
name = center;
pos = (243,499);
},
{
name = ogonek;
pos = (441,315);
},
{
name = top;
pos = (243,692);
},
{
name = topright;
pos = (475,692);
}
);
layerId = m01;
shapes = (
{
closed = 1;
nodes = (
(367,303,o),
(447,388,o),
(447,504,cs),
(447,620,o),
(367,705,o),
(243,705,cs),
(119,705,o),
(39,620,o),
(39,504,cs),
(39,388,o),
(119,303,o),
(243,303,cs)
);
},
{
closed = 1;
nodes = (
(164,357,o),
(106,419,o),
(106,504,cs),
(106,590,o),
(164,651,o),
(243,651,cs),
(322,651,o),
(380,590,o),
(380,504,cs),
(380,419,o),
(322,357,o),
(243,357,cs)
);
}
);
vertWidth = 0;
width = 486;
}
);
metricLeft = "=o*0.9";
metricRight = "=o*0.9";
},
{
color = 9;
glyphname = r.ordn;
layers = (
{
associatedMasterId = m01;
layerId = "84B74547-0C1C-4B55-9582-75C119B61588";
name = "6 Mar 23 at 02:14";
shapes = (
{
attr = {
fillColor = (0,255);
identifier = ID0x7f7b792fd500;
};
closed = 1;
nodes = (
(382,487,l),
(356,501,o),
(325,509,o),
(290,509,cs),
(166,509,o),
(119,417,o),
(114,242,c),
(136,242,l),
(142,381,o),
(181,443,o),
(266,443,cs),
(317,443,o),
(361,424,o),
(382,396,c)
);
},
{
attr = {
fillColor = (0,255);
identifier = ID0x7f7b792fd500;
};
closed = 1;
nodes = (
(136,0,l),
(136,500,l),
(64,500,l),
(64,0,l)
);
}
);
width = 392;
},
{
anchors = (
{
name = bottom;
pos = (191,309);
},
{
name = top;
pos = (191,694);
}
);
background = {
shapes = (
{
attr = {
fillColor = (0,255);
identifier = ID0x7f7b7d3292f0;
};
closed = 1;
nodes = (
(391,456,o),
(446,405,o),
(446,306,c),
(519,319,l),
(519,439,o),
(453,512,o),
(337,512,cs),
(208,512,o),
(146,421,o),
(141,292,c),
(167,292,l),
(174,398,o),
(230,456,o),
(314,456,cs)
);
}
);
};
layerId = m01;
name = Regular;
shapes = (
{
closed = 1;
nodes = (
(133,309,l),
(133,700,l),
(67,700,l),
(67,309,l)
);
},
{
closed = 1;
nodes = (
(133,474,l),
(133,624,o),
(168,654,o),
(220,654,cs),
(268,654,o),
(313,619,o),
(297,542,c),
(361,603,l),
(352,660,o),
(310,705,o),
(244,705,cs),
(160,705,o),
(99,652,o),
(100,474,c)
);
}
);
vertWidth = 0;
width = 373;
}
);
metricLeft = "=n*0.9";
metricRight = "=r*0.9";
},
{
color = 9;
glyphname = s.ordn;
layers = (
{
associatedMasterId = m01;
layerId = "9BFE8C6E-E581-4322-960D-6E6120C20C7B";
name = "5 Mar 23 at 17:41";
shapes = (
{
attr = {
fillColor = (0,255);
};
closed = 1;
nodes = (
(360,512,o),
(441,454,o),
(441,374,c),
(441,374,l),
(426,454,o),
(345,512,o),
(249,512,cs),
(147,512,o),
(73,451,o),
(73,367,cs),
(73,160,o),
(387,275,o),
(387,138,cs),
(387,79,o),
(327,49,o),
(260,49,cs),
(180,49,o),
(103,97,o),
(118,204,c),
(46,138,l),
(64,46,o),
(141,-10,o),
(259,-10,cs),
(360,-10,o),
(460,35,o),
(460,144,cs),
(460,346,o),
(74,235,o),
(74,367,cs),
(74,451,o),
(148,512,o),
(249,512,cs)
);
}
);
width = 510;
},
{
anchors = (
{
name = bottom;
pos = (203,307);
},
{
name = top;
pos = (203,691);
}
);
layerId = m01;
name = Regular;
shapes = (
{
closed = 1;
nodes = (
(251,657,o),
(304,621,o),
(282,540,c),
(351,602,l),
(338,668,o),
(282,709,o),
(198,709,cs),
(125,709,o),
(58,672,o),
(58,596,cs),
(58,433,o),
(299,520,o),
(299,418,cs),
(299,373,o),
(256,352,o),
(206,352,cs),
(144,352,o),
(85,391,o),
(104,477,c),
(37,415,l),
(51,346,o),
(112,301,o),
(206,301,cs),
(285,301,o),
(365,337,o),
(365,422,cs),
(365,585,o),
(124,499,o),
(124,600,cs),
(124,637,o),
(157,657,o),
(198,657,cs)
);
}
);
vertWidth = 0;
width = 406;
}
);
metricLeft = "=s*0.9";
metricRight = "=s*0.9";
},
{
color = 9;
glyphname = t.ordn;
layers = (
{
anchors = (
{
name = "#entry";
pos = (57,306);
},
{
name = "#exit";
pos = (312,306);
},
{
name = bottom;
pos = (219,306);
},
{
name = center;
pos = (187,499);
},
{
name = top;
pos = (187,691);
},
{
name = topright;
pos = (226,922);
}
);
layerId = m01;
shapes = (
{
closed = 1;
nodes = (
(316,428,l),
(283,364,o),
(252,354,o),
(228,354,cs),
(197,354,o),
(181,370,o),
(181,409,cs),
(181,844,l),
(116,779,l),
(116,401,ls),
(116,339,o),
(158,299,o),
(221,299,cs),
(248,299,o),
(285,308,o),
(316,331,c)
);
},
{
closed = 1;
nodes = (
(35,647,l),
(316,647,l),
(316,699,l),
(35,699,l)
);
}
);
vertWidth = 0;
width = 343;
},
{
associatedMasterId = m01;
layerId = "30E0ECAA-ABEA-4E32-B8BB-9024311E413A";
name = "6 Mar 23 at 00:14";
shapes = (
{
closed = 1;
nodes = (
(272,55,l),
(263,50,o),
(253,48,o),
(244,48,cs),
(204,48,o),
(186,75,o),
(186,127,cs),
(186,678,l),
(114,607,l),
(114,117,ls),
(114,39,o),
(156,-12,o),
(238,-12,cs),
(242,-12,o),
(246,-12,o),
(250,-12,c)
);
},
{
closed = 1;
nodes = (
(9,441,l),
(362,441,l),
(362,500,l),
(9,500,l)
);
},
{
closed = 1;
nodes = (
(250,-12,l),
(309,-7,o),
(348,28,o),
(360,73,c),
(311,142,l),
(310,92,o),
(293,66,o),
(272,55,c)
);
}
);
width = 402;
}
);
metricLeft = "=t*0.9";
metricRight = "=t*0.9";
},
{
glyphname = a.ss04;
kernLeft = KO_e;
kernRight = KO_u;
layers = (
{
anchors = (
{
name = bottom;
pos = (317,0);
},
{
name = ogonek;
pos = (587,0);
},
{
name = top;
pos = (317,500);
}
);
layerId = m01;
shapes = (
{
attr = {
fillColor = (0,255);
identifier = ID0x583f8d6c0;
};
closed = 1;
nodes = (
(487,135,o),
(409,52,o),
(302,52,cs),
(195,52,o),
(118,135,o),
(118,250,cs),
(118,365,o),
(195,447,o),
(302,447,cs),
(409,447,o),
(487,365,o),
(487,250,c),
(528,250,l),
(528,399,o),
(425,507,o),
(285,507,cs),
(145,507,o),
(43,399,o),
(43,250,cs),
(43,100,o),
(145,-8,o),
(285,-8,cs),
(425,-8,o),
(528,100,o),
(528,250,c),
(487,250,l)
);
},
{
attr = {
fillColor = (0,255);
identifier = ID0x583f8d6c0;
};
closed = 1;
nodes = (
(559,500,l),
(487,500,l),
(487,0,l),
(559,0,l)
);
}
);
width = 633;
}
);
metricLeft = d;
metricRight = u;
},
{
glyphname = g.ss04;
kernLeft = KO_e;
kernRight = KO_u;
layers = (
{
anchors = (
{
name = bottom;
pos = (317,-200);
},
{
name = top;
pos = (317,500);
}
);
layerId = m01;
shapes = (
{
attr = {
fillColor = (0,255);
identifier = ID0x5688852d0;
};
closed = 1;
nodes = (
(487,143,o),
(409,62,o),
(302,62,cs),
(195,62,o),
(118,143,o),
(118,255,cs),
(118,367,o),
(195,447,o),
(302,447,cs),
(409,447,o),
(487,367,o),
(487,255,c),
(528,255,l),
(528,401,o),
(425,507,o),
(285,507,cs),
(145,507,o),
(43,401,o),
(43,255,cs),
(43,108,o),
(145,2,o),
(285,2,cs),
(425,2,o),
(528,108,o),
(528,255,c),
(487,255,l)
);
},
{
closed = 1;
nodes = (
(559,500,l),
(487,500,l),
(487,44,ls),
(487,-63,o),
(417,-151,o),
(297,-151,cs),
(214,-151,o),
(150,-109,o),
(120,-23,c),
(80,-112,l),
(121,-174,o),
(202,-214,o),
(300,-214,cs),
(461,-214,o),
(559,-106,o),
(559,44,cs)
);
}
);
width = 633;
}
);
},
{
glyphname = f_f;
kernLeft = KO_f;
kernRight = KO_f_f;
layers = (
{
layerId = m01;
shapes = (
{
closed = 1;
nodes = (
(135,0,l),
(207,0,l),
(207,561,ls),
(207,668,o),
(260,718,o),
(342,718,cs),
(409,718,o),
(468,680,o),
(468,581,c),
(525,647,l),
(519,722,o),
(436,777,o),
(339,777,cs),
(220,777,o),
(135,696,o),
(135,561,cs)
);
},
{
closed = 1;
nodes = (
(442,441,l),
(442,500,l),
(30,500,l),
(30,441,l)
);
},
{
closed = 1;
nodes = (
(468,0,l),
(540,0,l),
(540,611,ls),
(540,704,o),
(583,748,o),
(651,748,cs),
(702,748,o),
(759,703,o),
(749,610,c),
(816,676,l),
(804,751,o),
(738,807,o),
(650,807,cs),
(541,807,o),
(468,743,o),
(468,621,cs)
);
},
{
closed = 1;
nodes = (
(766,441,l),
(766,500,l),
(363,500,l),
(363,441,l)
);
}
);
width = 786;
}
);
metricLeft = f;
metricRight = f;
},
{
glyphname = f_j.liga;
kernLeft = KO_f;
kernRight = KO_f_i;
layers = (
{
anchors = (
{
name = "#entry";
pos = (135,0);
}
);
layerId = m01;
shapes = (
{
closed = 1;
nodes = (
(135,0,l),
(207,0,l),
(207,601,ls),
(207,701,o),
(256,748,o),
(333,748,cs),
(393,748,o),
(459,703,o),
(446,610,c),
(513,676,l),
(500,751,o),
(428,807,o),
(332,807,cs),
(214,807,o),
(135,740,o),
(135,611,cs)
);
},
{
closed = 1;
nodes = (
(513,441,l),
(513,500,l),
(30,500,l),
(30,441,l)
);
},
{
closed = 1;
nodes = (
(468,-67,ls),
(468,-119,o),
(450,-142,o),
(418,-142,cs),
(394,-142,o),
(367,-133,o),
(342,-86,c),
(342,-175,l),
(367,-197,o),
(402,-206,o),
(426,-206,cs),
(496,-206,o),
(540,-157,o),
(540,-77,cs),
(540,500,l),
(468,500,l)
);
}
);
width = 614;
}
);
metricLeft = f;
metricRight = u;
},
{
glyphname = f_t.liga;
kernLeft = KO_f;
kernRight = KO_f_t.liga;
layers = (
{
anchors = (
{
name = "#entry";
pos = (135,0);
},
{
name = bottom_1;
pos = (625,0);
},
{
name = center_1;
pos = (584,250);
},
{
name = top_1;
pos = (584,500);
},
{
name = topright_1;
pos = (635,800);
}
);
layerId = m01;
shapes = (
{
closed = 1;
nodes = (
(135,0,l),
(207,0,l),
(207,611,ls),
(207,704,o),
(248,748,o),
(313,748,cs),
(361,748,o),
(415,706,o),
(406,620,c),
(473,686,l),
(458,755,o),
(397,807,o),
(312,807,cs),
(206,807,o),
(135,743,o),
(135,621,cs)
);
},
{
closed = 1;
nodes = (
(433,441,l),
(433,500,l),
(30,500,l),
(30,441,l)
);
},
{
closed = 1;
nodes = (
(735,128,l),
(696,63,o),
(656,52,o),
(627,52,cs),
(582,52,o),
(559,75,o),
(559,127,cs),
(559,648,l),
(487,577,l),
(487,117,ls),
(487,37,o),
(540,-12,o),
(617,-12,cs),
(652,-12,o),
(696,-2,o),
(735,27,c)
);
},
{
closed = 1;
nodes = (
(392,441,l),
(735,441,l),
(735,500,l),
(392,500,l)
);
}
);
width = 765;
}
);
metricLeft = f;
metricRight = t;
},
{
glyphname = fi;
layers = (
{
anchors = (
{
name = "#entry";
pos = (135,0);
}
);
layerId = m01;
shapes = (
{
closed = 1;
nodes = (
(135,0,l),
(207,0,l),
(207,601,ls),
(207,701,o),
(256,748,o),
(333,748,cs),
(393,748,o),
(459,703,o),
(446,610,c),
(513,676,l),
(500,751,o),
(428,807,o),
(332,807,cs),
(214,807,o),
(135,740,o),
(135,611,cs)
);
},
{
closed = 1;
nodes = (
(513,441,l),
(513,500,l),
(30,500,l),
(30,441,l)
);
},
{
attr = {
fillColor = (0,255);
identifier = ID0x7f7b66f87140;
};
closed = 1;
nodes = (
(540,0,l),
(540,500,l),
(468,500,l),
(468,0,l)
);
}
);
width = 614;
}
);
metricLeft = f;
metricRight = u;
unicode = 64257;
},
{
glyphname = fl;
layers = (
{
anchors = (
{
name = "#entry";
pos = (135,0);
},
{
name = "#exit";
pos = (540,0);
},
{
name = topright;
pos = (580,800);
}
);
layerId = m01;
shapes = (
{
closed = 1;
nodes = (
(540,0,l),
(540,591,ls),
(540,723,o),
(466,803,o),
(339,807,cs),
(210,807,o),
(135,727,o),
(135,591,cs),
(135,0,l),
(207,0,l),
(207,591,ls),
(207,690,o),
(256,748,o),
(340,748,cs),
(421,748,o),
(468,690,o),
(468,591,cs),
(468,0,l)
);
},
{
closed = 1;
nodes = (
(512,441,l),
(512,500,l),
(30,500,l),
(30,441,l)
);
}
);
width = 614;
}
);
metricLeft = f;
metricRight = u;
unicode = 64258;
},
{
glyphname = ordfeminine;
kernRight = KO_ordfeminine;
layers = (
{
anchors = (
{
name = bottom;
pos = (221,307);
},
{
name = ogonek;
pos = (417,307);
},
{
name = top;
pos = (221,697);
}
);
background = {
shapes = (
{
attr = {
fillColor = (0,255);
};
closed = 1;
nodes = (
(428,307,l),
(358,354,o),
(377,467,o),
(377,545,cs),
(377,654,o),
(310,706,o),
(207,706,cs),
(122,706,o),
(59,657,o),
(47,591,c),
(103,539,l),
(88,621,o),
(151,660,o),
(207,660,cs),
(276,660,o),
(321,622,o),
(321,540,cs),
(321,462,o),
(301,354,o),
(356,307,c)
);
},
{
attr = {
fillColor = (0,255);
};
closed = 1;
nodes = (
(318,439,o),
(285,345,o),
(184,345,cs),
(136,345,o),
(105,375,o),
(105,414,cs),
(105,468,o),
(145,491,o),
(206,492,cs),
(328,493,l),
(327,540,l),
(206,539,ls),
(118,538,o),
(48,492,o),
(48,409,cs),
(48,348,o),
(93,299,o),
(176,299,cs),
(273,299,o),
(323,357,o),
(331,473,c),
(318,477,l)
);
}
);
};
layerId = m01;
shapes = (
{
ref = a.ordn;
}
);
width = 458;
},
{
associatedMasterId = m01;
background = {
shapes = (
{
attr = {
fillColor = (0,255);
};
closed = 1;
nodes = (
(418,307,l),
(348,354,o),
(367,467,o),
(367,545,cs),
(367,654,o),
(300,706,o),
(197,706,cs),
(112,706,o),
(49,657,o),
(37,591,c),
(93,539,l),
(78,621,o),
(141,660,o),
(197,660,cs),
(266,660,o),
(311,622,o),
(311,540,cs),
(311,462,o),
(291,354,o),
(346,307,c)
);
},
{
attr = {
fillColor = (0,255);
};
closed = 1;
nodes = (
(308,439,o),
(275,345,o),
(174,345,cs),
(126,345,o),
(95,375,o),
(95,414,cs),
(95,468,o),
(135,491,o),
(196,492,cs),
(318,493,l),
(317,540,l),
(196,539,ls),
(108,538,o),
(38,492,o),
(38,409,cs),
(38,348,o),
(83,299,o),
(166,299,cs),
(263,299,o),
(313,357,o),
(321,473,c),
(308,477,l)
);
}
);
};
layerId = "635DE9B7-D154-4218-A2DC-45BFF1E2E7F1";
name = "22 Aug 23 at 19:33";
shapes = (
{
closed = 1;
nodes = (
(420,307,l),
(372,347,o),
(372,425,o),
(372,541,cs),
(372,655,o),
(305,706,o),
(209,706,cs),
(113,706,o),
(55,653,o),
(40,589,c),
(76,557,l),
(79,622,o),
(123,674,o),
(207,674,cs),
(286,674,o),
(338,633,o),
(338,537,cs),
(338,422,o),
(338,346,o),
(376,307,c)
);
},
{
closed = 1;
nodes = (
(337,445,o),
(302,332,o),
(184,332,cs),
(117,332,o),
(80,368,o),
(80,421,cs),
(80,480,o),
(127,508,o),
(201,508,cs),
(352,508,l),
(351,540,l),
(201,539,ls),
(105,538,o),
(42,497,o),
(42,417,cs),
(42,355,o),
(83,302,o),
(177,302,cs),
(283,302,o),
(346,362,o),
(356,478,c),
(338,483,l)
);
}
);
width = 430;
}
);
unicode = 170;
},
{
glyphname = ordmasculine;
kernRight = KO_ordmasculine;
layers = (
{
layerId = m01;
shapes = (
{
ref = o.ordn;
}
);
width = 486;
},
{
anchors = (
{
name = bottom;
pos = (227,0);
},
{
name = bottom_1;
pos = (205,0);
},
{
name = center;
pos = (227,250);
},
{
name = ogonek;
pos = (485,10);
},
{
name = ogonek_1;
pos = (456,0);
},
{
name = top;
pos = (227,500);
},
{
name = top_1;
pos = (205,500);
},
{
name = topright;
pos = (529,500);
}
);
associatedMasterId = m01;
layerId = "CEE2DCCB-0413-4943-9C60-E17AACBB7100";
name = "22 Aug 23 at 19:34";
shapes = (
{
closed = 1;
nodes = (
(349,301,o),
(430,388,o),
(430,505,cs),
(430,621,o),
(349,708,o),
(227,708,cs),
(105,708,o),
(24,621,o),
(24,505,cs),
(24,388,o),
(105,301,o),
(227,301,cs)
);
},
{
closed = 1;
nodes = (
(131,333,o),
(61,404,o),
(61,505,cs),
(61,607,o),
(131,677,o),
(227,677,cs),
(323,677,o),
(393,607,o),
(393,505,cs),
(393,404,o),
(323,333,o),
(227,333,cs)
);
}
);
width = 454;
}
);
metricRight = "=|";
unicode = 186;
},
{
glyphname = Omega;
kernLeft = KO_Omega;
layers = (
{
anchors = (
{
name = bottom;
pos = (414,0);
},
{
name = center;
pos = (414,350);
},
{
name = ogonek;
pos = (744,10);
},
{
name = top;
pos = (414,700);
},
{
name = topleft;
pos = (22,700);
},
{
name = topright;
pos = (806,700);
}
);
layerId = m01;
shapes = (
{
attr = {
fillColor = (0,255);
identifier = ID0x580e37360;
};
closed = 1;
nodes = (
(353,0,l),
(353,65,l),
(65,65,l),
(65,0,l)
);
},
{
closed = 1;
nodes = (
(414,713,l),
(200,713,o),
(62,560,o),
(62,359,cs),
(62,181,o),
(173,57,o),
(353,30,c),
(353,65,l),
(224,95,o),
(137,207,o),
(137,353,cs),
(137,525,o),
(253,648,o),
(414,648,c)
);
},
{
attr = {
fillColor = (0,255);
identifier = ID0x580e37360;
};
closed = 1;
nodes = (
(763,65,l),
(475,65,l),
(475,0,l),
(763,0,l)
);
},
{
closed = 1;
nodes = (
(575,648,o),
(691,525,o),
(691,353,cs),
(691,207,o),
(604,95,o),
(475,65,c),
(475,30,l),
(655,58,o),
(766,181,o),
(766,359,cs),
(766,560,o),
(628,713,o),
(414,713,c),
(414,648,l)
);
}
);
width = 828;
}
);
unicode = 937;
},
{
glyphname = pi;
kernLeft = KO_pi;
kernRight = KO_t;
layers = (
{
layerId = m01;
shapes = (
{
closed = 1;
nodes = (
(39,500,l),
(39,441,l),
(589,441,l),
(589,500,l)
);
},
{
closed = 1;
nodes = (
(456,500,l),
(384,500,l),
(384,123,ls),
(384,43,o),
(428,-6,o),
(498,-6,cs),
(522,-6,o),
(557,3,o),
(582,25,c),
(582,114,l),
(557,67,o),
(530,58,o),
(506,58,cs),
(474,58,o),
(456,81,o),
(456,133,cs)
);
},
{
attr = {
fillColor = (0,255);
identifier = ID0x584c96160;
};
closed = 1;
nodes = (
(234,500,l),
(162,500,l),
(162,0,l),
(234,0,l)
);
}
);
width = 619;
}
);
metricLeft = t;
metricRight = t;
unicode = 960;
},
{
glyphname = zero;
kernLeft = KO_six;
kernRight = KO_zero;
layers = (
{
layerId = m01;
shapes = (
{
closed = 1;
nodes = (
(509,-8,o),
(616,129,o),
(616,353,cs),
(616,576,o),
(509,713,o),
(334,713,cs),
(159,713,o),
(52,576,o),
(52,353,cs),
(52,129,o),
(159,-8,o),
(334,-8,cs)
);
},
{
closed = 1;
nodes = (
(206,57,o),
(127,169,o),
(127,353,cs),
(127,536,o),
(206,648,o),
(334,648,cs),
(462,648,o),
(541,536,o),
(541,353,cs),
(541,169,o),
(462,57,o),
(334,57,cs)
);
}
);
width = 668;
}
);
metricLeft = O;
metricRight = O;
unicode = 48;
},
{
glyphname = one;
kernLeft = KO_one;
kernRight = KO_one;
layers = (
{
associatedMasterId = m01;
layerId = "7FDBE4FE-45B6-459E-BA90-6080981250CC";
name = "6 Mar 23 at 00:46";
shapes = (
{
closed = 1;
nodes = (
(210,0,l),
(210,700,l),
(30,562,l),
(135,562,l),
(135,0,l)
);
}
);
width = 295;
},
{
layerId = m01;
name = Regular;
shapes = (
{
closed = 1;
nodes = (
(220,0,l),
(220,700,l),
(155,700,l),
(23,580,l),
(23,499,l),
(145,609,l),
(145,0,l)
);
}
);
width = 305;
},
{
associatedMasterId = m01;
layerId = "E640DF32-FBCE-458D-A91D-94FDBE348E62";
name = "6 Mar 23 at 00:46";
shapes = (
{
attr = {
fillColor = (0,255);
identifier = ID0x7f7b64a355f0;
};
closed = 1;
nodes = (
(260,0,l),
(260,700,l),
(185,700,l),
(185,0,l)
);
},
{
closed = 1;
nodes = (
(185,700,l),
(185,628,o),
(165,548,o),
(40,557,c),
(40,487,l),
(187,480,o),
(205,593,o),
(205,701,c)
);
}
);
width = 345;
},
{
associatedMasterId = m01;
layerId = "34A803FF-0FE4-4AB2-8A28-8E74990D0C0B";
name = "6 Mar 23 at 00:47";
shapes = (
{
closed = 1;
nodes = (
(260,0,l),
(260,700,l),
(192,700,l),
(192,673,ls),
(192,611,o),
(184,547,o),
(30,557,c),
(70,496,l),
(125,496,o),
(203,498,o),
(203,606,c),
(185,541,l),
(185,0,l)
);
}
);
width = 345;
}
);
metricRight = H;
unicode = 49;
},
{
glyphname = two;
kernLeft = KO_two;
kernRight = KO_two;
layers = (
{
layerId = m01;
shapes = (
{
closed = 1;
nodes = (
(71,0,l),
(565,0,l),
(565,67,l),
(101,67,l),
(151,30,l),
(116,311,o),
(561,225,o),
(561,506,cs),
(561,646,o),
(454,712,o),
(321,712,cs),
(182,712,o),
(88,644,o),
(62,523,c),
(132,440,l),
(125,591,o),
(228,651,o),
(321,651,cs),
(407,651,o),
(483,602,o),
(483,506,cs),
(483,290,o),
(71,354,o),
(71,50,cs)
);
}
);
width = 630;
}
);
unicode = 50;
},
{
glyphname = three;
kernLeft = KO_three;
kernRight = KO_three;
layers = (
{
layerId = m01;
shapes = (
{
closed = 1;
nodes = (
(309,359,l),
(441,359,o),
(526,423,o),
(526,527,cs),
(526,650,o),
(425,712,o),
(298,712,cs),
(165,712,o),
(76,648,o),
(50,533,c),
(120,450,l),
(113,595,o),
(212,653,o),
(298,653,cs),
(380,653,o),
(449,608,o),
(449,527,cs),
(449,453,o),
(393,409,o),
(309,409,c)
);
},
{
closed = 1;
nodes = (
(411,344,o),
(479,288,o),
(479,203,cs),
(479,102,o),
(391,48,o),
(298,48,cs),
(195,48,o),
(89,108,o),
(96,259,c),
(26,176,l),
(52,55,o),
(149,-13,o),
(298,-13,cs),
(439,-13,o),
(556,59,o),
(556,199,cs),
(556,321,o),
(459,396,o),
(309,396,c),
(309,344,l)
);
},
{
closed = 1;
nodes = (
(213,344,l),
(310,344,l),
(310,409,l),
(213,409,l)
);
}
);
width = 626;
}
);
metricRight = B;
unicode = 51;
},
{
glyphname = four;
kernLeft = KO_four;
kernRight = KO_four;
layers = (
{
layerId = m01;
shapes = (
{
attr = {
fillColor = (0,255);
identifier = ID0x7f7b66320900;
};
closed = 1;
nodes = (
(446,0,l),
(446,700,l),
(371,700,l),
(371,0,l)
);
},
{
attr = {
fillColor = (0,255);
identifier = ID0x7f7b66320900;
};
closed = 1;
nodes = (
(618,204,l),
(618,266,l),
(75,266,l),
(65,204,l)
);
},
{
attr = {
fillColor = (0,255);
identifier = ID0x7f7b66320900;
};
closed = 1;
nodes = (
(29,204,l),
(69,204,l),
(412,700,l),
(329,700,l),
(29,261,l)
);
}
);
width = 618;
}
);
unicode = 52;
},
{
glyphname = five;
kernLeft = KO_five;
kernRight = KO_five;
layers = (
{
layerId = m01;
shapes = (
{
closed = 1;
nodes = (
(192,369,o),
(251,417,o),
(341,417,cs),
(450,417,o),
(523,346,o),
(523,239,cs),
(523,127,o),
(450,52,o),
(341,52,cs),
(252,52,o),
(148,111,o),
(150,259,c),
(80,176,l),
(110,55,o),
(210,-13,o),
(336,-13,cs),
(494,-13,o),
(600,88,o),
(600,240,cs),
(600,383,o),
(503,479,o),
(358,479,cs),
(285,479,o),
(205,452,o),
(162,369,c),
(174,355,l),
(184,678,l),
(132,633,l),
(565,633,l),
(565,700,l),
(116,700,l),
(101,303,l),
(216,293,l),
(157,292,l)
);
}
);
width = 659;
}
);
metricLeft = U;
unicode = 53;
},
{
glyphname = six;
kernLeft = KO_six;
kernRight = KO_six;
layers = (
{
layerId = m01;
shapes = (
{
closed = 1;
nodes = (
(488,-10,o),
(588,94,o),
(588,233,cs),
(588,370,o),
(488,463,o),
(344,463,cs),
(200,463,o),
(115,366,o),
(114,230,c),
(143,238,l),
(132,272,o),
(127,311,o),
(127,352,cs),
(127,523,o),
(212,646,o),
(340,646,cs),
(428,646,o),
(509,598,o),
(532,501,c),
(578,596,l),
(533,671,o),
(441,711,o),
(340,711,cs),
(160,711,o),
(52,560,o),
(52,342,cs),
(52,141,o),
(152,-10,o),
(334,-10,cs)
);
},
{
closed = 1;
nodes = (
(155,328,o),
(230,400,o),
(334,400,cs),
(438,400,o),
(513,328,o),
(513,228,cs),
(513,127,o),
(438,55,o),
(334,55,cs),
(232,55,o),
(155,125,o),
(155,228,cs)
);
}
);
width = 633;
}
);
metricLeft = zero;
unicode = 54;
},
{
glyphname = seven;
kernLeft = KO_seven;
kernRight = KO_seven;
layers = (
{
layerId = m01;
shapes = (
{
closed = 1;
nodes = (
(190,0,l),
(516,645,l),
(516,700,l),
(40,700,l),
(40,633,l),
(481,633,l),
(456,675,l),
(110,0,l)
);
}
);
width = 556;
}
);
unicode = 55;
},
{
glyphname = eight;
kernLeft = KO_eight;
kernRight = KO_eight;
layers = (
{
layerId = m01;
shapes = (
{
closed = 1;
nodes = (
(298,359,l),
(442,359,o),
(531,423,o),
(531,527,cs),
(531,650,o),
(428,712,o),
(298,712,c),
(298,651,l),
(383,651,o),
(456,607,o),
(456,527,cs),
(456,453,o),
(397,409,o),
(298,409,c)
);
},
{
closed = 1;
nodes = (
(415,344,o),
(486,283,o),
(486,198,cs),
(486,97,o),
(395,48,o),
(298,48,c),
(298,-13,l),
(441,-13,o),
(561,53,o),
(561,198,cs),
(561,315,o),
(460,396,o),
(298,396,c),
(298,344,l)
);
},
{
closed = 1;
nodes = (
(199,409,o),
(140,453,o),
(140,527,cs),
(140,607,o),
(213,651,o),
(298,651,c),
(298,712,l),
(168,712,o),
(65,650,o),
(65,527,cs),
(65,423,o),
(154,359,o),
(298,359,c),
(298,409,l)
);
},
{
closed = 1;
nodes = (
(298,396,l),
(136,396,o),
(35,315,o),
(35,198,cs),
(35,53,o),
(155,-13,o),
(298,-13,c),
(298,48,l),
(201,48,o),
(110,97,o),
(110,198,cs),
(110,283,o),
(181,344,o),
(298,344,c)
);
}
);
width = 600;
}
);
unicode = 56;
},
{
glyphname = zero.osf;
kernRight = KO_zero.osf;
layers = (
{
layerId = m01;
shapes = (
{
closed = 1;
nodes = (
(459,-8,o),
(561,100,o),
(561,250,cs),
(561,399,o),
(459,507,o),
(302,507,cs),
(145,507,o),
(43,399,o),
(43,250,cs),
(43,100,o),
(145,-8,o),
(302,-8,cs)
);
},
{
closed = 1;
nodes = (
(195,55,o),
(118,137,o),
(118,250,cs),
(118,363,o),
(195,444,o),
(302,444,cs),
(409,444,o),
(486,363,o),
(486,250,cs),
(486,137,o),
(409,55,o),
(302,55,cs)
);
}
);
width = 604;
}
);
},
{
glyphname = one.osf;
kernLeft = KO_one.osf;
kernRight = KO_one.osf;
layers = (
{
layerId = m01;
shapes = (
{
closed = 1;
nodes = (
(220,0,l),
(220,500,l),
(155,500,l),
(23,380,l),
(23,301,l),
(178,441,l),
(148,454,l),
(148,0,l)
);
}
);
width = 305;
}
);
},
{
glyphname = two.osf;
kernLeft = KO_two.osf;
kernRight = KO_two.osf;
layers = (
{
layerId = m01;
shapes = (
{
closed = 1;
nodes = (
(56,0,l),
(470,0,l),
(470,65,l),
(86,65,l),
(132,30,l),
(86,264,o),
(466,139,o),
(466,358,cs),
(466,465,o),
(377,516,o),
(272,516,cs),
(158,516,o),
(83,460,o),
(62,375,c),
(128,302,l),
(123,409,o),
(194,455,o),
(273,455,cs),
(334,455,o),
(392,421,o),
(392,359,cs),
(392,211,o),
(56,317,o),
(56,50,cs)
);
}
);
width = 520;
}
);
},
{
glyphname = three.osf;
kernLeft = KO_three.osf;
kernRight = KO_three.osf;
layers = (
{
layerId = m01;
shapes = (
{
closed = 1;
nodes = (
(279,182,l),
(390,182,o),
(471,245,o),
(471,347,cs),
(471,446,o),
(395,515,o),
(275,515,cs),
(164,515,o),
(86,455,o),
(65,363,c),
(132,280,l),
(126,405,o),
(207,459,o),
(278,459,cs),
(342,459,o),
(397,416,o),
(397,344,cs),
(397,275,o),
(346,232,o),
(279,232,c)
);
},
{
closed = 1;
nodes = (
(369,167,o),
(421,120,o),
(421,47,cs),
(421,-36,o),
(354,-83,o),
(278,-83,cs),
(191,-83,o),
(96,-23,o),
(102,129,c),
(35,46,l),
(56,-67,o),
(142,-143,o),
(276,-143,cs),
(398,-143,o),
(495,-78,o),
(495,40,cs),
(495,154,o),
(405,219,o),
(279,219,c),
(279,167,l)
);
},
{
closed = 1;
nodes = (
(193,167,l),
(280,167,l),
(280,232,l),
(193,232,l)
);
}
);
width = 530;
}
);
},
{
glyphname = four.osf;
kernLeft = KO_four.osf;
kernRight = KO_four.osf;
layers = (
{
layerId = m01;
shapes = (
{
attr = {
fillColor = (0,255);
identifier = ID0x7f7b6e00d090;
};
closed = 1;
nodes = (
(396,-133,l),
(396,500,l),
(325,500,l),
(325,-133,l)
);
},
{
attr = {
fillColor = (0,255);
identifier = ID0x7f7b6e00d090;
};
closed = 1;
nodes = (
(532,31,l),
(532,90,l),
(70,90,l),
(60,31,l)
);
},
{
attr = {
fillColor = (0,255);
identifier = ID0x7f7b6e00d090;
};
closed = 1;
nodes = (
(28,31,l),
(65,31,l),
(357,500,l),
(283,500,l),
(28,88,l)
);
}
);
width = 548;
}
);
},
{
glyphname = five.osf;
kernLeft = KO_five.osf;
kernRight = KO_five.osf;
layers = (
{
layerId = m01;
shapes = (
{
closed = 1;
nodes = (
(143,212,o),
(188,247,o),
(259,247,cs),
(354,247,o),
(417,182,o),
(417,85,cs),
(417,-15,o),
(355,-82,o),
(262,-82,cs),
(182,-82,o),
(92,-28,o),
(98,108,c),
(31,25,l),
(53,-83,o),
(141,-143,o),
(255,-143,cs),
(397,-143,o),
(491,-52,o),
(491,84,cs),
(491,217,o),
(404,306,o),
(273,306,cs),
(213,306,o),
(154,282,o),
(118,234,c),
(125,225,l),
(135,478,l),
(83,436,l),
(456,436,l),
(456,500,l),
(67,500,l),
(52,167,l),
(167,157,l),
(108,156,l)
);
}
);
width = 521;
}
);
},
{
glyphname = six.osf;
kernRight = KO_six.osf;
layers = (
{
layerId = m01;
shapes = (
{
closed = 1;
nodes = (
(425,-10,o),
(511,83,o),
(511,208,cs),
(511,330,o),
(423,413,o),
(302,413,cs),
(182,413,o),
(112,312,o),
(111,205,c),
(133,213,l),
(122,247,o),
(117,286,o),
(117,327,cs),
(117,476,o),
(191,582,o),
(298,582,cs),
(371,582,o),
(435,533,o),
(458,434,c),
(501,529,l),
(463,604,o),
(384,644,o),
(298,644,cs),
(141,644,o),
(46,510,o),
(46,317,cs),
(46,130,o),
(133,-10,o),
(292,-10,cs)
);
},
{
closed = 1;
nodes = (
(148,275,o),
(208,353,o),
(292,353,cs),
(377,353,o),
(439,290,o),
(439,203,cs),
(439,115,o),
(377,52,o),
(292,52,cs),
(210,52,o),
(148,113,o),
(148,203,cs)
);
}
);
width = 551;
}
);
},
{
glyphname = seven.osf;
kernLeft = KO_seven.osf;
kernRight = KO_seven.osf;
layers = (
{
layerId = m01;
shapes = (
{
closed = 1;
nodes = (
(174,-133,l),
(436,445,l),
(436,500,l),
(20,500,l),
(20,436,l),
(401,436,l),
(379,475,l),
(97,-133,l)
);
}
);
width = 456;
}
);
},
{
glyphname = eight.osf;
kernRight = KO_eight.osf;
layers = (
{
layerId = m01;
shapes = (
{
closed = 1;
nodes = (
(278,330,l),
(392,330,o),
(481,388,o),
(481,484,cs),
(481,589,o),
(391,642,o),
(278,642,c),
(278,584,l),
(348,584,o),
(409,549,o),
(409,484,cs),
(409,418,o),
(360,377,o),
(278,377,c)
);
},
{
closed = 1;
nodes = (
(373,317,o),
(439,259,o),
(439,183,cs),
(439,90,o),
(361,45,o),
(278,45,c),
(278,-13,l),
(405,-13,o),
(511,48,o),
(511,183,cs),
(511,291,o),
(410,365,o),
(278,365,c),
(278,317,l)
);
},
{
closed = 1;
nodes = (
(196,377,o),
(147,418,o),
(147,484,cs),
(147,549,o),
(208,584,o),
(278,584,c),
(278,642,l),
(165,642,o),
(75,589,o),
(75,484,cs),
(75,388,o),
(153,330,o),
(278,330,c),
(278,377,l)
);
},
{
closed = 1;
nodes = (
(278,365,l),
(146,365,o),
(45,291,o),
(45,183,cs),
(45,48,o),
(151,-13,o),
(278,-13,c),
(278,45,l),
(195,45,o),
(117,90,o),
(117,183,cs),
(117,259,o),
(178,317,o),
(278,317,c)
);
}
);
width = 556;
}
);
metricRight = "=|";
},
{
glyphname = zero.dnom;
kernRight = KO_zero.dnom;
layers = (
{
anchors = (
{
name = _circled;
pos = (197,0);
}
);
layerId = m01;
shapes = (
{
closed = 1;
nodes = (
(295,-7,o),
(353,68,o),
(353,193,cs),
(353,318,o),
(295,393,o),
(197,393,cs),
(99,393,o),
(41,318,o),
(41,193,cs),
(41,68,o),
(99,-7,o),
(197,-7,cs)
);
},
{
closed = 1;
nodes = (
(125,27,o),
(81,91,o),
(81,193,cs),
(81,296,o),
(125,359,o),
(197,359,cs),
(269,359,o),
(313,296,o),
(313,193,cs),
(313,91,o),
(269,27,o),
(197,27,cs)
);
}
);
width = 394;
}
);
},
{
glyphname = one.dnom;
layers = (
{
anchors = (
{
name = _circled;
pos = (120,0);
}
);
associatedMasterId = m01;
layerId = "7FDBE4FE-45B6-459E-BA90-6080981250CC";
name = "6 Mar 23 at 00:46";
shapes = (
{
closed = 1;
nodes = (
(210,0,l),
(210,700,l),
(30,562,l),
(135,562,l),
(135,0,l)
);
}
);
width = 295;
},
{
anchors = (
{
name = _circled;
pos = (115,0);
}
);
layerId = m01;
name = Regular;
shapes = (
{
closed = 1;
nodes = (
(138,1,l),
(138,390,l),
(103,390,l),
(31,324,l),
(31,280,l),
(99,342,l),
(99,1,l)
);
}
);
width = 209;
},
{
anchors = (
{
name = _circled;
pos = (150,0);
}
);
associatedMasterId = m01;
layerId = "E640DF32-FBCE-458D-A91D-94FDBE348E62";
name = "6 Mar 23 at 00:46";
shapes = (
{
attr = {
fillColor = (0,255);
identifier = ID0x7f7b64a355f0;
};
closed = 1;
nodes = (
(260,0,l),
(260,700,l),
(185,700,l),
(185,0,l)
);
},
{
closed = 1;
nodes = (
(185,700,l),
(185,628,o),
(165,548,o),
(40,557,c),
(40,487,l),
(187,480,o),
(205,593,o),
(205,701,c)
);
}
);
width = 345;
},
{
anchors = (
{
name = _circled;
pos = (145,0);
}
);
associatedMasterId = m01;
layerId = "34A803FF-0FE4-4AB2-8A28-8E74990D0C0B";
name = "6 Mar 23 at 00:47";
shapes = (
{
closed = 1;
nodes = (
(260,0,l),
(260,700,l),
(192,700,l),
(192,673,ls),
(192,611,o),
(184,547,o),
(30,557,c),
(70,496,l),
(125,496,o),
(203,498,o),
(203,606,c),
(185,541,l),
(185,0,l)
);
}
);
width = 345;
}
);
},
{
glyphname = two.dnom;
layers = (
{
anchors = (
{
name = _circled;
pos = (180.5,0);
}
);
layerId = m01;
shapes = (
{
closed = 1;
nodes = (
(46,0,l),
(320,0,l),
(320,35,l),
(65,35,l),
(89,18,l),
(71,174,o),
(318,128,o),
(318,282,cs),
(318,359,o),
(259,396,o),
(185,396,cs),
(107,396,o),
(56,358,o),
(41,292,c),
(78,249,l),
(75,331,o),
(133,364,o),
(185,364,cs),
(233,364,o),
(276,337,o),
(276,282,cs),
(276,161,o),
(46,196,o),
(46,27,cs)
);
}
);
width = 351;
}
);
},
{
glyphname = three.dnom;
kernRight = KO_three.dnom;
layers = (
{
anchors = (
{
name = _circled;
pos = (185,0);
}
);
layerId = m01;
shapes = (
{
closed = 1;
nodes = (
(186,196,l),
(256,196,o),
(302,231,o),
(302,288,cs),
(302,356,o),
(248,391,o),
(179,391,cs),
(106,391,o),
(58,355,o),
(44,292,c),
(81,248,l),
(78,327,o),
(132,360,o),
(179,360,cs),
(223,360,o),
(261,334,o),
(261,288,cs),
(261,247,o),
(231,221,o),
(186,221,c)
);
},
{
closed = 1;
nodes = (
(241,187,o),
(278,155,o),
(278,108,cs),
(278,50,o),
(229,20,o),
(179,20,cs),
(123,20,o),
(65,54,o),
(68,136,c),
(31,92,l),
(45,26,o),
(97,-12,o),
(179,-12,cs),
(256,-12,o),
(319,28,o),
(319,105,cs),
(319,172,o),
(266,214,o),
(186,214,c),
(186,187,l)
);
},
{
closed = 1;
nodes = (
(132,187,l),
(185,187,l),
(185,221,l),
(132,221,l)
);
}
);
width = 360;
}
);
},
{
glyphname = four.dnom;
layers = (
{
anchors = (
{
name = _circled;
pos = (191,0);
}
);
layerId = m01;
shapes = (
{
closed = 1;
nodes = (
(252,0,l),
(252,390,l),
(212,390,l),
(212,0,l)
);
},
{
closed = 1;
nodes = (
(348,115,l),
(348,147,l),
(47,147,l),
(41,115,l)
);
},
{
closed = 1;
nodes = (
(21,115,l),
(42,115,l),
(232,390,l),
(188,390,l),
(21,146,l)
);
}
);
width = 369;
}
);
},
{
glyphname = five.dnom;
layers = (
{
anchors = (
{
name = _circled;
pos = (183,0);
}
);
layerId = m01;
shapes = (
{
closed = 1;
nodes = (
(103,202,o),
(136,228,o),
(186,228,cs),
(246,228,o),
(288,187,o),
(288,128,cs),
(288,65,o),
(246,22,o),
(186,22,cs),
(136,22,o),
(78,55,o),
(78,136,c),
(41,92,l),
(58,26,o),
(112,-12,o),
(183,-12,cs),
(271,-12,o),
(329,43,o),
(329,128,cs),
(329,208,o),
(276,261,o),
(195,261,cs),
(154,261,o),
(111,245,o),
(87,200,c),
(91,195,l),
(97,371,l),
(72,348,l),
(310,348,l),
(310,384,l),
(61,384,l),
(53,164,l),
(84,162,l)
);
}
);
width = 360;
}
);
},
{
glyphname = six.dnom;
layers = (
{
anchors = (
{
name = _circled;
pos = (187,0);
}
);
layerId = m01;
shapes = (
{
closed = 1;
nodes = (
(274,-9,o),
(329,48,o),
(329,126,cs),
(329,202,o),
(274,253,o),
(193,253,cs),
(114,253,o),
(68,200,o),
(66,125,c),
(80,129,l),
(74,148,o),
(71,169,o),
(71,192,cs),
(71,287,o),
(119,357,o),
(191,357,cs),
(239,357,o),
(284,331,o),
(298,278,c),
(323,328,l),
(298,369,o),
(248,391,o),
(191,391,cs),
(92,391,o),
(31,308,o),
(31,186,cs),
(31,74,o),
(87,-9,o),
(188,-9,cs)
);
},
{
closed = 1;
nodes = (
(87,179,o),
(130,220,o),
(188,220,cs),
(246,220,o),
(289,179,o),
(289,123,cs),
(289,66,o),
(246,25,o),
(188,25,cs),
(131,25,o),
(87,65,o),
(87,123,cs)
);
}
);
width = 360;
}
);
},
{
glyphname = seven.dnom;
layers = (
{
anchors = (
{
name = _circled;
pos = (135,0);
}
);
layerId = m01;
shapes = (
{
closed = 1;
nodes = (
(93,0,l),
(275,360,l),
(275,390,l),
(11,390,l),
(11,354,l),
(254,354,l),
(243,375,l),
(52,0,l)
);
}
);
width = 276;
}
);
},
{
glyphname = eight.dnom;
kernRight = KO_three.dnom;
layers = (
{
anchors = (
{
name = _circled;
pos = (187,0);
}
);
layerId = m01;
shapes = (
{
closed = 1;
nodes = (
(187,196,l),
(267,196,o),
(316,231,o),
(316,288,cs),
(316,356,o),
(260,391,o),
(187,391,c),
(187,358,l),
(235,358,o),
(276,333,o),
(276,288,cs),
(276,247,o),
(243,221,o),
(187,221,c)
);
},
{
closed = 1;
nodes = (
(253,187,o),
(293,152,o),
(293,105,cs),
(293,48,o),
(242,20,o),
(187,20,c),
(187,-12,l),
(267,-12,o),
(333,25,o),
(333,105,cs),
(333,169,o),
(277,214,o),
(187,214,c),
(187,187,l)
);
},
{
closed = 1;
nodes = (
(131,221,o),
(98,247,o),
(98,288,cs),
(98,333,o),
(139,358,o),
(187,358,c),
(187,391,l),
(114,391,o),
(58,356,o),
(58,288,cs),
(58,231,o),
(107,196,o),
(187,196,c),
(187,221,l)
);
},
{
closed = 1;
nodes = (
(187,214,l),
(97,214,o),
(41,169,o),
(41,105,cs),
(41,25,o),
(107,-12,o),
(187,-12,c),
(187,20,l),
(132,20,o),
(81,48,o),
(81,105,cs),
(81,152,o),
(121,187,o),
(187,187,c)
);
}
);
width = 374;
}
);
metricRight = "=|";
},
{
glyphname = nine.dnom;
kernRight = KO_zero.dnom;
layers = (
{
anchors = (
{
name = _circled;
pos = (182,0);
}
);
layerId = m01;
shapes = (
{
closed = 1;
nodes = (
(95,394,o),
(40,336,o),
(40,258,cs),
(40,182,o),
(95,130,o),
(176,130,cs),
(256,130,o),
(304,184,o),
(304,260,c),
(288,255,l),
(294,236,o),
(297,214,o),
(297,192,cs),
(297,96,o),
(249,28,o),
(178,28,cs),
(129,28,o),
(84,54,o),
(71,108,c),
(45,55,l),
(70,14,o),
(122,-9,o),
(178,-9,cs),
(278,-9,o),
(339,76,o),
(339,197,cs),
(339,309,o),
(283,394,o),
(181,394,cs)
);
},
{
closed = 1;
nodes = (
(281,205,o),
(239,165,o),
(181,165,cs),
(123,165,o),
(81,205,o),
(81,261,cs),
(81,317,o),
(123,357,o),
(181,357,cs),
(238,357,o),
(281,318,o),
(281,261,cs)
);
}
);
width = 379;
}
);
},
{
glyphname = fraction;
layers = (
{
layerId = m01;
shapes = (
{
attr = {
fillColor = (0,255);
identifier = ID0x7f7b554e8cb0;
};
closed = 1;
nodes = (
(-88,0,l),
(395,700,l),
(353,700,l),
(-130,0,l)
);
}
);
width = 265;
}
);
metricRight = "=|";
unicode = 8260;
userData = {
KernOnSpecialSpacing = {
L = fraction;
R = fraction;
};
};
},
{
glyphname = "parenleft-ar";
layers = (
{
layerId = m01;
shapes = (
{
closed = 1;
nodes = (
(251,100,l),
(251,500,l),
(214,500,l),
(214,100,l)
);
},
{
closed = 1;
nodes = (
(50,384,l),
(396,184,l),
(412,213,l),
(66,413,l)
);
},
{
closed = 1;
nodes = (
(50,213,l),
(66,184,l),
(412,384,l),
(396,413,l)
);
},
{
attr = {
identifier = ID0x7f7b397749d0;
mask = "1";
};
closed = 1;
nodes = (
(266,240,o),
(293,267,o),
(293,301,cs),
(293,334,o),
(266,361,o),
(233,361,cs),
(199,361,o),
(172,334,o),
(172,301,cs),
(172,267,o),
(199,240,o),
(233,240,cs)
);
},
{
attr = {
fillColor = (0,255);
identifier = ID0x7f7b39f4dea0;
lineCapEnd = 4;
lineCapStart = 4;
strokeHeight = 33;
strokeWidth = 36;
};
closed = 0;
nodes = (
(238,550,l),
(308,693,o),
(436,787,o),
(587,800,c)
);
},
{
attr = {
fillColor = (0,255);
identifier = ID0x7f7b39f4dea0;
lineCapEnd = "4";
lineCapStart = "4";
strokeHeight = 33;
strokeWidth = 36;
};
closed = 0;
nodes = (
(587,-200,l),
(436,-187,o),
(308,-93,o),
(238,50,c)
);
}
);
width = 625;
}
);
metricLeft = asterisk;
metricRight = parenleft;
unicode = 64830;
},
{
glyphname = period;
kernLeft = KO_period;
kernRight = KO_period;
layers = (
{
layerId = m01;
shapes = (
{
attr = {
fillColor = (0,255);
identifier = ID0x7f7b7e250690;
};
closed = 1;
nodes = (
(191,0,l),
(191,105,l),
(85,105,l),
(85,0,l)
);
}
);
width = 276;
}
);
metricLeft = H;
metricRight = H;
unicode = 46;
userData = {
KernOnSpecialSpacing = {
L = period;
R = period;
};
};
},
{
glyphname = comma;
kernLeft = KO_comma;
kernRight = KO_comma;
layers = (
{
layerId = m01;
shapes = (
{
closed = 1;
nodes = (
(150,0,l),
(150,-62,o),
(145,-100,o),
(85,-150,c),
(164,-150,l),
(204,-100,o),
(209,-65,o),
(209,10,cs),
(209,105,l),
(103,105,l),
(103,0,l)
);
}
);
width = 294;
}
);
metricLeft = H;
metricRight = H;
unicode = 44;
userData = {
KernOnSpecialSpacing = {
L = period;
R = period;
};
};
},
{
glyphname = colon;
kernLeft = KO_colon;
layers = (
{
layerId = m01;
shapes = (
{
attr = {
fillColor = (0,255);
identifier = ID0x7f7b661fc2b0;
};
closed = 1;
nodes = (
(191,0,l),
(191,105,l),
(85,105,l),
(85,0,l)
);
},
{
attr = {
fillColor = (0,255);
identifier = ID0x7f7b662426f0;
};
closed = 1;
nodes = (
(191,397,l),
(191,502,l),
(85,502,l),
(85,397,l)
);
}
);
width = 276;
}
);
metricLeft = period;
metricRight = period;
unicode = 58;
userData = {
KernOnSpecialSpacing = {
L = "spaced-off";
R = "spaced-off";
};
};
},
{
glyphname = semicolon;
layers = (
{
layerId = m01;
shapes = (
{
closed = 1;
nodes = (
(150,0,l),
(150,-62,o),
(145,-100,o),
(85,-150,c),
(164,-150,l),
(204,-100,o),
(209,-65,o),
(209,10,cs),
(209,105,l),
(103,105,l),
(103,0,l)
);
},
{
attr = {
fillColor = (0,255);
identifier = ID0x7f7b662426f0;
};
closed = 1;
nodes = (
(209,397,l),
(209,502,l),
(103,502,l),
(103,397,l)
);
}
);
width = 294;
}
);
metricLeft = comma;
metricRight = comma;
unicode = 59;
userData = {
KernOnSpecialSpacing = {
L = "spaced-off";
R = "spaced-off";
};
};
},
{
glyphname = ellipsis;
kernLeft = KO_ellipsis;
kernRight = KO_ellipsis;
layers = (
{
layerId = m01;
shapes = (
{
attr = {
fillColor = (0,255);
identifier = ID0x7f7b662290b0;
};
closed = 1;
nodes = (
(191,0,l),
(191,105,l),
(85,105,l),
(85,0,l)
);
},
{
attr = {
fillColor = (0,255);
identifier = ID0x7f7b662290b0;
};
closed = 1;
nodes = (
(431,0,l),
(431,105,l),
(325,105,l),
(325,0,l)
);
},
{
attr = {
fillColor = (0,255);
identifier = ID0x7f7b662290b0;
};
closed = 1;
nodes = (
(671,0,l),
(671,105,l),
(565,105,l),
(565,0,l)
);
}
);
width = 756;
}
);
metricLeft = period;
metricRight = period;
unicode = 8230;
},
{
glyphname = exclam;
kernLeft = KO_exclam;
kernRight = KO_exclam;
layers = (
{
layerId = m01;
shapes = (
{
attr = {
fillColor = (0,255);
identifier = ID0x7f7b6625cf60;
};
closed = 1;
nodes = (
(191,0,l),
(191,105,l),
(85,105,l),
(85,0,l)
);
},
{
attr = {
fillColor = (0,255);
identifier = ID0x7f7b6624dcb0;
};
closed = 1;
nodes = (
(158,180,l),
(178,541,l),
(178,700,l),
(98,700,l),
(98,541,l),
(118,180,l)
);
}
);
width = 276;
}
);
metricLeft = period;
metricRight = period;
unicode = 33;
userData = {
KernOnSpecialSpacing = {
L = "spaced-off";
};
};
},
{
glyphname = question;
kernLeft = KO_question;
kernRight = KO_question;
layers = (
{
layerId = m01;
shapes = (
{
closed = 1;
nodes = (
(241,182,l),
(241,334,o),
(441,357,o),
(441,531,cs),
(441,640,o),
(361,712,o),
(241,712,cs),
(130,712,o),
(42,644,o),
(22,543,c),
(92,460,l),
(87,575,o),
(147,651,o),
(241,651,cs),
(316,651,o),
(366,603,o),
(366,531,cs),
(366,386,o),
(187,377,o),
(201,182,c)
);
},
{
attr = {
fillColor = (0,255);
identifier = ID0x7f7b662872c0;
};
closed = 1;
nodes = (
(277,0,l),
(277,105,l),
(171,105,l),
(171,0,l)
);
}
);
width = 470;
}
);
unicode = 63;
userData = {
KernOnSpecialSpacing = {
L = "spaced-off";
};
};
},
{
glyphname = asterisk;
kernLeft = KO_asterisk;
kernRight = KO_asterisk;
layers = (
{
associatedMasterId = m01;
layerId = "9EDFDB1A-FC05-4C01-9C93-2F8CE9B6DC9F";
name = "6 Mar 23 at 03:29";
shapes = (
{
attr = {
strokeHeight = 30;
strokeWidth = 40;
};
closed = 1;
nodes = (
(808,291,o),
(784,527,o),
(646,527,cs),
(430,527,o),
(322,0,o),
(545,0,cs),
(706,0,o),
(748,284,o),
(397,284,cs),
(44,284,o),
(76,0,o),
(240,0,cs),
(463,0,o),
(352,527,o),
(139,527,cs),
(-1,527,o),
(-20,291,o),
(160,291,cs),
(340,291,o),
(508,454,o),
(508,583,cs),
(508,739,o),
(277,738,o),
(277,583,cs),
(277,454,o),
(448,291,o),
(625,291,cs)
);
}
);
width = 785;
},
{
layerId = m01;
name = Regular;
shapes = (
{
closed = 1;
nodes = (
(251,310,l),
(251,710,l),
(214,710,l),
(214,310,l)
);
},
{
closed = 1;
nodes = (
(50,594,l),
(396,394,l),
(412,423,l),
(66,623,l)
);
},
{
closed = 1;
nodes = (
(50,423,l),
(66,394,l),
(412,594,l),
(396,623,l)
);
},
{
attr = {
mask = "1";
};
closed = 1;
nodes = (
(266,450,o),
(293,477,o),
(293,511,cs),
(293,544,o),
(266,571,o),
(233,571,cs),
(199,571,o),
(172,544,o),
(172,511,cs),
(172,477,o),
(199,450,o),
(233,450,cs)
);
}
);
width = 462;
},
{
associatedMasterId = m01;
layerId = "97AD7269-2723-45E8-8465-1A233F160926";
name = "6 Mar 23 at 03:29";
shapes = (
{
attr = {
fillColor = (0,255);
identifier = ID0x7f7b655e53e0;
};
closed = 1;
nodes = (
(238,534,l),
(264,676,ls),
(274,728,o),
(192,728,o),
(202,676,cs),
(228,534,l)
);
},
{
attr = {
fillColor = (0,255);
identifier = ID0x7f7b655e53e0;
};
closed = 1;
nodes = (
(201,391,ls),
(192,340,o),
(274,340,o),
(265,391,cs),
(238,534,l),
(228,534,l)
);
},
{
attr = {
fillColor = (0,255);
identifier = ID0x7f7b655e53e0;
};
closed = 1;
nodes = (
(231,529,l),
(341,435,ls),
(382,402,o),
(422,471,o),
(372,489,cs),
(236,537,l)
);
},
{
attr = {
fillColor = (0,255);
identifier = ID0x7f7b655e53e0;
};
closed = 1;
nodes = (
(125,632,ls),
(84,665,o),
(44,596,o),
(94,578,cs),
(231,529,l),
(236,537,l)
);
},
{
attr = {
fillColor = (0,255);
identifier = ID0x7f7b655e53e0;
};
closed = 1;
nodes = (
(230,537,l),
(94,490,ls),
(44,471,o),
(84,402,o),
(125,437,cs),
(235,529,l)
);
},
{
attr = {
fillColor = (0,255);
identifier = ID0x7f7b655e53e0;
};
closed = 1;
nodes = (
(372,577,ls),
(422,596,o),
(382,665,o),
(341,631,cs),
(230,537,l),
(235,529,l)
);
},
{
attr = {
fillColor = (0,255);
identifier = ID0x7f7b655e53e0;
};
closed = 1;
nodes = (
(238,534,l),
(264,676,ls),
(274,728,o),
(192,728,o),
(202,676,cs),
(228,534,l)
);
},
{
attr = {
fillColor = (0,255);
identifier = ID0x7f7b655e53e0;
};
closed = 1;
nodes = (
(201,391,ls),
(192,340,o),
(274,340,o),
(265,391,cs),
(238,534,l),
(228,534,l)
);
},
{
attr = {
fillColor = (0,255);
identifier = ID0x7f7b655e53e0;
};
closed = 1;
nodes = (
(231,529,l),
(341,435,ls),
(382,402,o),
(422,471,o),
(372,489,cs),
(236,537,l)
);
},
{
attr = {
fillColor = (0,255);
identifier = ID0x7f7b655e53e0;
};
closed = 1;
nodes = (
(125,632,ls),
(84,665,o),
(44,596,o),
(94,578,cs),
(231,529,l),
(236,537,l)
);
},
{
attr = {
fillColor = (0,255);
identifier = ID0x7f7b655e53e0;
};
closed = 1;
nodes = (
(230,537,l),
(94,490,ls),
(44,471,o),
(84,402,o),
(125,437,cs),
(235,529,l)
);
},
{
attr = {
fillColor = (0,255);
identifier = ID0x7f7b655e53e0;
};
closed = 1;
nodes = (
(372,577,ls),
(422,596,o),
(382,665,o),
(341,631,cs),
(230,537,l),
(235,529,l)
);
}
);
width = 466;
}
);
metricRight = "=|";
unicode = 42;
userData = {
KernOnSpecialSpacing = {
L = quotes;
R = quotes;
};
};
},
{
glyphname = interrobang;
kernLeft = KO_interrobang;
kernRight = KO_question;
layers = (
{
layerId = m01;
shapes = (
{
closed = 1;
nodes = (
(251,182,l),
(251,334,o),
(451,357,o),
(451,531,cs),
(451,640,o),
(369,712,o),
(246,712,cs),
(132,712,o),
(42,644,o),
(22,543,c),
(92,460,l),
(87,575,o),
(149,651,o),
(246,651,cs),
(324,651,o),
(376,603,o),
(376,531,cs),
(376,386,o),
(208,377,o),
(221,182,c)
);
},
{
attr = {
fillColor = (0,255);
identifier = ID0x58c64d240;
};
closed = 1;
nodes = (
(287,0,l),
(287,105,l),
(181,105,l),
(181,0,l)
);
},
{
attr = {
fillColor = (0,255);
identifier = ID0x583289820;
};
closed = 1;
nodes = (
(251,182,l),
(273,461,l),
(273,560,l),
(193,560,l),
(193,461,l),
(211,182,l)
);
}
);
width = 480;
}
);
metricLeft = question;
metricRight = question;
unicode = 8253;
},
{
glyphname = numbersign;
kernRight = KO_numbersign;
layers = (
{
layerId = m01;
shapes = (
{
attr = {
fillColor = (0,255);
identifier = ID0x7f7b662ffec0;
};
closed = 1;
nodes = (
(147,0,l),
(287,700,l),
(252,700,l),
(112,0,l)
);
},
{
attr = {
fillColor = (0,255);
identifier = ID0x7f7b662ffec0;
};
closed = 1;
nodes = (
(372,0,l),
(512,700,l),
(477,700,l),
(337,0,l)
);
},
{
closed = 1;
nodes = (
(24,226,l),
(577,226,l),
(577,256,l),
(24,256,l)
);
},
{
closed = 1;
nodes = (
(57,462,l),
(610,462,l),
(610,492,l),
(57,492,l)
);
}
);
width = 634;
}
);
metricRight = "=|";
unicode = 35;
},
{
glyphname = slash;
kernLeft = KO_slash;
kernRight = KO_slash;
layers = (
{
layerId = m01;
shapes = (
{
attr = {
fillColor = (0,255);
identifier = ID0x7f7b6595a570;
};
closed = 1;
nodes = (
(60,-200,l),
(460,800,l),
(420,800,l),
(20,-200,l)
);
}
);
width = 480;
}
);
metricRight = "=|";
unicode = 47;
userData = {
KernOnSpecialSpacing = {
L = slash;
R = slash;
};
};
},
{
glyphname = hyphen;
kernLeft = KO_hyphen;
kernRight = KO_hyphen;
layers = (
{
layerId = m01;
shapes = (
{
closed = 1;
nodes = (
(60,241,l),
(413,241,l),
(413,300,l),
(60,300,l)
);
}
);
width = 473;
}
);
metricRight = "=|";
unicode = 45;
userData = {
KernOnSpecialSpacing = {
L = hyphen;
R = hyphen;
};
};
},
{
glyphname = endash;
kernLeft = KO_hyphen;
kernRight = KO_hyphen;
layers = (
{
layerId = m01;
shapes = (
{
closed = 1;
nodes = (
(60,253,l),
(513,253,l),
(513,288,l),
(60,288,l)
);
}
);
width = 573;
}
);
metricLeft = "=hyphen";
metricRight = "=|";
unicode = 8211;
userData = {
KernOnSpecialSpacing = {
L = dashes;
R = dashes;
};
};
},
{
glyphname = emdash;
kernLeft = KO_hyphen;
kernRight = KO_hyphen;
layers = (
{
layerId = m01;
shapes = (
{
closed = 1;
nodes = (
(60,253,l),
(613,253,l),
(613,288,l),
(60,288,l)
);
}
);
width = 673;
}
);
metricLeft = "=hyphen";
metricRight = "=|";
unicode = 8212;
userData = {
KernOnSpecialSpacing = {
L = dashes;
R = dashes;
};
};
},
{
glyphname = parenleft;
kernLeft = KO_parenleft;
kernRight = KO_parenleft;
layers = (
{
layerId = m01;
shapes = (
{
attr = {
fillColor = (0,255);
identifier = ID0x7f7b66294540;
lineCapEnd = 4;
lineCapStart = 4;
strokeHeight = 35;
strokeWidth = 40;
};
closed = 0;
nodes = (
(461,-200,l),
(235,-180,o),
(58,20,o),
(58,300,cs),
(58,580,o),
(235,780,o),
(461,800,c)
);
}
);
width = 499;
}
);
unicode = 40;
userData = {
KernOnSpecialSpacing = {
R = parenthesis;
};
};
},
{
glyphname = braceleft;
kernRight = KO_braceleft;
layers = (
{
layerId = m01;
shapes = (
{
attr = {
lineCapEnd = 4;
lineCapStart = 4;
strokeHeight = 35;
strokeWidth = 40;
};
closed = 0;
nodes = (
(435,-182,l),
(248,-204,o),
(116,-88,o),
(116,108,cs),
(116,265,o),
(200,392,o),
(313,392,cs),
(374,392,o),
(415,355,o),
(415,303,cs),
(415,251,o),
(374,213,o),
(312,213,cs),
(200,213,o),
(116,340,o),
(116,497,cs),
(116,693,o),
(247,809,o),
(435,786,c)
);
},
{
attr = {
strokeHeight = 35;
};
closed = 0;
nodes = (
(435,-182,l)
);
}
);
width = 520;
}
);
unicode = 123;
userData = {
KernOnSpecialSpacing = {
R = parenthesis;
};
};
},
{
glyphname = bracketleft;
kernRight = KO_bracketleft;
layers = (
{
layerId = m01;
shapes = (
{
attr = {
strokeHeight = 33;
strokePos = 1;
strokeWidth = 40;
};
closed = 0;
nodes = (
(401,800,l),
(85,800,l),
(85,-200,l),
(401,-200,l)
);
}
);
width = 431;
}
);
metricLeft = H;
unicode = 91;
userData = {
KernOnSpecialSpacing = {
L = NoKerning;
R = parenthesis;
};
};
},
{
glyphname = parenleftsuperior;
kernLeft = KO_parenleftsuperior;
kernRight = KO_hyphen.case;
layers = (
{
layerId = m01;
shapes = (
{
attr = {
fillColor = (0,255);
identifier = ID0x587fee070;
lineCapEnd = 4;
lineCapStart = 4;
strokeHeight = 35;
strokeWidth = 40;
};
closed = 0;
nodes = (
(303,393,l),
(167,405,o),
(60,525,o),
(60,694,cs),
(60,863,o),
(167,983,o),
(303,995,c)
);
}
);
width = 331;
}
);
unicode = 8317;
},
{
glyphname = parenleft.ss01;
kernLeft = KO_parenleft;
kernRight = KO_parenleft.ss01;
layers = (
{
layerId = m01;
shapes = (
{
attr = {
fillColor = (0,255);
identifier = ID0x7f7b6e12b510;
lineCapEnd = 4;
lineCapStart = 4;
strokeHeight = 33;
strokeWidth = 40;
};
closed = 1;
nodes = (
(235,780,o),
(58,580,o),
(58,300,cs),
(58,20,o),
(235,-180,o),
(501,-200,c),
(332,-180,o),
(232,20,o),
(232,300,cs),
(232,580,o),
(332,780,o),
(501,800,c)
);
}
);
width = 541;
},
{
associatedMasterId = m01;
layerId = "EFEB18F0-E11C-4BFE-BD73-C953F3C3FCBA";
name = "6 Mar 23 at 05:21";
shapes = (
{
attr = {
fillColor = (0,255);
identifier = ID0x7f7b711e9e00;
lineCapEnd = "4";
lineCapStart = "4";
strokeHeight = 33;
strokeWidth = 40;
};
closed = 0;
nodes = (
(529,-207,l),
(290,-207,ls),
(162,-207,o),
(58,-103,o),
(58,25,cs),
(58,153,o),
(162,257,o),
(290,257,cs),
(399,257,l),
(399,342,l),
(290,342,ls),
(162,342,o),
(58,446,o),
(58,574,cs),
(58,702,o),
(162,806,o),
(290,806,cs),
(529,806,l)
);
}
);
width = 540;
}
);
metricLeft = parenleft;
metricRight = parenleft;
},
{
glyphname = braceleft.ss01;
layers = (
{
layerId = m01;
shapes = (
{
attr = {
lineCapEnd = 4;
lineCapStart = 4;
strokeHeight = 35;
strokeWidth = 40;
};
closed = 0;
nodes = (
(435,-188,l),
(246,-205,o),
(116,-130,o),
(116,17,cs),
(116,133,o),
(196,218,o),
(313,218,cs),
(377,218,o),
(415,193,o),
(415,156,cs),
(415,118,o),
(377,91,o),
(312,91,cs),
(197,91,o),
(116,174,o),
(116,298,cs),
(116,422,o),
(197,505,o),
(312,505,cs),
(376,505,o),
(415,479,o),
(415,441,cs),
(415,403,o),
(376,377,o),
(312,377,cs),
(196,377,o),
(116,463,o),
(116,579,cs),
(116,726,o),
(246,801,o),
(435,784,c)
);
}
);
width = 520;
}
);
metricLeft = braceleft;
metricRight = braceleft;
},
{
glyphname = bracketleft.ss01;
kernRight = KO_bracketleft.ss01;
layers = (
{
associatedMasterId = m01;
layerId = "C4AED34C-6A30-4087-AF3C-81B3B96CC524";
name = "6 Mar 23 at 05:31";
width = 540;
},
{
layerId = m01;
name = Regular;
shapes = (
{
attr = {
identifier = ID0x7f7b6e275a50;
strokeHeight = 33;
strokePos = 1;
strokeWidth = 40;
};
closed = 0;
nodes = (
(484,800,l),
(85,800,l),
(85,-200,l),
(484,-200,l)
);
},
{
attr = {
identifier = ID0x7f7b6e275a50;
strokeHeight = 33;
strokePos = "1";
strokeWidth = 40;
};
closed = 0;
nodes = (
(248,800,l),
(248,-200,l)
);
}
);
width = 514;
},
{
associatedMasterId = m01;
layerId = "599E65A0-A18B-4F18-B2D0-BFBC1F10E8A1";
name = "6 Mar 23 at 05:31";
shapes = (
{
attr = {
strokeHeight = 33;
strokePos = "1";
strokeWidth = 40;
};
closed = 0;
nodes = (
(421,800,l),
(85,800,l),
(85,590,l),
(190,590,ls),
(327,590,o),
(327,410,o),
(190,410,cs),
(85,410,l),
(85,190,l),
(190,190,ls),
(327,190,o),
(327,10,o),
(190,10,cs),
(85,10,l),
(85,-200,l),
(421,-200,l)
);
}
);
width = 451;
}
);
metricLeft = H;
metricRight = bracketleft;
},
{
glyphname = parenleft.ss03;
kernRight = KO_parenleft.ss03;
layers = (
{
layerId = m01;
shapes = (
{
attr = {
strokeHeight = 35;
strokeWidth = 40;
};
closed = 0;
nodes = (
(560,800,l),
(484,800,o),
(424,754,o),
(400,686,c),
(333,716,o),
(257,706,o),
(206,654,c),
(151,600,o),
(142,525,o),
(173,459,c),
(104,434,o),
(58,374,o),
(58,300,c),
(58,226,o),
(104,166,o),
(173,141,c),
(142,75,o),
(152,0,o),
(206,-52,c),
(257,-105,o),
(333,-115,o),
(399,-86,c),
(424,-154,o),
(484,-200,o),
(560,-200,c)
);
}
);
width = 598;
}
);
metricLeft = parenleft;
metricRight = parenleft;
},
{
glyphname = guilsinglleft;
kernLeft = KO_guillemetleft;
kernRight = KO_guillemetleft;
layers = (
{
layerId = m01;
shapes = (
{
closed = 1;
nodes = (
(322,451,l),
(60,290,l),
(60,229,l),
(322,68,l),
(322,135,l),
(85,280,l),
(85,238,l),
(322,383,l)
);
}
);
width = 382;
}
);
metricLeft = hyphen;
metricRight = hyphen;
unicode = 8249;
userData = {
KernOnSpecialSpacing = {
L = quotes;
R = quotes;
};
};
},
{
glyphname = quotesingle;
kernLeft = KO_quotedbl;
kernRight = KO_quotedbl;
layers = (
{
anchors = (
{
name = "#entry";
pos = (23,0);
},
{
name = "#exit";
pos = (183,0);
}
);
layerId = m01;
shapes = (
{
attr = {
fillColor = (0,255);
identifier = ID0x7f7b6bfe5310;
};
closed = 1;
nodes = (
(153,431,l),
(180,700,l),
(85,700,l),
(113,431,l)
);
}
);
width = 265;
}
);
metricLeft = period;
metricRight = period;
unicode = 39;
userData = {
KernOnSpecialSpacing = {
L = quotes;
R = quotes;
};
};
},
{
glyphname = florin;
layers = (
{
anchors = (
{
name = bottom;
pos = (283,-200);
},
{
name = top;
pos = (283,708);
}
);
layerId = m01;
shapes = (
{
closed = 1;
nodes = (
(296,177,l),
(368,177,l),
(368,511,ls),
(368,604,o),
(411,648,o),
(479,648,cs),
(530,648,o),
(587,603,o),
(577,510,c),
(644,576,l),
(632,651,o),
(566,707,o),
(478,707,cs),
(369,707,o),
(296,643,o),
(296,521,cs)
);
},
{
closed = 1;
nodes = (
(535,336,l),
(535,395,l),
(132,395,l),
(132,336,l)
);
},
{
closed = 1;
nodes = (
(296,187,l),
(296,94,o),
(253,50,o),
(185,50,cs),
(134,50,o),
(77,95,o),
(87,188,c),
(20,122,l),
(32,47,o),
(98,-9,o),
(186,-9,cs),
(295,-9,o),
(368,55,o),
(368,177,c)
);
}
);
width = 664;
}
);
metricRight = "=|";
unicode = 402;
},
{
glyphname = baht;
layers = (
{
layerId = m01;
shapes = (
{
closed = 1;
nodes = (
(332,0,ls),
(494,0,o),
(594,83,o),
(594,213,cs),
(594,343,o),
(494,419,o),
(332,419,cs),
(122,419,l),
(122,365,l),
(332,365,ls),
(448,365,o),
(519,307,o),
(519,213,cs),
(519,121,o),
(448,65,o),
(332,65,cs),
(122,65,l),
(122,0,l)
);
},
{
closed = 1;
nodes = (
(85,0,l),
(160,0,l),
(160,700,l),
(85,700,l)
);
},
{
closed = 1;
nodes = (
(352,380,ls),
(477,380,o),
(554,444,o),
(554,539,cs),
(554,642,o),
(478,700,o),
(352,700,cs),
(122,700,l),
(122,635,l),
(352,635,ls),
(431,635,o),
(479,596,o),
(479,533,cs),
(479,469,o),
(431,430,o),
(352,430,cs),
(122,430,l),
(122,380,l)
);
},
{
attr = {
fillColor = (0,255);
identifier = ID0x7f7b6f9999b0;
};
closed = 1;
nodes = (
(333,-130,l),
(333,840,l),
(296,840,l),
(296,-130,l)
);
}
);
width = 664;
}
);
metricLeft = H;
metricRight = B;
unicode = 3647;
},
{
glyphname = whiteSmilingFace;
layers = (
{
anchors = (
{
name = circled;
pos = (434,161);
}
);
associatedMasterId = m01;
layerId = "A5E11F5E-D9AA-4B21-8102-11F58C44095A";
name = "22 Aug 23 at 19:02";
shapes = (
{
attr = {
identifier = ID0x5ae04fde0;
strokeHeight = 35;
strokeWidth = 40;
};
closed = 1;
nodes = (
(637,-8,o),
(796,151,o),
(796,353,cs),
(796,555,o),
(637,713,o),
(434,713,cs),
(231,713,o),
(72,555,o),
(72,353,cs),
(72,151,o),
(231,-8,o),
(434,-8,cs)
);
},
{
attr = {
strokeHeight = 35;
strokeWidth = 37;
};
closed = 0;
nodes = (
(379,416,l),
(379,461,o),
(349,498,o),
(312,498,cs),
(275,498,o),
(246,461,o),
(246,416,cs)
);
},
{
attr = {
strokeHeight = 35;
strokeWidth = 37;
};
closed = 0;
nodes = (
(273,252,l),
(318,200,o),
(374,181,o),
(434,181,cs),
(494,181,o),
(550,200,o),
(595,252,c)
);
},
{
attr = {
strokeHeight = 35;
strokeWidth = 37;
};
closed = 0;
nodes = (
(623,416,l),
(623,461,o),
(594,498,o),
(557,498,cs),
(520,498,o),
(490,461,o),
(490,416,cs)
);
}
);
width = 868;
},
{
layerId = m01;
name = Regular;
shapes = (
{
attr = {
identifier = ID0x5ae04fde0;
strokeHeight = 35;
strokeWidth = 40;
};
closed = 1;
nodes = (
(637,-8,o),
(796,151,o),
(796,353,cs),
(796,555,o),
(637,713,o),
(434,713,cs),
(231,713,o),
(72,555,o),
(72,353,cs),
(72,151,o),
(231,-8,o),
(434,-8,cs)
);
},
{
closed = 1;
nodes = (
(366,322,o),
(379,367,o),
(379,444,cs),
(379,521,o),
(366,566,o),
(343,566,cs),
(320,566,o),
(307,521,o),
(307,444,cs),
(307,367,o),
(320,322,o),
(343,322,cs)
);
},
{
attr = {
strokeHeight = 35;
strokeWidth = 37;
};
closed = 0;
nodes = (
(211,204,l),
(258,204,o),
(295,241,o),
(295,289,cs)
);
},
{
attr = {
strokeHeight = 35;
strokeWidth = 37;
};
closed = 0;
nodes = (
(269,232,l),
(314,180,o),
(370,161,o),
(430,161,cs),
(490,161,o),
(546,180,o),
(591,232,c)
);
},
{
attr = {
strokeHeight = 35;
strokeWidth = 37;
};
closed = 0;
nodes = (
(649,204,l),
(602,204,o),
(565,241,o),
(565,289,cs)
);
},
{
closed = 1;
nodes = (
(541,322,o),
(554,367,o),
(554,444,cs),
(554,521,o),
(541,566,o),
(518,566,cs),
(495,566,o),
(482,521,o),
(482,444,cs),
(482,367,o),
(495,322,o),
(518,322,cs)
);
}
);
width = 868;
}
);
metricLeft = whiteCircle;
metricRight = whiteCircle;
unicode = 9786;
},
{
glyphname = apple;
layers = (
{
anchors = (
{
name = bottom;
pos = (412,0);
},
{
name = center;
pos = (412,350);
},
{
name = ogonek;
pos = (742,10);
},
{
name = top;
pos = (412,700);
},
{
name = topleft;
pos = (20,700);
},
{
name = topright;
pos = (804,700);
}
);
layerId = m01;
shapes = (
{
attr = {
strokeHeight = 33;
strokeWidth = 40;
};
closed = 1;
nodes = (
(1241,151,o),
(1085,-7,o),
(871,-7,cs),
(705,-7,o),
(567,89,o),
(567,215,cs),
(567,350,o),
(724,350,o),
(724,215,cs),
(724,89,o),
(586,-7,o),
(420,-7,cs),
(206,-7,o),
(50,151,o),
(50,353,cs),
(50,555,o),
(206,713,o),
(420,713,cs),
(586,713,o),
(724,617,o),
(724,491,cs),
(724,356,o),
(567,356,o),
(567,491,cs),
(567,617,o),
(705,713,o),
(871,713,cs),
(1085,713,o),
(1241,555,o),
(1241,353,cs)
);
}
);
width = 1291;
}
);
metricRight = "=|";
unicode = 63743;
},
{
glyphname = at;
kernRight = KO_at;
layers = (
{
anchors = (
{
name = bottom;
pos = (412,0);
},
{
name = center;
pos = (412,350);
},
{
name = ogonek;
pos = (742,10);
},
{
name = top;
pos = (412,700);
},
{
name = topleft;
pos = (20,700);
},
{
name = topright;
pos = (804,700);
}
);
associatedMasterId = m01;
layerId = "C689D002-E4AE-4BCF-B22C-0964A1FC1DC9";
name = "6 Mar 23 at 04:21";
shapes = (
{
attr = {
identifier = ID0x7f7b6a83efc0;
lineCapEnd = 4;
lineCapStart = 4;
strokeHeight = 33;
strokeWidth = 40;
};
closed = 0;
nodes = (
(620,-46,l),
(556,-93,o),
(483,-108,o),
(412,-108,cs),
(209,-108,o),
(50,51,o),
(50,253,cs),
(50,455,o),
(209,613,o),
(412,613,cs),
(615,613,o),
(774,455,o),
(774,253,cs),
(774,187,o),
(755,122,o),
(725,69,c),
(569,69,l)
);
},
{
attr = {
fillColor = (0,255);
identifier = ID0x7f7b68542d40;
};
closed = 1;
nodes = (
(547,161,o),
(484,95,o),
(399,95,cs),
(313,95,o),
(252,161,o),
(252,253,cs),
(252,345,o),
(313,411,o),
(399,411,cs),
(484,411,o),
(547,345,o),
(547,253,c),
(580,253,l),
(580,372,o),
(497,459,o),
(385,459,cs),
(273,459,o),
(192,372,o),
(192,253,cs),
(192,133,o),
(273,47,o),
(385,47,cs),
(497,47,o),
(580,133,o),
(580,253,c),
(547,253,l)
);
},
{
attr = {
fillColor = (0,255);
identifier = ID0x7f7b68542d40;
};
closed = 1;
nodes = (
(604,453,l),
(547,453,l),
(547,53,l),
(604,53,l)
);
}
);
width = 824;
},
{
anchors = (
{
name = bottom;
pos = (412,0);
},
{
name = center;
pos = (412,350);
},
{
name = ogonek;
pos = (742,10);
},
{
name = top;
pos = (412,700);
},
{
name = topleft;
pos = (20,700);
},
{
name = topright;
pos = (804,700);
}
);
associatedMasterId = m01;
layerId = "3E076E33-BDB2-4AC6-9B76-B701AECAD67B";
name = "6 Mar 23 at 18:16";
shapes = (
{
attr = {
identifier = ID0x7f7b6a83efc0;
lineCapEnd = 4;
lineCapStart = 4;
strokeHeight = 35;
strokeWidth = 40;
};
closed = 0;
nodes = (
(620,-46,l),
(556,-93,o),
(483,-108,o),
(412,-108,cs),
(209,-108,o),
(50,51,o),
(50,253,cs),
(50,455,o),
(209,613,o),
(412,613,cs),
(615,613,o),
(774,455,o),
(774,253,cs),
(774,87,o),
(709,40,o),
(419,70,c)
);
},
{
attr = {
identifier = ID0x7f7b6a83efc0;
lineCapEnd = "4";
lineCapStart = "4";
strokeHeight = 35;
strokeWidth = 40;
};
closed = 1;
nodes = (
(517,70,o),
(599,152,o),
(599,254,cs),
(599,355,o),
(517,437,o),
(416,437,cs),
(314,437,o),
(232,355,o),
(232,254,cs),
(232,152,o),
(314,70,o),
(416,70,cs)
);
}
);
width = 824;
},
{
anchors = (
{
name = bottom;
pos = (439,0);
},
{
name = center;
pos = (439,350);
},
{
name = ogonek;
pos = (769,10);
},
{
name = top;
pos = (439,700);
},
{
name = topleft;
pos = (47,700);
},
{
name = topright;
pos = (831,700);
}
);
associatedMasterId = m01;
layerId = "E3154E00-69EA-4DC0-BFA8-BE6E5D4A7368";
name = "6 Mar 23 at 18:25";
shapes = (
{
attr = {
identifier = ID0x7f7b6a83efc0;
lineCapEnd = 3;
lineCapStart = 4;
strokeHeight = 35;
strokeWidth = 40;
};
closed = 0;
nodes = (
(651,-89,l),
(421,-172,o),
(70,-77,o),
(70,255,cs),
(70,459,o),
(235,620,o),
(444,620,cs),
(636,620,o),
(787,482,o),
(787,306,cs),
(787,156,o),
(662,39,o),
(504,39,cs),
(363,39,o),
(253,138,o),
(253,264,cs),
(253,369,o),
(331,451,o),
(431,451,cs),
(523,451,o),
(596,385,o),
(596,300,cs),
(596,238,o),
(553,189,o),
(498,189,cs),
(443,189,o),
(409,236,o),
(420,296,c)
);
}
);
width = 857;
},
{
anchors = (
{
name = bottom;
pos = (444,0);
},
{
name = center;
pos = (444,350);
},
{
name = ogonek;
pos = (774,10);
},
{
name = top;
pos = (444,700);
},
{
name = topleft;
pos = (52,700);
},
{
name = topright;
pos = (836,700);
}
);
layerId = m01;
name = Regular;
shapes = (
{
closed = 1;
nodes = (
(573,186,ls),
(571,108,o),
(612,49,o),
(687,49,cs),
(777,49,o),
(836,132,o),
(836,258,cs),
(836,473,o),
(664,641,o),
(445,641,cs),
(224,641,o),
(52,470,o),
(52,253,cs),
(52,37,o),
(222,-135,o),
(449,-135,cs),
(512,-135,o),
(587,-121,o),
(652,-78,c),
(652,-35,l),
(588,-85,o),
(515,-100,o),
(449,-100,cs),
(242,-100,o),
(92,52,o),
(92,252,cs),
(92,453,o),
(244,604,o),
(445,604,cs),
(644,604,o),
(796,457,o),
(796,258,cs),
(796,151,o),
(752,79,o),
(684,81,cs),
(624,83,o),
(607,142,o),
(609,200,cs),
(612,302,ls),
(615,404,o),
(546,472,o),
(441,472,cs),
(354,472,o),
(284,422,o),
(267,349,c),
(305,319,l),
(308,389,o),
(362,436,o),
(439,436,cs),
(523,436,o),
(578,380,o),
(576,298,cs)
);
},
{
closed = 1;
nodes = (
(576,208,o),
(542,85,o),
(418,85,cs),
(352,85,o),
(314,122,o),
(314,177,cs),
(314,237,o),
(362,266,o),
(436,266,cs),
(596,266,l),
(595,303,l),
(436,302,ls),
(344,301,o),
(270,258,o),
(270,172,cs),
(270,107,o),
(314,51,o),
(413,51,cs),
(522,51,o),
(590,114,o),
(600,237,c),
(575,245,l)
);
}
);
width = 888;
},
{
anchors = (
{
name = bottom;
pos = (412,0);
},
{
name = center;
pos = (412,350);
},
{
name = ogonek;
pos = (742,10);
},
{
name = top;
pos = (412,700);
},
{
name = topleft;
pos = (20,700);
},
{
name = topright;
pos = (804,700);
}
);
associatedMasterId = m01;
layerId = "177816A8-C105-4499-95CC-3CF9B9D75ADE";
name = "6 Mar 23 at 18:26";
shapes = (
{
attr = {
identifier = ID0x7f7b6a83efc0;
lineCapEnd = 4;
lineCapStart = 4;
strokeHeight = 35;
strokeWidth = 40;
};
closed = 0;
nodes = (
(620,-46,l),
(556,-93,o),
(483,-108,o),
(412,-108,cs),
(209,-108,o),
(50,51,o),
(50,253,cs),
(50,455,o),
(209,613,o),
(412,613,cs),
(615,613,o),
(774,455,o),
(774,253,cs),
(774,187,o),
(755,122,o),
(725,70,c),
(569,70,l)
);
},
{
closed = 1;
nodes = (
(472,415,o),
(516,378,o),
(516,295,cs),
(516,215,o),
(496,102,o),
(554,53,c),
(640,53,l),
(559,96,o),
(580,216,o),
(580,300,cs),
(580,414,o),
(509,469,o),
(403,469,cs),
(314,469,o),
(246,416,o),
(235,346,c),
(301,286,l),
(280,374,o),
(344,415,o),
(402,415,cs)
);
},
{
closed = 1;
nodes = (
(517,200,o),
(484,98,o),
(379,98,cs),
(330,98,o),
(300,127,o),
(300,166,cs),
(300,220,o),
(340,242,o),
(401,243,cs),
(529,244,l),
(528,298,l),
(401,297,ls),
(310,297,o),
(237,248,o),
(237,161,cs),
(237,97,o),
(283,45,o),
(371,45,cs),
(472,45,o),
(525,107,o),
(532,228,c),
(514,234,l)
);
}
);
width = 824;
}
);
metricLeft = O;
metricRight = O;
unicode = 64;
userData = {
KernOnSpecialSpacing = {
L = symbols;
R = symbols;
};
};
},
{
glyphname = ampersand;
kernLeft = KO_ampersand;
kernRight = KO_ampersand;
layers = (
{
anchors = (
{
name = bottom;
pos = (335,0);
},
{
name = top;
pos = (335,700);
}
);
layerId = m01;
shapes = (
{
closed = 1;
nodes = (
(381,652,o),
(417,611,o),
(417,557,cs),
(417,477,o),
(348,449,o),
(266,417,cs),
(171,380,o),
(65,318,o),
(65,189,cs),
(65,52,o),
(173,-9,o),
(297,-9,cs),
(493,-9,o),
(641,152,o),
(675,417,c),
(607,497,l),
(613,237,o),
(489,53,o),
(307,53,cs),
(207,53,o),
(138,108,o),
(138,195,cs),
(138,289,o),
(221,334,o),
(301,366,cs),
(395,404,o),
(486,447,o),
(486,557,cs),
(486,649,o),
(423,711,o),
(328,711,cs),
(225,711,o),
(158,644,o),
(158,548,cs),
(158,453,o),
(234,385,o),
(319,304,cs),
(637,1,l),
(731,1,l),
(374,346,ls),
(300,418,o),
(230,478,o),
(230,554,cs),
(230,610,o),
(268,652,o),
(324,652,cs)
);
}
);
width = 760;
}
);
unicode = 38;
userData = {
KernOnSpecialSpacing = {
L = symbols;
R = symbols;
};
};
},
{
glyphname = paragraph;
layers = (
{
layerId = m01;
shapes = (
{
closed = 1;
nodes = (
(216,700,ls),
(107,700,o),
(40,641,o),
(40,545,cs),
(40,447,o),
(107,388,o),
(216,388,cs),
(293,388,l),
(293,700,l)
);
},
{
attr = {
fillColor = (0,255);
identifier = ID0x7f7b67717750;
};
closed = 1;
nodes = (
(298,0,l),
(298,700,l),
(261,700,l),
(261,0,l)
);
},
{
attr = {
fillColor = (0,255);
identifier = ID0x7f7b67717750;
};
closed = 1;
nodes = (
(458,0,l),
(458,700,l),
(421,700,l),
(421,0,l)
);
}
);
width = 543;
}
);
metricLeft = "=|P";
metricRight = H;
unicode = 182;
userData = {
KernOnSpecialSpacing = {
L = NoKerning;
R = NoKerning;
};
};
},
{
glyphname = section;
layers = (
{
anchors = (
{
name = bottom;
pos = (260,0);
},
{
name = top;
pos = (260,500);
}
);
layerId = m01;
shapes = (
{
attr = {
fillColor = (0,255);
identifier = ID0x7f7b6ed22bb0;
};
closed = 1;
nodes = (
(310,224,l),
(389,229,o),
(465,271,o),
(465,351,cs),
(465,538,o),
(151,438,o),
(151,571,cs),
(151,623,o),
(199,651,o),
(253,651,cs),
(322,651,o),
(390,606,o),
(374,506,c),
(446,572,l),
(429,660,o),
(358,710,o),
(257,710,cs),
(162,710,o),
(78,666,o),
(78,564,cs),
(78,366,o),
(392,473,o),
(392,337,cs),
(392,286,o),
(348,256,o),
(294,249,c)
);
},
{
attr = {
fillColor = (0,255);
identifier = ID0x7f7b6ed22bb0;
};
closed = 1;
nodes = (
(203,474,l),
(124,469,o),
(48,427,o),
(48,347,cs),
(48,160,o),
(362,260,o),
(362,127,cs),
(362,75,o),
(314,47,o),
(260,47,cs),
(191,47,o),
(123,92,o),
(139,192,c),
(67,126,l),
(84,38,o),
(155,-12,o),
(256,-12,cs),
(351,-12,o),
(435,32,o),
(435,134,cs),
(435,332,o),
(121,225,o),
(121,361,cs),
(121,412,o),
(165,442,o),
(219,449,c)
);
}
);
width = 513;
}
);
metricRight = "=|";
unicode = 167;
userData = {
KernOnSpecialSpacing = {
R = symbols;
};
};
},
{
glyphname = copyright;
layers = (
{
anchors = (
{
name = bottom;
pos = (434,0);
},
{
name = center;
pos = (434,350);
},
{
name = ogonek;
pos = (764,10);
},
{
name = top;
pos = (434,700);
},
{
name = topleft;
pos = (42,700);
},
{
name = topright;
pos = (826,700);
}
);
layerId = m01;
shapes = (
{
attr = {
strokeHeight = 35;
strokeWidth = 40;
};
closed = 1;
nodes = (
(637,-8,o),
(796,151,o),
(796,353,cs),
(796,555,o),
(637,713,o),
(434,713,cs),
(231,713,o),
(72,555,o),
(72,353,cs),
(72,151,o),
(231,-8,o),
(434,-8,cs)
);
},
{
closed = 1;
nodes = (
(273,457,o),
(343,530,o),
(439,530,cs),
(508,530,o),
(564,496,o),
(588,435,c),
(613,471,l),
(579,530,o),
(512,565,o),
(439,565,cs),
(320,565,o),
(233,477,o),
(233,356,cs),
(233,235,o),
(320,147,o),
(439,147,cs),
(512,147,o),
(579,182,o),
(613,241,c),
(588,278,l),
(564,216,o),
(508,182,o),
(439,182,cs),
(343,182,o),
(273,255,o),
(273,356,cs)
);
}
);
width = 868;
}
);
metricLeft = O;
metricRight = O;
unicode = 169;
userData = {
KernOnSpecialSpacing = {
R = symbols;
};
};
},
{
glyphname = registered;
layers = (
{
anchors = (
{
name = bottom;
pos = (209,0);
},
{
name = top;
pos = (209,700);
}
);
layerId = m01;
shapes = (
{
attr = {
strokeHeight = 30;
strokeWidth = 35;
};
closed = 1;
nodes = (
(378,274,o),
(471,367,o),
(471,486,cs),
(471,605,o),
(378,697,o),
(259,697,cs),
(140,697,o),
(47,605,o),
(47,486,cs),
(47,367,o),
(140,274,o),
(259,274,cs)
);
},
{
closed = 1;
nodes = (
(281,483,l),
(284,491,l),
(327,492,o),
(349,513,o),
(349,544,cs),
(349,579,o),
(325,600,o),
(282,600,cs),
(185,600,l),
(185,568,l),
(282,568,ls),
(303,568,o),
(314,559,o),
(314,541,cs),
(314,524,o),
(303,514,o),
(282,514,cs),
(185,514,l),
(185,483,l)
);
},
{
closed = 1;
nodes = (
(208,378,l),
(208,600,l),
(174,600,l),
(174,378,l)
);
},
{
closed = 1;
nodes = (
(365,378,l),
(340,399,o),
(338,416,o),
(338,436,cs),
(338,443,ls),
(338,491,o),
(316,503,o),
(262,503,cs),
(217,503,l),
(217,483,l),
(262,483,ls),
(289,483,o),
(304,478,o),
(304,444,cs),
(304,436,ls),
(304,414,o),
(306,390,o),
(322,378,c)
);
}
);
width = 519;
}
);
metricRight = "=|";
unicode = 174;
userData = {
KernOnSpecialSpacing = {
L = superiors;
};
};
},
{
glyphname = published;
layers = (
{
anchors = (
{
name = bottom;
pos = (209,0);
},
{
name = top;
pos = (209,700);
}
);
layerId = m01;
shapes = (
{
attr = {
identifier = ID0x5decdfa10;
strokeHeight = 30;
strokeWidth = 35;
};
closed = 1;
nodes = (
(378,274,o),
(471,367,o),
(471,486,cs),
(471,605,o),
(378,697,o),
(259,697,cs),
(140,697,o),
(47,605,o),
(47,486,cs),
(47,367,o),
(140,274,o),
(259,274,cs)
);
},
{
closed = 1;
nodes = (
(293,477,ls),
(334,477,o),
(361,502,o),
(361,538,cs),
(361,575,o),
(334,600,o),
(294,600,cs),
(197,600,l),
(197,568,l),
(294,568,ls),
(313,568,o),
(326,556,o),
(326,538,cs),
(326,520,o),
(313,508,o),
(294,508,cs),
(197,508,l),
(197,477,l)
);
},
{
closed = 1;
nodes = (
(220,378,l),
(220,600,l),
(186,600,l),
(186,378,l)
);
}
);
width = 519;
}
);
unicode = 8471;
},
{
glyphname = trademark;
kernLeft = KO_trademark;
layers = (
{
anchors = (
{
name = bottom;
pos = (352,0);
},
{
name = center;
pos = (352,350);
},
{
name = top;
pos = (352,700);
}
);
layerId = m01;
shapes = (
{
closed = 1;
nodes = (
(139,704,l),
(139,422,l),
(175,422,l),
(175,704,l)
);
},
{
closed = 1;
nodes = (
(20,704,l),
(20,673,l),
(299,673,l),
(299,704,l)
);
},
{
closed = 1;
nodes = (
(585,658,l),
(585,422,l),
(621,422,l),
(621,704,l),
(575,704,l),
(473,528,l),
(493,528,l),
(392,704,l),
(344,704,l),
(344,422,l),
(380,422,l),
(380,658,l),
(483,484,l)
);
}
);
width = 706;
},
{
anchors = (
{
name = bottom;
pos = (359,0);
},
{
name = center;
pos = (359,350);
},
{
name = top;
pos = (359,700);
}
);
associatedMasterId = m01;
layerId = "521BE222-7643-40A1-8C81-E8BEB6F7EB64";
name = "6 Mar 23 at 17:18";
shapes = (
{
attr = {
fillColor = (0,255);
identifier = ID0x7f7b65caa370;
};
closed = 1;
nodes = (
(206,700,l),
(206,299,l),
(246,299,l),
(246,700,l)
);
},
{
closed = 1;
nodes = (
(31,700,l),
(31,667,l),
(428,667,l),
(428,700,l)
);
},
{
closed = 1;
nodes = (
(830,659,l),
(830,299,l),
(870,299,l),
(870,700,l),
(811,700,l),
(667,454,l),
(682,454,l),
(539,700,l),
(477,700,l),
(477,299,l),
(517,299,l),
(517,659,l),
(674,396,l)
);
}
);
width = 955;
}
);
metricLeft = T;
metricRight = H;
unicode = 8482;
userData = {
KernOnSpecialSpacing = {
L = superiors;
};
};
},
{
glyphname = degree;
kernLeft = KO_degree;
kernRight = KO_degree;
layers = (
{
layerId = m01;
shapes = (
{
attr = {
strokeHeight = 30;
strokeWidth = 35;
};
closed = 1;
nodes = (
(276,429,o),
(335,487,o),
(335,561,cs),
(335,635,o),
(276,693,o),
(202,693,cs),
(128,693,o),
(69,635,o),
(69,561,cs),
(69,487,o),
(128,429,o),
(202,429,cs)
);
}
);
width = 405;
}
);
metricLeft = O;
metricRight = "=|";
unicode = 176;
userData = {
KernOnSpecialSpacing = {
L = superiors;
};
};
},
{
glyphname = minute;
kernLeft = KO_minute;
layers = (
{
anchors = (
{
name = "#entry";
pos = (-5,0);
},
{
name = "#exit";
pos = (155,0);
}
);
layerId = m01;
shapes = (
{
attr = {
fillColor = (0,255);
identifier = ID0x5cdc75cd0;
};
closed = 1;
nodes = (
(125,431,l),
(180,700,l),
(85,700,l),
(85,431,l)
);
}
);
width = 265;
}
);
metricLeft = quotesingle;
metricRight = quotesingle;
unicode = 8242;
},
{
glyphname = bar;
layers = (
{
layerId = m01;
shapes = (
{
attr = {
fillColor = (0,255);
identifier = ID0x7f7b67717750;
};
closed = 1;
nodes = (
(122,-200,l),
(122,800,l),
(85,800,l),
(85,-200,l)
);
}
);
width = 207;
}
);
metricLeft = H;
metricRight = "=|";
unicode = 124;
userData = {
KernOnSpecialSpacing = {
L = NoKerning;
R = NoKerning;
};
};
},
{
glyphname = brokenbar;
layers = (
{
layerId = m01;
shapes = (
{
attr = {
fillColor = (0,255);
identifier = ID0x7f7b65540a70;
};
closed = 1;
nodes = (
(122,480,l),
(122,800,l),
(85,800,l),
(85,480,l)
);
},
{
attr = {
fillColor = (0,255);
identifier = ID0x7f7b65540a70;
};
closed = 1;
nodes = (
(122,-200,l),
(122,120,l),
(85,120,l),
(85,-200,l)
);
}
);
width = 207;
}
);
unicode = 166;
},
{
glyphname = dagger;
kernLeft = KO_dagger;
kernRight = KO_dagger;
layers = (
{
anchors = (
{
name = bottom;
pos = (222,0);
},
{
name = center;
pos = (222,250);
},
{
name = top;
pos = (222,500);
},
{
name = topright;
pos = (403,800);
}
);
layerId = m01;
shapes = (
{
closed = 1;
nodes = (
(226,167,l),
(226,710,l),
(189,710,l),
(189,167,l)
);
},
{
closed = 1;
nodes = (
(30,521,l),
(383,521,l),
(383,554,l),
(30,554,l)
);
}
);
width = 413;
}
);
metricRight = "=|";
unicode = 8224;
},
{
glyphname = at.001;
layers = (
{
anchors = (
{
name = bottom;
pos = (412,0);
},
{
name = center;
pos = (412,350);
},
{
name = ogonek;
pos = (742,10);
},
{
name = top;
pos = (412,700);
},
{
name = topleft;
pos = (20,700);
},
{
name = topright;
pos = (804,700);
}
);
associatedMasterId = m01;
layerId = "C689D002-E4AE-4BCF-B22C-0964A1FC1DC9";
name = "6 Mar 23 at 04:21";
shapes = (
{
attr = {
identifier = ID0x7f7b6a83efc0;
lineCapEnd = 4;
lineCapStart = 4;
strokeHeight = 33;
strokeWidth = 40;
};
closed = 0;
nodes = (
(620,-46,l),
(556,-93,o),
(483,-108,o),
(412,-108,cs),
(209,-108,o),
(50,51,o),
(50,253,cs),
(50,455,o),
(209,613,o),
(412,613,cs),
(615,613,o),
(774,455,o),
(774,253,cs),
(774,187,o),
(755,122,o),
(725,69,c),
(569,69,l)
);
},
{
attr = {
fillColor = (0,255);
identifier = ID0x7f7b68542d40;
};
closed = 1;
nodes = (
(547,161,o),
(484,95,o),
(399,95,cs),
(313,95,o),
(252,161,o),
(252,253,cs),
(252,345,o),
(313,411,o),
(399,411,cs),
(484,411,o),
(547,345,o),
(547,253,c),
(580,253,l),
(580,372,o),
(497,459,o),
(385,459,cs),
(273,459,o),
(192,372,o),
(192,253,cs),
(192,133,o),
(273,47,o),
(385,47,cs),
(497,47,o),
(580,133,o),
(580,253,c),
(547,253,l)
);
},
{
attr = {
fillColor = (0,255);
identifier = ID0x7f7b68542d40;
};
closed = 1;
nodes = (
(604,453,l),
(547,453,l),
(547,53,l),
(604,53,l)
);
}
);
width = 824;
},
{
anchors = (
{
name = bottom;
pos = (412,0);
},
{
name = center;
pos = (412,350);
},
{
name = ogonek;
pos = (742,10);
},
{
name = top;
pos = (412,700);
},
{
name = topleft;
pos = (20,700);
},
{
name = topright;
pos = (804,700);
}
);
associatedMasterId = m01;
layerId = "3E076E33-BDB2-4AC6-9B76-B701AECAD67B";
name = "6 Mar 23 at 18:16";
shapes = (
{
attr = {
identifier = ID0x7f7b6a83efc0;
lineCapEnd = 4;
lineCapStart = 4;
strokeHeight = 35;
strokeWidth = 40;
};
closed = 0;
nodes = (
(620,-46,l),
(556,-93,o),
(483,-108,o),
(412,-108,cs),
(209,-108,o),
(50,51,o),
(50,253,cs),
(50,455,o),
(209,613,o),
(412,613,cs),
(615,613,o),
(774,455,o),
(774,253,cs),
(774,87,o),
(709,40,o),
(419,70,c)
);
},
{
attr = {
identifier = ID0x7f7b6a83efc0;
lineCapEnd = "4";
lineCapStart = "4";
strokeHeight = 35;
strokeWidth = 40;
};
closed = 1;
nodes = (
(517,70,o),
(599,152,o),
(599,254,cs),
(599,355,o),
(517,437,o),
(416,437,cs),
(314,437,o),
(232,355,o),
(232,254,cs),
(232,152,o),
(314,70,o),
(416,70,cs)
);
}
);
width = 824;
},
{
anchors = (
{
name = bottom;
pos = (439,0);
},
{
name = center;
pos = (439,350);
},
{
name = ogonek;
pos = (769,10);
},
{
name = top;
pos = (439,700);
},
{
name = topleft;
pos = (47,700);
},
{
name = topright;
pos = (831,700);
}
);
associatedMasterId = m01;
background = {
shapes = (
{
closed = 1;
nodes = (
(573,186,ls),
(571,108,o),
(613,49,o),
(684,49,cs),
(777,49,o),
(836,132,o),
(836,255,cs),
(836,475,o),
(664,641,o),
(444,641,cs),
(224,641,o),
(52,470,o),
(52,252,cs),
(52,37,o),
(222,-135,o),
(449,-135,cs),
(512,-135,o),
(587,-121,o),
(652,-78,c),
(652,-35,l),
(588,-85,o),
(515,-100,o),
(449,-100,cs),
(242,-100,o),
(92,52,o),
(92,252,cs),
(92,453,o),
(244,604,o),
(444,604,cs),
(644,604,o),
(796,458,o),
(796,255,cs),
(796,151,o),
(753,81,o),
(684,81,cs),
(627,80,o),
(607,142,o),
(609,200,cs),
(612,302,ls),
(615,419,o),
(541,472,o),
(441,472,cs),
(344,472,o),
(283,417,o),
(267,349,c),
(305,319,l),
(308,383,o),
(354,436,o),
(439,436,cs),
(522,436,o),
(579,395,o),
(576,298,cs)
);
},
{
closed = 1;
nodes = (
(576,208,o),
(542,85,o),
(418,85,cs),
(352,85,o),
(314,122,o),
(314,177,cs),
(314,237,o),
(362,266,o),
(436,266,cs),
(596,266,l),
(595,303,l),
(436,302,ls),
(344,301,o),
(270,257,o),
(270,172,cs),
(270,107,o),
(314,51,o),
(413,51,cs),
(522,51,o),
(590,114,o),
(600,237,c),
(575,245,l)
);
}
);
};
layerId = "E3154E00-69EA-4DC0-BFA8-BE6E5D4A7368";
name = "6 Mar 23 at 18:25";
shapes = (
{
attr = {
identifier = ID0x7f7b6a83efc0;
lineCapEnd = "3";
lineCapStart = "4";
strokeHeight = 37;
strokeWidth = 40;
};
closed = 0;
nodes = (
(651,-89,l),
(607,-105,o),
(535,-117,o),
(483,-117,cs),
(248,-117,o),
(70,43,o),
(70,255,cs),
(70,463,o),
(231,620,o),
(444,620,cs),
(640,620,o),
(787,485,o),
(787,306,cs),
(787,154,o),
(665,39,o),
(504,39,cs),
(361,39,o),
(253,136,o),
(253,264,cs),
(253,371,o),
(330,451,o),
(431,451,cs),
(525,451,o),
(596,386,o),
(596,300,cs),
(596,237,o),
(554,189,o),
(498,189,cs),
(442,189,o),
(409,235,o),
(420,296,c)
);
}
);
width = 866;
},
{
layerId = m01;
name = Regular;
shapes = (
{
closed = 1;
nodes = (
(573,186,ls),
(571,108,o),
(613,49,o),
(684,49,cs),
(777,49,o),
(836,132,o),
(836,255,cs),
(836,475,o),
(664,641,o),
(444,641,cs),
(224,641,o),
(52,470,o),
(52,252,cs),
(52,37,o),
(222,-135,o),
(449,-135,cs),
(512,-135,o),
(587,-121,o),
(652,-78,c),
(652,-35,l),
(588,-85,o),
(515,-100,o),
(449,-100,cs),
(242,-100,o),
(92,52,o),
(92,252,cs),
(92,453,o),
(244,604,o),
(444,604,cs),
(644,604,o),
(796,458,o),
(796,255,cs),
(796,151,o),
(753,81,o),
(684,81,cs),
(627,80,o),
(607,142,o),
(609,200,cs),
(612,302,ls),
(615,419,o),
(541,472,o),
(441,472,cs),
(344,472,o),
(283,417,o),
(267,349,c),
(305,319,l),
(308,383,o),
(354,436,o),
(439,436,cs),
(522,436,o),
(579,395,o),
(576,298,cs)
);
},
{
closed = 1;
nodes = (
(576,208,o),
(542,85,o),
(418,85,cs),
(352,85,o),
(314,122,o),
(314,177,cs),
(314,237,o),
(362,266,o),
(436,266,cs),
(596,266,l),
(595,303,l),
(436,302,ls),
(344,301,o),
(270,257,o),
(270,172,cs),
(270,107,o),
(314,51,o),
(413,51,cs),
(522,51,o),
(590,114,o),
(600,237,c),
(575,245,l)
);
}
);
width = 888;
},
{
anchors = (
{
name = bottom;
pos = (412,0);
},
{
name = center;
pos = (412,350);
},
{
name = ogonek;
pos = (742,10);
},
{
name = top;
pos = (412,700);
},
{
name = topleft;
pos = (20,700);
},
{
name = topright;
pos = (804,700);
}
);
associatedMasterId = m01;
layerId = "177816A8-C105-4499-95CC-3CF9B9D75ADE";
name = "6 Mar 23 at 18:26";
shapes = (
{
attr = {
identifier = ID0x7f7b6a83efc0;
lineCapEnd = 4;
lineCapStart = 4;
strokeHeight = 35;
strokeWidth = 40;
};
closed = 0;
nodes = (
(620,-46,l),
(556,-93,o),
(483,-108,o),
(412,-108,cs),
(209,-108,o),
(50,51,o),
(50,253,cs),
(50,455,o),
(209,613,o),
(412,613,cs),
(615,613,o),
(774,455,o),
(774,253,cs),
(774,187,o),
(755,122,o),
(725,70,c),
(569,70,l)
);
},
{
closed = 1;
nodes = (
(472,415,o),
(516,378,o),
(516,295,cs),
(516,215,o),
(496,102,o),
(554,53,c),
(640,53,l),
(559,96,o),
(580,216,o),
(580,300,cs),
(580,414,o),
(509,469,o),
(403,469,cs),
(314,469,o),
(246,416,o),
(235,346,c),
(301,286,l),
(280,374,o),
(344,415,o),
(402,415,cs)
);
},
{
closed = 1;
nodes = (
(517,200,o),
(484,98,o),
(379,98,cs),
(330,98,o),
(300,127,o),
(300,166,cs),
(300,220,o),
(340,242,o),
(401,243,cs),
(529,244,l),
(528,298,l),
(401,297,ls),
(310,297,o),
(237,248,o),
(237,161,cs),
(237,97,o),
(283,45,o),
(371,45,cs),
(472,45,o),
(525,107,o),
(532,228,c),
(514,234,l)
);
}
);
width = 824;
}
);
metricLeft = at;
metricRight = at;
userData = {
KernOnSpecialSpacing = {
L = symbols;
R = symbols;
};
};
},
{
glyphname = cent;
layers = (
{
anchors = (
{
name = bottom;
pos = (280,0);
},
{
name = top;
pos = (280,500);
}
);
layerId = m01;
shapes = (
{
closed = 1;
nodes = (
(118,457,o),
(187,545,o),
(305,545,cs),
(388,545,o),
(452,503,o),
(482,417,c),
(522,506,l),
(481,568,o),
(400,608,o),
(302,608,cs),
(141,608,o),
(43,500,o),
(43,350,cs),
(43,200,o),
(141,92,o),
(302,92,cs),
(400,92,o),
(481,132,o),
(522,194,c),
(482,283,l),
(452,197,o),
(388,155,o),
(305,155,cs),
(187,155,o),
(118,243,o),
(118,350,cs)
);
},
{
attr = {
fillColor = (0,255);
identifier = ID0x7f7b6f972ea0;
};
closed = 1;
nodes = (
(322,-30,l),
(322,730,l),
(285,730,l),
(285,-30,l)
);
}
);
width = 569;
}
);
unicode = 162;
userData = {
KernOnSpecialSpacing = {
L = symbols;
R = symbols;
};
};
},
{
glyphname = currency;
layers = (
{
anchors = (
{
name = _center;
pos = (312,250);
},
{
name = bottom;
pos = (322,0);
},
{
name = center;
pos = (322,250);
},
{
name = ogonek;
pos = (580,10);
},
{
name = top;
pos = (322,500);
},
{
name = topright;
pos = (624,500);
}
);
layerId = m01;
shapes = (
{
closed = 1;
nodes = (
(479,82,o),
(581,190,o),
(581,340,cs),
(581,489,o),
(479,597,o),
(322,597,cs),
(165,597,o),
(63,489,o),
(63,340,cs),
(63,190,o),
(165,82,o),
(322,82,cs)
);
},
{
closed = 1;
nodes = (
(215,145,o),
(138,227,o),
(138,340,cs),
(138,453,o),
(215,534,o),
(322,534,cs),
(429,534,o),
(506,453,o),
(506,340,cs),
(506,227,o),
(429,145,o),
(322,145,cs)
);
},
{
attr = {
fillColor = (0,255);
identifier = ID0x7f7b6e3ff870;
};
closed = 1;
nodes = (
(108,0,l),
(235,154,l),
(185,154,l),
(58,0,l)
);
},
{
attr = {
fillColor = (0,255);
identifier = ID0x7f7b6e3ff870;
};
closed = 1;
nodes = (
(459,154,l),
(409,154,l),
(536,0,l),
(586,0,l)
);
},
{
attr = {
fillColor = (0,255);
identifier = ID0x7f7b6e3ff870;
};
closed = 1;
nodes = (
(185,546,l),
(235,546,l),
(108,700,l),
(58,700,l)
);
},
{
attr = {
fillColor = (0,255);
identifier = ID0x7f7b6e3ff870;
};
closed = 1;
nodes = (
(536,700,l),
(409,546,l),
(459,546,l),
(586,700,l)
);
}
);
width = 644;
}
);
metricRight = "=|";
unicode = 164;
},
{
glyphname = dollar;
kernRight = KO_dollar;
layers = (
{
anchors = (
{
name = bottom;
pos = (315,0);
},
{
name = top;
pos = (315,700);
}
);
layerId = m01;
shapes = (
{
closed = 1;
nodes = (
(392,656,o),
(484,598,o),
(478,450,c),
(548,533,l),
(524,648,o),
(437,712,o),
(311,712,cs),
(191,712,o),
(89,654,o),
(89,531,cs),
(89,264,o),
(499,397,o),
(499,185,cs),
(499,96,o),
(416,50,o),
(326,50,cs),
(218,50,o),
(116,111,o),
(121,266,c),
(51,183,l),
(75,67,o),
(166,-10,o),
(319,-10,cs),
(454,-10,o),
(576,51,o),
(576,189,cs),
(576,468,o),
(166,343,o),
(166,538,cs),
(166,613,o),
(237,656,o),
(307,656,cs)
);
},
{
attr = {
fillColor = (0,255);
identifier = ID0x7f7b6f9999b0;
};
closed = 1;
nodes = (
(335,-130,l),
(335,840,l),
(298,840,l),
(298,-130,l)
);
}
);
width = 630;
}
);
metricLeft = S;
metricRight = S;
unicode = 36;
userData = {
KernOnSpecialSpacing = {
L = symbols;
R = symbols;
};
};
},
{
glyphname = euro;
layers = (
{
anchors = (
{
name = bottom;
pos = (377,0);
},
{
name = top;
pos = (377,700);
}
);
layerId = m01;
shapes = (
{
closed = 1;
nodes = (
(600,232,l),
(579,124,o),
(504,57,o),
(402,57,cs),
(267,57,o),
(185,169,o),
(185,353,cs),
(185,536,o),
(267,648,o),
(402,648,cs),
(501,648,o),
(575,585,o),
(598,481,c),
(645,576,l),
(599,661,o),
(507,713,o),
(402,713,cs),
(221,713,o),
(110,576,o),
(110,353,cs),
(110,129,o),
(221,-8,o),
(402,-8,cs),
(509,-8,o),
(603,46,o),
(648,135,c)
);
},
{
closed = 1;
nodes = (
(10,396,l),
(558,396,l),
(573,431,l),
(10,431,l)
);
},
{
closed = 1;
nodes = (
(10,280,l),
(513,280,l),
(528,315,l),
(10,315,l)
);
}
);
width = 694;
}
);
metricRight = C;
unicode = 8364;
userData = {
KernOnSpecialSpacing = {
L = symbols;
R = symbols;
};
};
},
{
glyphname = guarani;
layers = (
{
anchors = (
{
name = bottom;
pos = (347,0);
},
{
name = top;
pos = (347,700);
}
);
layerId = m01;
shapes = (
{
closed = 1;
nodes = (
(543,312,l),
(541,130,o),
(449,57,o),
(347,57,cs),
(210,57,o),
(115,181,o),
(115,353,cs),
(115,525,o),
(214,648,o),
(352,648,cs),
(454,648,o),
(542,579,o),
(568,451,c),
(615,546,l),
(565,649,o),
(473,713,o),
(352,713,cs),
(162,713,o),
(40,563,o),
(40,351,cs),
(40,143,o),
(157,-8,o),
(330,-8,cs),
(470,-8,o),
(566,98,o),
(568,312,c)
);
},
{
closed = 1;
nodes = (
(618,0,l),
(618,390,l),
(348,390,l),
(348,325,l),
(543,325,l),
(543,0,l)
);
},
{
attr = {
fillColor = (0,255);
identifier = ID0x7f7b6f9999b0;
};
closed = 1;
nodes = (
(371,-130,l),
(371,840,l),
(334,840,l),
(334,-130,l)
);
}
);
width = 678;
}
);
unicode = 8370;
},
{
glyphname = hryvnia;
layers = (
{
anchors = (
{
name = bottom;
pos = (352,0);
},
{
name = top;
pos = (352,700);
}
);
layerId = m01;
shapes = (
{
closed = 1;
nodes = (
(518,415,l),
(559,443,o),
(578,487,o),
(578,537,cs),
(578,652,o),
(476,712,o),
(355,712,cs),
(230,712,o),
(143,648,o),
(119,533,c),
(189,450,l),
(183,598,o),
(275,656,o),
(359,656,cs),
(430,656,o),
(501,615,o),
(501,534,cs),
(501,469,o),
(454,437,o),
(391,415,c)
);
},
{
closed = 1;
nodes = (
(42,397,l),
(655,397,l),
(655,432,l),
(42,432,l)
);
},
{
closed = 1;
nodes = (
(42,287,l),
(655,287,l),
(655,322,l),
(42,322,l)
);
},
{
closed = 1;
nodes = (
(136,299,l),
(111,272,o),
(95,231,o),
(95,184,cs),
(95,58,o),
(210,-10,o),
(353,-10,cs),
(505,-10,o),
(596,67,o),
(620,183,c),
(550,266,l),
(555,111,o),
(453,50,o),
(346,50,cs),
(255,50,o),
(172,94,o),
(172,190,cs),
(172,244,o),
(199,279,o),
(232,299,c)
);
}
);
width = 697;
}
);
metricRight = "=|";
unicode = 8372;
},
{
glyphname = liraTurkish;
layers = (
{
layerId = m01;
shapes = (
{
closed = 1;
nodes = (
(229,0,ls),
(468,0,o),
(619,134,o),
(619,348,c),
(554,348,l),
(554,174,o),
(429,65,o),
(231,65,c),
(231,700,l),
(156,700,l),
(156,0,l)
);
},
{
closed = 1;
nodes = (
(40,250,l),
(483,426,l),
(483,464,l),
(40,288,l)
);
},
{
closed = 1;
nodes = (
(40,377,l),
(483,553,l),
(483,591,l),
(40,415,l)
);
}
);
width = 659;
}
);
metricRight = P;
unicode = 8378;
},
{
glyphname = ruble;
layers = (
{
layerId = m01;
shapes = (
{
closed = 1;
nodes = (
(194,635,l),
(414,635,ls),
(511,635,o),
(571,586,o),
(571,506,cs),
(571,425,o),
(511,375,o),
(414,375,cs),
(194,375,l),
(194,310,l),
(414,310,ls),
(558,310,o),
(646,384,o),
(646,506,cs),
(646,626,o),
(558,700,o),
(414,700,cs),
(194,700,l)
);
},
{
closed = 1;
nodes = (
(232,0,l),
(232,700,l),
(157,700,l),
(157,0,l)
);
},
{
closed = 1;
nodes = (
(40,310,l),
(413,310,l),
(413,345,l),
(40,345,l)
);
},
{
closed = 1;
nodes = (
(40,200,l),
(463,200,l),
(463,235,l),
(40,235,l)
);
}
);
width = 686;
}
);
metricRight = P;
unicode = 8381;
},
{
glyphname = rupeeIndian;
layers = (
{
anchors = (
{
name = bottom;
pos = (192,0);
},
{
name = top;
pos = (192,700);
}
);
layerId = m01;
shapes = (
{
closed = 1;
nodes = (
(32,665,l),
(573,665,l),
(573,700,l),
(32,700,l)
);
},
{
closed = 1;
nodes = (
(32,506,l),
(573,506,l),
(573,541,l),
(32,541,l)
);
},
{
closed = 1;
nodes = (
(245,350,l),
(255,360,l),
(389,360,o),
(457,429,o),
(457,532,cs),
(457,636,o),
(380,700,o),
(255,700,cs),
(32,700,l),
(32,635,l),
(255,635,ls),
(334,635,o),
(382,593,o),
(382,524,cs),
(382,457,o),
(334,415,o),
(255,415,cs),
(32,415,l),
(32,350,l)
);
},
{
closed = 1;
nodes = (
(488,0,l),
(432,37,o),
(420,104,o),
(420,174,cs),
(420,199,ls),
(420,349,o),
(358,385,o),
(188,385,cs),
(150,385,l),
(150,350,l),
(188,350,ls),
(277,350,o),
(349,326,o),
(344,199,cs),
(343,174,ls),
(340,105,o),
(349,37,o),
(392,0,c)
);
}
);
width = 594;
}
);
unicode = 8377;
},
{
glyphname = sheqel;
layers = (
{
anchors = (
{
name = bottom;
pos = (368,0);
},
{
name = center;
pos = (368,350);
},
{
name = top;
pos = (368,700);
},
{
name = topright;
pos = (428,700);
}
);
layerId = m01;
shapes = (
{
closed = 1;
nodes = (
(85,0,l),
(122,0,l),
(122,630,l),
(276,630,ls),
(358,630,o),
(403,585,o),
(403,503,cs),
(403,200,l),
(440,200,l),
(440,507,ls),
(440,632,o),
(382,700,o),
(276,700,cs),
(85,700,l)
);
},
{
closed = 1;
nodes = (
(600,700,l),
(563,700,l),
(563,70,l),
(409,70,ls),
(327,70,o),
(282,115,o),
(282,197,cs),
(282,500,l),
(245,500,l),
(245,193,ls),
(245,68,o),
(303,0,o),
(409,0,cs),
(600,0,l)
);
}
);
width = 685;
}
);
metricLeft = H;
metricRight = H;
unicode = 8362;
},
{
glyphname = sterling;
layers = (
{
layerId = m01;
shapes = (
{
closed = 1;
nodes = (
(74,286,l),
(527,286,l),
(527,321,l),
(74,321,l)
);
},
{
closed = 1;
nodes = (
(260,-10,o),
(315,88,o),
(315,178,cs),
(315,331,o),
(177,394,o),
(177,522,cs),
(177,598,o),
(233,651,o),
(318,651,cs),
(425,651,o),
(493,567,o),
(488,440,c),
(558,523,l),
(536,636,o),
(440,712,o),
(320,712,cs),
(187,712,o),
(99,633,o),
(99,518,cs),
(99,368,o),
(239,300,o),
(239,182,cs),
(239,107,o),
(204,47,o),
(148,47,cs),
(63,47,o),
(63,168,o),
(147,168,cs),
(276,168,o),
(257,-14,o),
(435,-14,cs),
(467,-14,o),
(542,-5,o),
(588,79,c),
(553,173,l),
(538,97,o),
(483,49,o),
(415,49,cs),
(289,49,o),
(281,204,o),
(148,204,cs),
(-5,204,o),
(-8,-10,o),
(152,-10,cs)
);
}
);
width = 630;
},
{
associatedMasterId = m01;
layerId = "AEC6F0DA-0B8A-46DC-BCF6-5956A50FA534";
name = "6 Mar 23 at 05:40";
shapes = (
{
closed = 1;
nodes = (
(62,67,l),
(61,51,l),
(242,71,o),
(285,176,o),
(285,230,cs),
(285,336,o),
(157,405,o),
(157,517,cs),
(157,593,o),
(213,651,o),
(298,651,cs),
(405,651,o),
(473,567,o),
(468,440,c),
(538,523,l),
(516,636,o),
(420,712,o),
(300,712,cs),
(167,712,o),
(79,628,o),
(79,513,cs),
(79,363,o),
(209,310,o),
(209,212,cs),
(209,146,o),
(154,93,o),
(55,67,c),
(55,0,l),
(553,0,l),
(553,67,l)
);
},
{
closed = 1;
nodes = (
(50,239,l),
(503,239,l),
(503,274,l),
(50,274,l)
);
}
);
width = 600;
},
{
associatedMasterId = m01;
layerId = "87930581-7626-4F74-B15E-338DEF7CCAB9";
name = "6 Mar 23 at 05:46";
shapes = (
{
closed = 1;
nodes = (
(80,279,l),
(533,279,l),
(533,314,l),
(80,314,l)
);
},
{
closed = 1;
nodes = (
(260,-10,o),
(315,88,o),
(315,178,cs),
(315,331,o),
(177,394,o),
(177,522,cs),
(177,598,o),
(233,651,o),
(318,651,cs),
(425,651,o),
(493,567,o),
(488,440,c),
(558,523,l),
(536,636,o),
(440,712,o),
(320,712,cs),
(187,712,o),
(99,633,o),
(99,518,cs),
(99,368,o),
(239,300,o),
(239,182,cs),
(239,107,o),
(204,47,o),
(148,47,cs),
(63,47,o),
(63,168,o),
(147,168,cs),
(276,168,o),
(257,-14,o),
(435,-14,cs),
(467,-14,o),
(542,-5,o),
(588,79,c),
(553,173,l),
(538,97,o),
(483,49,o),
(415,49,cs),
(289,49,o),
(281,204,o),
(148,204,cs),
(-5,204,o),
(-8,-10,o),
(152,-10,cs)
);
}
);
width = 630;
}
);
unicode = 163;
userData = {
KernOnSpecialSpacing = {
L = symbols;
R = symbols;
};
};
},
{
glyphname = yen;
layers = (
{
anchors = (
{
name = bottom;
pos = (337,0);
},
{
name = top;
pos = (337,700);
},
{
name = topleft;
pos = (-17,700);
}
);
layerId = m01;
shapes = (
{
closed = 1;
nodes = (
(45,700,l),
(300,334,l),
(300,0,l),
(375,0,l),
(375,335,l),
(629,700,l),
(544,700,l),
(303,347,l),
(373,347,l),
(132,700,l)
);
},
{
closed = 1;
nodes = (
(81,305,l),
(594,305,l),
(594,340,l),
(81,340,l)
);
},
{
closed = 1;
nodes = (
(81,195,l),
(594,195,l),
(594,230,l),
(81,230,l)
);
}
);
width = 674;
}
);
metricRight = "=|";
unicode = 165;
userData = {
KernOnSpecialSpacing = {
L = symbols;
R = symbols;
};
};
},
{
glyphname = plus;
kernLeft = KO_hyphen;
kernRight = KO_plus;
layers = (
{
layerId = m01;
shapes = (
{
closed = 1;
nodes = (
(60,253,l),
(513,253,l),
(513,288,l),
(60,288,l)
);
},
{
closed = 1;
nodes = (
(269,497,l),
(269,44,l),
(304,44,l),
(304,497,l)
);
}
);
width = 573;
}
);
metricLeft = minus;
metricRight = minus;
unicode = 43;
userData = {
KernOnSpecialSpacing = {
L = math;
R = math;
};
};
},
{
glyphname = multiply;
kernRight = KO_multiply;
layers = (
{
layerId = m01;
shapes = (
{
closed = 1;
nodes = (
(93,439,l),
(455,77,l),
(480,102,l),
(118,464,l)
);
},
{
closed = 1;
nodes = (
(455,464,l),
(93,102,l),
(118,77,l),
(480,439,l)
);
}
);
width = 573;
}
);
metricRight = "=|";
unicode = 215;
userData = {
KernOnSpecialSpacing = {
L = math;
R = math;
};
};
},
{
glyphname = divide;
kernLeft = KO_hyphen;
kernRight = KO_plus;
layers = (
{
layerId = m01;
shapes = (
{
closed = 1;
nodes = (
(60,253,l),
(513,253,l),
(513,288,l),
(60,288,l)
);
},
{
attr = {
fillColor = (0,255);
identifier = ID0x7f7b6eefb5b0;
};
closed = 1;
nodes = (
(340,42,l),
(340,147,l),
(234,147,l),
(234,42,l)
);
},
{
attr = {
fillColor = (0,255);
identifier = ID0x7f7b70c0d350;
};
closed = 1;
nodes = (
(340,396,l),
(340,501,l),
(234,501,l),
(234,396,l)
);
}
);
width = 573;
}
);
metricLeft = minus;
metricRight = minus;
unicode = 247;
userData = {
KernOnSpecialSpacing = {
L = math;
R = math;
};
};
},
{
glyphname = equal;
kernLeft = KO_equal;
kernRight = KO_equal;
layers = (
{
layerId = m01;
shapes = (
{
closed = 1;
nodes = (
(60,143,l),
(513,143,l),
(513,178,l),
(60,178,l)
);
},
{
closed = 1;
nodes = (
(60,363,l),
(513,363,l),
(513,398,l),
(60,398,l)
);
}
);
width = 573;
}
);
metricLeft = minus;
metricRight = minus;
unicode = 61;
userData = {
KernOnSpecialSpacing = {
L = math;
R = math;
};
};
},
{
glyphname = notequal;
layers = (
{
layerId = m01;
shapes = (
{
closed = 1;
nodes = (
(60,143,l),
(513,143,l),
(513,178,l),
(60,178,l)
);
},
{
closed = 1;
nodes = (
(60,363,l),
(513,363,l),
(513,398,l),
(60,398,l)
);
},
{
attr = {
fillColor = (0,255);
identifier = ID0x7f7b6f950d70;
};
closed = 1;
nodes = (
(114,35,l),
(502,500,l),
(458,500,l),
(70,35,l)
);
}
);
width = 573;
}
);
metricLeft = equal;
metricRight = equal;
unicode = 8800;
},
{
glyphname = greater;
kernRight = KO_plus;
layers = (
{
layerId = m01;
shapes = (
{
closed = 1;
nodes = (
(60,93,l),
(513,253,l),
(513,288,l),
(60,448,l),
(60,411,l),
(508,255,l),
(508,287,l),
(60,130,l)
);
}
);
width = 573;
}
);
metricLeft = minus;
metricRight = minus;
unicode = 62;
userData = {
KernOnSpecialSpacing = {
L = math;
R = math;
};
};
},
{
glyphname = plusminus;
layers = (
{
layerId = m01;
shapes = (
{
closed = 1;
nodes = (
(60,52,l),
(513,52,l),
(513,87,l),
(60,87,l)
);
},
{
closed = 1;
nodes = (
(60,323,l),
(513,323,l),
(513,358,l),
(60,358,l)
);
},
{
closed = 1;
nodes = (
(269,517,l),
(269,164,l),
(304,164,l),
(304,517,l)
);
}
);
width = 573;
}
);
metricLeft = minus;
metricRight = minus;
unicode = 177;
userData = {
KernOnSpecialSpacing = {
L = math;
R = math;
};
};
},
{
glyphname = asciitilde;
kernLeft = KO_asciitilde;
kernRight = KO_asciitilde;
layers = (
{
anchors = (
{
name = _top;
pos = (240,170);
},
{
name = top;
pos = (240,358);
}
);
background = {
shapes = (
{
closed = 1;
nodes = (
(214,296,o),
(237,201,o),
(326,201,cs),
(394,201,o),
(436,245,o),
(426,330,c),
(387,330,l),
(396,267,o),
(371,235,o),
(326,235,cs),
(273,235,o),
(250,330,o),
(161,330,cs),
(93,330,o),
(51,286,o),
(61,201,c),
(104,201,l),
(95,264,o),
(119,296,o),
(161,296,cs)
);
}
);
};
layerId = m01;
shapes = (
{
closed = 1;
nodes = (
(430,247,o),
(394,225,o),
(357,225,cs),
(271,225,o),
(222,341,o),
(123,341,cs),
(69,341,o),
(12,307,o),
(33,202,c),
(69,202,l),
(49,287,o),
(82,309,o),
(118,309,cs),
(201,309,o),
(250,193,o),
(352,193,cs),
(409,193,o),
(467,229,o),
(446,331,c),
(410,331,l)
);
}
);
width = 487;
}
);
unicode = 126;
userData = {
KernOnSpecialSpacing = {
L = math;
R = math;
};
};
},
{
glyphname = logicalnot;
kernLeft = KO_logicalnot;
layers = (
{
layerId = m01;
shapes = (
{
closed = 1;
nodes = (
(60,253,l),
(513,253,l),
(513,288,l),
(60,288,l)
);
},
{
closed = 1;
nodes = (
(513,97,l),
(513,288,l),
(478,288,l),
(478,97,l)
);
}
);
width = 573;
}
);
unicode = 172;
},
{
glyphname = asciicircum;
kernLeft = KO_asciicircum;
kernRight = KO_multiply;
layers = (
{
anchors = (
{
name = _top;
pos = (256,500);
},
{
name = top;
pos = (256,760);
}
);
layerId = m01;
shapes = (
{
attr = {
lineCapEnd = 4;
lineCapStart = 4;
strokeHeight = 20;
strokeWidth = 37;
};
closed = 0;
nodes = (
(104,393,l),
(236,692,l),
(240,692,l),
(372,393,l)
);
}
);
width = 476;
}
);
metricLeft = H;
metricRight = H;
unicode = 94;
userData = {
KernOnSpecialSpacing = {
L = math;
R = math;
};
};
},
{
glyphname = infinity;
layers = (
{
anchors = (
{
name = bottom;
pos = (302,0);
},
{
name = center;
pos = (302,250);
},
{
name = ogonek;
pos = (560,10);
},
{
name = top;
pos = (302,500);
},
{
name = topright;
pos = (604,500);
}
);
layerId = m01;
shapes = (
{
attr = {
strokeHeight = 33;
strokeWidth = 40;
};
closed = 1;
nodes = (
(195,55,o),
(118,137,o),
(118,250,cs),
(118,363,o),
(195,444,o),
(302,444,cs),
(409,444,o),
(486,363,o),
(586,250,c),
(486,137,o),
(409,55,o),
(302,55,cs)
);
},
{
attr = {
strokeHeight = 33;
strokeWidth = 40;
};
closed = 1;
nodes = (
(763,55,o),
(686,137,o),
(586,250,c),
(686,363,o),
(763,444,o),
(870,444,cs),
(977,444,o),
(1054,363,o),
(1054,250,cs),
(1054,137,o),
(977,55,o),
(870,55,cs)
);
}
);
width = 1172;
}
);
metricRight = "=|";
unicode = 8734;
},
{
glyphname = integral;
kernRight = KO_integral;
layers = (
{
anchors = (
{
name = bottom;
pos = (-89,-200);
},
{
name = top;
pos = (-89,708);
}
);
layerId = m01;
shapes = (
{
attr = {
identifier = ID0x7f7b74419f20;
lineCapEnd = 4;
lineCapStart = 4;
strokeHeight = 35;
strokeWidth = 40;
};
closed = 0;
nodes = (
(5,-182,l),
(136,-208,o),
(224,-122,o),
(224,8,c),
(224,597,l),
(224,727,o),
(312,813,o),
(443,786,c)
);
}
);
width = 448;
}
);
metricLeft = j;
metricRight = "=|j";
unicode = 8747;
},
{
glyphname = increment;
layers = (
{
anchors = (
{
name = bottom;
pos = (303,0);
},
{
name = ogonek;
pos = (662,0);
},
{
name = top;
pos = (303,700);
}
);
layerId = m01;
shapes = (
{
attr = {
fillColor = (0,255);
identifier = ID0x565fc6400;
};
closed = 1;
nodes = (
(81,0,l),
(341,700,l),
(302,700,l),
(42,0,l)
);
},
{
attr = {
fillColor = (0,255);
identifier = ID0x565fc6400;
};
closed = 1;
nodes = (
(351,700,l),
(312,700,l),
(572,0,l),
(611,0,l)
);
},
{
closed = 1;
nodes = (
(70,0,l),
(583,0,l),
(583,35,l),
(70,35,l)
);
}
);
width = 653;
},
{
anchors = (
{
name = bottom;
pos = (323,0);
},
{
name = ogonek;
pos = (682,0);
},
{
name = top;
pos = (323,700);
}
);
associatedMasterId = m01;
layerId = "4334CE97-9C0C-4572-8134-C133EB4FCC9E";
name = "22 Aug 23 at 15:55";
shapes = (
{
closed = 1;
nodes = (
(271,700,l),
(35,54,l),
(35,0,l),
(609,0,l),
(609,54,l),
(373,700,l)
);
},
{
closed = 1;
nodes = (
(322,639,l),
(527,65,l),
(117,65,l)
);
}
);
width = 644;
}
);
metricRight = "=|";
unicode = 8710;
},
{
glyphname = product;
layers = (
{
anchors = (
{
name = bottom;
pos = (228,0);
},
{
name = center;
pos = (228,350);
},
{
name = top;
pos = (228,700);
}
);
layerId = m01;
shapes = (
{
closed = 1;
nodes = (
(20,700,l),
(20,635,l),
(188,635,l),
(188,0,l),
(263,0,l),
(263,635,l),
(502,635,l),
(502,0,l),
(577,0,l),
(577,635,l),
(745,635,l),
(745,700,l)
);
}
);
width = 765;
}
);
metricLeft = T;
metricRight = T;
unicode = 8719;
},
{
glyphname = summation;
layers = (
{
anchors = (
{
name = bottom;
pos = (308,0);
},
{
name = center;
pos = (308,350);
},
{
name = top;
pos = (308,700);
}
);
layerId = m01;
shapes = (
{
closed = 1;
nodes = (
(556,0,l),
(556,65,l),
(132,65,l),
(350,350,l),
(132,635,l),
(556,635,l),
(556,700,l),
(40,700,l),
(40,645,l),
(266,350,l),
(40,55,l),
(40,0,l)
);
}
);
width = 576;
}
);
metricLeft = Z;
metricRight = L;
unicode = 8721;
},
{
glyphname = radical;
kernRight = KO_radical;
layers = (
{
background = {
shapes = (
{
attr = {
fillColor = (0,255);
identifier = ID0x7f7b6e5af090;
};
closed = 1;
nodes = (
(28,500,l),
(187,0,l),
(225,0,l),
(67,500,l)
);
},
{
attr = {
fillColor = (0,255);
identifier = ID0x7f7b6e5af090;
};
closed = 1;
nodes = (
(416,700,l),
(193,0,l),
(229,0,l),
(454,700,l)
);
},
{
closed = 1;
nodes = (
(430,665,l),
(763,665,l),
(763,700,l),
(430,700,l)
);
}
);
};
layerId = m01;
shapes = (
{
attr = {
lineCapEnd = 4;
lineCapStart = 4;
strokeHeight = 35;
strokePos = 0;
strokeWidth = 37;
};
closed = 0;
nodes = (
(47,505,l),
(207,30,l),
(208,30,l),
(438,703,l),
(765,703,l)
);
}
);
width = 785;
}
);
metricLeft = v;
metricRight = T;
unicode = 8730;
},
{
glyphname = partialdiff;
layers = (
{
anchors = (
{
name = _center;
pos = (410,600);
}
);
layerId = m01;
shapes = (
{
closed = 1;
nodes = (
(457,-10,o),
(542,149,o),
(542,328,cs),
(542,589,o),
(361,708,o),
(166,708,c),
(166,678,l),
(324,680,o),
(507,582,o),
(507,327,cs),
(507,301,o),
(505,245,o),
(493,210,c),
(506,242,l),
(517,384,o),
(427,487,o),
(285,487,cs),
(146,487,o),
(53,389,o),
(53,245,cs),
(53,100,o),
(148,-10,o),
(288,-10,cs)
);
},
{
closed = 1;
nodes = (
(485,113,o),
(408,24,o),
(290,24,cs),
(174,24,o),
(93,112,o),
(93,244,cs),
(93,370,o),
(167,454,o),
(285,454,cs),
(404,454,o),
(485,370,o),
(485,240,cs)
);
}
);
width = 609;
}
);
unicode = 8706;
},
{
glyphname = micro;
layers = (
{
anchors = (
{
name = bottom;
pos = (296,0);
},
{
name = ogonek;
pos = (527,0);
},
{
name = top;
pos = (296,500);
},
{
name = topright;
pos = (553,500);
}
);
layerId = m01;
shapes = (
{
attr = {
fillColor = (0,255);
identifier = ID0x7fac38439d00;
};
closed = 1;
nodes = (
(203,44,o),
(148,95,o),
(148,194,cs),
(148,500,l),
(75,500,l),
(75,181,l),
(120,72,l),
(145,18,o),
(193,-12,o),
(264,-12,cs),
(387,-12,o),
(448,79,o),
(453,208,c),
(427,208,l),
(420,102,o),
(364,44,o),
(280,44,cs)
);
},
{
attr = {
fillColor = (0,255);
identifier = ID0x7fac38439d00;
};
closed = 1;
nodes = (
(427,500,l),
(427,0,l),
(499,0,l),
(499,500,l)
);
},
{
attr = {
fillColor = (0,255);
identifier = ID0x7fac38439d00;
};
closed = 1;
nodes = (
(75,500,l),
(75,-200,l),
(147,-200,l),
(147,500,l)
);
}
);
width = 573;
}
);
metricLeft = l;
metricRight = u;
unicode = 181;
},
{
glyphname = percent;
kernRight = KO_percent;
layers = (
{
anchors = (
{
name = bottom;
pos = (219,0);
},
{
name = center;
pos = (219,250);
},
{
name = ogonek;
pos = (477,10);
},
{
name = top;
pos = (219,500);
},
{
name = topright;
pos = (521,500);
}
);
layerId = m01;
shapes = (
{
closed = 1;
nodes = (
(325,326,o),
(395,402,o),
(395,517,cs),
(395,631,o),
(325,707,o),
(219,707,cs),
(113,707,o),
(43,631,o),
(43,517,cs),
(43,402,o),
(113,326,o),
(219,326,cs)
);
},
{
closed = 1;
nodes = (
(138,361,o),
(83,423,o),
(83,517,cs),
(83,611,o),
(138,673,o),
(219,672,cs),
(300,673,o),
(355,611,o),
(355,517,cs),
(355,423,o),
(300,361,o),
(219,361,cs)
);
},
{
attr = {
fillColor = (0,255);
identifier = ID0x7f7b7145f580;
};
closed = 1;
nodes = (
(213,0,l),
(696,700,l),
(652,700,l),
(169,0,l)
);
},
{
closed = 1;
nodes = (
(756,-10,o),
(826,66,o),
(826,181,cs),
(826,295,o),
(756,371,o),
(650,371,cs),
(544,371,o),
(474,295,o),
(474,181,cs),
(474,66,o),
(544,-10,o),
(650,-10,cs)
);
},
{
closed = 1;
nodes = (
(569,25,o),
(514,87,o),
(514,181,cs),
(514,275,o),
(569,337,o),
(650,336,cs),
(731,337,o),
(786,275,o),
(786,181,cs),
(786,87,o),
(731,25,o),
(650,25,cs)
);
}
);
width = 869;
},
{
anchors = (
{
name = bottom;
pos = (219,0);
},
{
name = center;
pos = (219,250);
},
{
name = ogonek;
pos = (477,10);
},
{
name = top;
pos = (219,500);
},
{
name = topright;
pos = (521,500);
}
);
associatedMasterId = m01;
layerId = "98E637B7-8C28-4098-8657-CDB4E37546F9";
name = "14 Jul 23 at 20:19";
shapes = (
{
closed = 1;
nodes = (
(325,326,o),
(395,402,o),
(395,517,cs),
(395,631,o),
(325,707,o),
(219,707,cs),
(113,707,o),
(43,631,o),
(43,517,cs),
(43,402,o),
(113,326,o),
(219,326,cs)
);
},
{
closed = 1;
nodes = (
(152,377,o),
(107,433,o),
(107,517,cs),
(107,601,o),
(152,656,o),
(219,655,cs),
(286,656,o),
(331,601,o),
(331,517,cs),
(331,433,o),
(286,377,o),
(219,377,cs)
);
},
{
attr = {
fillColor = (0,255);
identifier = ID0x7f7b7145f580;
};
closed = 1;
nodes = (
(212,0,l),
(695,700,l),
(653,700,l),
(170,0,l)
);
},
{
closed = 1;
nodes = (
(752,-14,o),
(822,62,o),
(822,177,cs),
(822,291,o),
(752,367,o),
(646,367,cs),
(540,367,o),
(470,291,o),
(470,177,cs),
(470,62,o),
(540,-14,o),
(646,-14,cs)
);
},
{
closed = 1;
nodes = (
(579,37,o),
(534,93,o),
(534,177,cs),
(534,260,o),
(579,316,o),
(646,316,cs),
(713,316,o),
(758,260,o),
(758,177,cs),
(758,93,o),
(713,37,o),
(646,37,cs)
);
}
);
width = 865;
}
);
metricRight = "=|";
unicode = 37;
userData = {
KernOnSpecialSpacing = {
L = "spaced-off";
};
};
},
{
glyphname = perthousand;
kernRight = KO_percent;
layers = (
{
anchors = (
{
name = bottom;
pos = (219,0);
},
{
name = center;
pos = (219,250);
},
{
name = ogonek;
pos = (477,10);
},
{
name = top;
pos = (219,500);
},
{
name = topright;
pos = (521,500);
}
);
layerId = m01;
shapes = (
{
closed = 1;
nodes = (
(325,326,o),
(395,402,o),
(395,517,cs),
(395,631,o),
(325,707,o),
(219,707,cs),
(113,707,o),
(43,631,o),
(43,517,cs),
(43,402,o),
(113,326,o),
(219,326,cs)
);
},
{
closed = 1;
nodes = (
(138,361,o),
(83,423,o),
(83,517,cs),
(83,611,o),
(138,673,o),
(219,672,cs),
(300,673,o),
(355,611,o),
(355,517,cs),
(355,423,o),
(300,361,o),
(219,361,cs)
);
},
{
attr = {
fillColor = (0,255);
identifier = ID0x7f86d5e18010;
};
closed = 1;
nodes = (
(213,0,l),
(696,700,l),
(652,700,l),
(169,0,l)
);
},
{
closed = 1;
nodes = (
(756,-10,o),
(826,66,o),
(826,181,cs),
(826,295,o),
(756,371,o),
(650,371,cs),
(544,371,o),
(474,295,o),
(474,181,cs),
(474,66,o),
(544,-10,o),
(650,-10,cs)
);
},
{
closed = 1;
nodes = (
(569,25,o),
(514,87,o),
(514,181,cs),
(514,275,o),
(569,337,o),
(650,336,cs),
(731,337,o),
(786,275,o),
(786,181,cs),
(786,87,o),
(731,25,o),
(650,25,cs)
);
},
{
closed = 1;
nodes = (
(1166,-10,o),
(1236,66,o),
(1236,181,cs),
(1236,295,o),
(1166,371,o),
(1060,371,cs),
(954,371,o),
(884,295,o),
(884,181,cs),
(884,66,o),
(954,-10,o),
(1060,-10,cs)
);
},
{
closed = 1;
nodes = (
(979,25,o),
(924,87,o),
(924,181,cs),
(924,275,o),
(979,337,o),
(1060,336,cs),
(1141,337,o),
(1196,275,o),
(1196,181,cs),
(1196,87,o),
(1141,25,o),
(1060,25,cs)
);
}
);
width = 1279;
}
);
metricLeft = percent;
metricRight = percent;
unicode = 8240;
},
{
glyphname = upArrow;
layers = (
{
layerId = m01;
shapes = (
{
closed = 1;
nodes = (
(251,0,l),
(251,632,l),
(192,632,l),
(192,0,l)
);
},
{
closed = 1;
nodes = (
(357,561,l),
(221,722,l),
(85,561,l)
);
}
);
width = 442;
}
);
metricLeft = H;
metricRight = H;
unicode = 8593;
userData = {
KernOnSpecialSpacing = {
L = NoKerning;
R = NoKerning;
};
};
},
{
glyphname = northEastArrow;
layers = (
{
layerId = m01;
shapes = (
{
closed = 1;
nodes = (
(425,487,l),
(425,700,l),
(212,700,l)
);
},
{
closed = 1;
nodes = (
(85,0,l),
(144,0,l),
(144,188,ls),
(144,314,o),
(189,424,o),
(276,510,cs),
(377,610,l),
(335,652,l),
(237,555,ls),
(137,456,o),
(85,343,o),
(85,188,cs)
);
}
);
width = 510;
}
);
metricLeft = H;
metricRight = H;
unicode = 8599;
userData = {
KernOnSpecialSpacing = {
L = NoKerning;
R = NoKerning;
};
};
},
{
glyphname = rightArrow;
layers = (
{
layerId = m01;
shapes = (
{
closed = 1;
nodes = (
(60,241,l),
(573,241,l),
(573,300,l),
(60,300,l)
);
},
{
closed = 1;
nodes = (
(502,135,l),
(663,271,l),
(502,407,l)
);
}
);
width = 713;
}
);
metricLeft = hyphen;
unicode = 8594;
userData = {
KernOnSpecialSpacing = {
L = NoKerning;
R = NoKerning;
};
};
},
{
glyphname = upDownArrow;
layers = (
{
layerId = m01;
shapes = (
{
closed = 1;
nodes = (
(191,561,l),
(191,139,l),
(85,139,l),
(221,-22,l),
(357,139,l),
(251,139,l),
(251,561,l),
(357,561,l),
(221,722,l),
(85,561,l)
);
}
);
width = 442;
}
);
unicode = 8597;
},
{
glyphname = blackCircle;
layers = (
{
anchors = (
{
name = circled;
pos = (434,158);
}
);
layerId = m01;
shapes = (
{
closed = 1;
nodes = (
(649,-24,o),
(816,143,o),
(816,353,c),
(816,563,o),
(649,730,o),
(434,730,c),
(219,730,o),
(52,563,o),
(52,353,c),
(52,143,o),
(219,-24,o),
(434,-24,c)
);
}
);
width = 868;
}
);
metricLeft = O;
metricRight = "=|";
unicode = 9679;
},
{
glyphname = whiteCircle;
layers = (
{
anchors = (
{
name = circled;
pos = (434,161);
}
);
layerId = m01;
shapes = (
{
attr = {
identifier = ID0x7f7b568d28c0;
strokeHeight = 35;
strokeWidth = 40;
};
closed = 1;
nodes = (
(637,-8,o),
(796,151,o),
(796,353,cs),
(796,555,o),
(637,713,o),
(434,713,cs),
(231,713,o),
(72,555,o),
(72,353,cs),
(72,151,o),
(231,-8,o),
(434,-8,cs)
);
}
);
width = 868;
}
);
metricLeft = O;
metricRight = "=|";
unicode = 9675;
},
{
glyphname = dottedCircle;
layers = (
{
anchors = (
{
name = circled;
pos = (430,161);
}
);
layerId = m01;
shapes = (
{
attr = {
strokeHeight = 35;
strokeWidth = 37;
};
closed = 0;
nodes = (
(148,582,l),
(105,529,o),
(77,464,o),
(70,391,c)
);
},
{
attr = {
strokeHeight = 35;
strokeWidth = 37;
};
closed = 0;
nodes = (
(70,313,l),
(78,240,o),
(107,173,o),
(151,120,c)
);
},
{
attr = {
strokeHeight = 35;
strokeWidth = 37;
};
closed = 0;
nodes = (
(391,711,l),
(321,704,o),
(257,677,o),
(205,637,c)
);
},
{
attr = {
strokeHeight = 35;
strokeWidth = 37;
};
closed = 0;
nodes = (
(207,66,l),
(259,27,o),
(322,1,o),
(391,-6,c)
);
},
{
attr = {
strokeHeight = 35;
strokeWidth = 37;
};
closed = 0;
nodes = (
(469,-6,l),
(541,1,o),
(606,29,o),
(659,71,c)
);
},
{
attr = {
strokeHeight = 35;
strokeWidth = 37;
};
closed = 0;
nodes = (
(662,631,l),
(609,675,o),
(543,704,o),
(469,711,c)
);
},
{
attr = {
strokeHeight = 35;
strokeWidth = 37;
};
closed = 0;
nodes = (
(715,127,l),
(756,179,o),
(782,243,o),
(790,313,c)
);
},
{
attr = {
strokeHeight = 35;
strokeWidth = 37;
};
closed = 0;
nodes = (
(790,391,l),
(783,461,o),
(757,524,o),
(717,576,c)
);
}
);
width = 860;
}
);
metricLeft = O;
metricRight = "=|";
unicode = 9676;
},
{
glyphname = lozenge;
layers = (
{
layerId = m01;
shapes = (
{
attr = {
lineCapEnd = "4";
lineCapStart = "4";
strokeHeight = 20;
strokeWidth = 37;
};
closed = 1;
nodes = (
(261,0,l),
(257,0,l),
(75,346,l),
(257,692,l),
(261,692,l),
(443,346,l)
);
}
);
width = 518;
},
{
associatedMasterId = m01;
layerId = "026AFF15-A1C6-4238-AD17-C12B99EE6FF3";
name = "22 Aug 23 at 15:56";
shapes = (
{
closed = 1;
nodes = (
(196,0,l),
(300,0,l),
(465,349,l),
(301,700,l),
(197,700,l),
(32,351,l)
);
},
{
closed = 1;
nodes = (
(248,644,l),
(389,349,l),
(249,56,l),
(108,351,l)
);
}
);
width = 497;
}
);
metricRight = "=|";
unicode = 9674;
},
{
glyphname = blackSquare;
layers = (
{
anchors = (
{
name = circled;
pos = (435,158);
}
);
layerId = m01;
shapes = (
{
attr = {
strokePos = "1";
};
closed = 1;
nodes = (
(85,0,l),
(785,0,l),
(785,700,l),
(85,700,l)
);
}
);
width = 870;
}
);
metricLeft = H;
metricRight = "=|";
unicode = 9632;
},
{
glyphname = whiteSquare;
layers = (
{
anchors = (
{
name = circled;
pos = (435,158);
}
);
layerId = m01;
shapes = (
{
attr = {
strokeHeight = 35;
strokePos = 1;
strokeWidth = 37;
};
closed = 1;
nodes = (
(85,0,l),
(785,0,l),
(785,700,l),
(85,700,l)
);
}
);
width = 870;
}
);
metricLeft = H;
metricRight = "=|";
unicode = 9633;
},
{
glyphname = blackCircle.ss03;
layers = (
{
anchors = (
{
name = circled;
pos = (458,161);
}
);
background = {
shapes = (
{
attr = {
identifier = ID0x7f7b568d28c0;
strokeHeight = 35;
strokeWidth = 40;
};
closed = 1;
nodes = (
(665,-8,o),
(824,151,o),
(824,353,cs),
(824,555,o),
(665,713,o),
(462,713,cs),
(259,713,o),
(100,555,o),
(100,353,cs),
(100,151,o),
(259,-8,o),
(462,-8,cs)
);
}
);
};
layerId = m01;
shapes = (
{
closed = 1;
nodes = (
(52,290,o),
(89,242,o),
(145,221,c),
(120,168,o),
(128,108,o),
(171,65,c),
(213,23,o),
(274,15,o),
(327,38,c),
(348,-17,o),
(396,-54,o),
(458,-54,c),
(520,-54,o),
(568,-17,o),
(588,38,c),
(642,14,o),
(703,22,o),
(746,65,c),
(789,108,o),
(796,168,o),
(771,221,c),
(827,242,o),
(864,290,o),
(864,350,c),
(864,410,o),
(827,458,o),
(771,478,c),
(797,533,o),
(789,593,o),
(746,636,c),
(704,678,o),
(643,686,o),
(588,663,c),
(568,717,o),
(520,754,o),
(458,754,c),
(396,754,o),
(348,717,o),
(328,662,c),
(274,686,o),
(213,678,o),
(171,636,c),
(127,592,o),
(120,532,o),
(145,479,c),
(89,458,o),
(52,410,o),
(52,350,c)
);
}
);
width = 916;
}
);
metricLeft = O;
metricRight = "=|";
},
{
glyphname = whiteCircle.ss03;
layers = (
{
anchors = (
{
name = circled;
pos = (456,161);
}
);
background = {
shapes = (
{
attr = {
identifier = ID0x7f7b568d28c0;
strokeHeight = 35;
strokeWidth = 40;
};
closed = 1;
nodes = (
(663,-8,o),
(822,151,o),
(822,353,cs),
(822,555,o),
(663,713,o),
(460,713,cs),
(257,713,o),
(98,555,o),
(98,353,cs),
(98,151,o),
(257,-8,o),
(460,-8,cs)
);
}
);
};
layerId = m01;
shapes = (
{
attr = {
strokeHeight = 35;
strokePos = 0;
strokeWidth = 37;
};
closed = 1;
nodes = (
(89,290,o),
(138,247,o),
(207,247,c),
(159,199,o),
(154,133,o),
(197,91,cs),
(239,48,o),
(305,53,o),
(353,101,c),
(353,32,o),
(396,-17,o),
(456,-17,cs),
(516,-17,o),
(559,32,o),
(559,101,c),
(608,52,o),
(674,48,o),
(716,91,cs),
(758,133,o),
(754,198,o),
(705,247,c),
(774,247,o),
(824,290,o),
(824,350,cs),
(824,410,o),
(774,453,o),
(705,453,c),
(754,502,o),
(759,568,o),
(716,610,cs),
(674,653,o),
(608,648,o),
(559,599,c),
(559,668,o),
(516,718,o),
(456,718,cs),
(396,718,o),
(353,668,o),
(353,599,c),
(304,648,o),
(239,652,o),
(197,610,cs),
(154,568,o),
(158,502,o),
(207,453,c),
(138,453,o),
(89,410,o),
(89,350,cs)
);
}
);
width = 913;
}
);
metricLeft = O;
metricRight = "=|";
},
{
glyphname = dieresiscomb;
layers = (
{
anchors = (
{
name = _top;
pos = (231,500);
},
{
name = top;
pos = (231,705);
}
);
layerId = m01;
shapes = (
{
attr = {
fillColor = (0,255);
identifier = ID0x7f7b6618d910;
};
closed = 1;
nodes = (
(186,605,l),
(186,705,l),
(85,705,l),
(85,605,l)
);
},
{
attr = {
fillColor = (0,255);
identifier = ID0x7f7b6618d910;
};
closed = 1;
nodes = (
(377,605,l),
(377,705,l),
(276,705,l),
(276,605,l)
);
}
);
width = 462;
}
);
metricLeft = period;
metricRight = period;
unicode = 776;
userData = {
KernOnSpecialSpacing = {
L = NoKerning;
R = NoKerning;
};
};
},
{
glyphname = dotaccentcomb;
layers = (
{
anchors = (
{
name = _top;
pos = (138,500);
},
{
name = top;
pos = (138,708);
}
);
layerId = m01;
shapes = (
{
attr = {
fillColor = (0,255);
identifier = ID0x7f7b6617a350;
};
closed = 1;
nodes = (
(191,602,l),
(191,708,l),
(85,708,l),
(85,602,l)
);
}
);
width = 276;
}
);
metricLeft = period;
metricRight = period;
unicode = 775;
userData = {
KernOnSpecialSpacing = {
L = NoKerning;
R = NoKerning;
};
};
},
{
glyphname = gravecomb;
layers = (
{
anchors = (
{
name = _top;
pos = (222,500);
},
{
name = top;
pos = (222,760);
}
);
layerId = m01;
shapes = (
{
attr = {
fillColor = (0,255);
identifier = ID0x7f7b67d906b0;
};
closed = 1;
nodes = (
(152,741,l),
(40,741,l),
(206,573,l),
(246,573,l)
);
}
);
width = 306;
}
);
unicode = 768;
userData = {
KernOnSpecialSpacing = {
L = NoKerning;
R = NoKerning;
};
};
},
{
glyphname = hungarumlautcomb;
layers = (
{
anchors = (
{
name = _top;
pos = (156,500);
},
{
name = top;
pos = (156,760);
}
);
layerId = m01;
shapes = (
{
attr = {
fillColor = (0,255);
identifier = ID0x7f7b65e98900;
};
closed = 1;
nodes = (
(100,573,l),
(236,741,l),
(130,741,l),
(60,573,l)
);
},
{
attr = {
fillColor = (0,255);
identifier = ID0x7f7b65e98900;
};
closed = 1;
nodes = (
(250,573,l),
(416,741,l),
(304,741,l),
(210,573,l)
);
}
);
width = 456;
}
);
metricLeft = acutecomb;
metricRight = acutecomb;
unicode = 779;
userData = {
KernOnSpecialSpacing = {
L = NoKerning;
R = NoKerning;
};
};
},
{
glyphname = caroncomb.alt;
layers = (
{
anchors = (
{
name = _topright;
pos = (65,800);
}
);
layerId = m01;
shapes = (
{
closed = 1;
nodes = (
(150,695,l),
(150,633,o),
(145,595,o),
(85,545,c),
(164,545,l),
(204,595,o),
(209,630,o),
(209,705,cs),
(209,800,l),
(103,800,l),
(103,695,l)
);
}
);
width = 294;
}
);
metricLeft = comma;
metricRight = comma;
userData = {
KernOnSpecialSpacing = {
L = NoKerning;
R = NoKerning;
};
};
},
{
glyphname = circumflexcomb;
layers = (
{
anchors = (
{
name = _top;
pos = (199,500);
},
{
name = top;
pos = (199,760);
}
);
layerId = m01;
shapes = (
{
closed = 1;
nodes = (
(380,570,l),
(223,741,l),
(174,741,l),
(17,570,l),
(97,570,l),
(221,704,l),
(175,704,l),
(299,570,l)
);
}
);
width = 397;
}
);
metricLeft = V;
metricRight = "=|";
unicode = 770;
userData = {
KernOnSpecialSpacing = {
L = NoKerning;
R = NoKerning;
};
};
},
{
glyphname = caroncomb;
layers = (
{
anchors = (
{
name = _top;
pos = (200,500);
},
{
name = top;
pos = (200,761);
}
);
layerId = m01;
shapes = (
{
closed = 1;
nodes = (
(17,741,l),
(174,570,l),
(223,570,l),
(380,741,l),
(300,741,l),
(176,607,l),
(222,607,l),
(98,741,l)
);
}
);
width = 397;
}
);
metricLeft = V;
metricRight = "=|";
unicode = 780;
userData = {
KernOnSpecialSpacing = {
L = NoKerning;
R = NoKerning;
};
};
},
{
glyphname = brevecomb;
layers = (
{
anchors = (
{
name = _top;
pos = (193,500);
},
{
name = top;
pos = (193,761);
}
);
layerId = m01;
shapes = (
{
closed = 1;
nodes = (
(31,737,l),
(31,640,o),
(96,568,o),
(193,568,cs),
(290,568,o),
(354,640,o),
(354,737,c),
(290,737,l),
(286,672,o),
(251,624,o),
(193,624,cs),
(135,624,o),
(99,672,o),
(96,737,c)
);
}
);
width = 385;
}
);
metricRight = "=|";
unicode = 774;
userData = {
KernOnSpecialSpacing = {
L = NoKerning;
R = NoKerning;
};
};
},
{
glyphname = ringcomb;
layers = (
{
anchors = (
{
name = _top;
pos = (147,500);
},
{
name = top;
pos = (147,507);
}
);
layerId = m01;
shapes = (
{
closed = 1;
nodes = (
(208,565,o),
(251,606,o),
(251,664,cs),
(251,721,o),
(208,762,o),
(147,762,cs),
(86,762,o),
(43,721,o),
(43,664,cs),
(43,606,o),
(86,565,o),
(147,565,cs)
);
},
{
closed = 1;
nodes = (
(120,614,o),
(100,635,o),
(100,664,cs),
(100,692,o),
(120,713,o),
(147,713,cs),
(174,713,o),
(194,692,o),
(194,664,cs),
(194,635,o),
(174,614,o),
(147,614,cs)
);
}
);
width = 294;
}
);
metricLeft = o;
metricRight = "=|";
unicode = 778;
userData = {
KernOnSpecialSpacing = {
L = NoKerning;
R = NoKerning;
};
};
},
{
glyphname = tildecomb;
layers = (
{
anchors = (
{
name = _top;
pos = (224,500);
},
{
name = top;
pos = (224,720);
}
);
layerId = m01;
shapes = (
{
closed = 1;
nodes = (
(194,666,o),
(217,591,o),
(306,591,cs),
(374,591,o),
(416,635,o),
(406,720,c),
(347,720,l),
(357,670,o),
(336,645,o),
(306,645,cs),
(253,645,o),
(230,720,o),
(141,720,cs),
(73,720,o),
(31,676,o),
(41,591,c),
(100,591,l),
(90,641,o),
(111,666,o),
(141,666,cs)
);
}
);
width = 447;
}
);
metricRight = "=|";
unicode = 771;
userData = {
KernOnSpecialSpacing = {
L = NoKerning;
R = NoKerning;
};
};
},
{
glyphname = macroncomb;
layers = (
{
anchors = (
{
name = _top;
pos = (237,500);
},
{
name = top;
pos = (237,681);
}
);
layerId = m01;
shapes = (
{
closed = 1;
nodes = (
(60,632,l),
(413,632,l),
(413,691,l),
(60,691,l)
);
}
);
width = 473;
}
);
metricLeft = hyphen;
metricRight = hyphen;
unicode = 772;
userData = {
KernOnSpecialSpacing = {
L = NoKerning;
R = NoKerning;
};
};
},
{
glyphname = commaturnedabovecomb;
layers = (
{
anchors = (
{
name = _top;
pos = (147,500);
},
{
name = top;
pos = (147,606);
}
);
layerId = m01;
shapes = (
{
closed = 1;
nodes = (
(99,709,l),
(144,615,l),
(144,699,o),
(138,741,o),
(209,800,c),
(130,800,l),
(90,750,o),
(85,715,o),
(85,640,cs),
(85,604,l),
(191,604,l),
(191,709,l)
);
}
);
width = 294;
}
);
metricLeft = "=|comma";
metricRight = "=|comma";
unicode = 786;
userData = {
KernOnSpecialSpacing = {
L = NoKerning;
R = NoKerning;
};
};
},
{
glyphname = dotbelowcomb;
layers = (
{
anchors = (
{
name = _bottom;
pos = (138,0);
},
{
name = bottom;
pos = (138,-198);
}
);
layerId = m01;
shapes = (
{
attr = {
fillColor = (0,255);
identifier = ID0x587f4d1c0;
};
closed = 1;
nodes = (
(191,-164,l),
(191,-58,l),
(85,-58,l),
(85,-164,l)
);
}
);
width = 276;
}
);
unicode = 803;
},
{
glyphname = commaaccentcomb;
layers = (
{
anchors = (
{
name = _bottom;
pos = (155,0);
},
{
name = bottom;
pos = (155,-196);
}
);
layerId = m01;
shapes = (
{
closed = 1;
nodes = (
(195,-163,l),
(150,-69,l),
(150,-153,o),
(156,-195,o),
(85,-254,c),
(164,-254,l),
(204,-204,o),
(209,-169,o),
(209,-94,cs),
(209,-58,l),
(103,-58,l),
(103,-163,l)
);
}
);
width = 294;
}
);
metricLeft = comma;
metricRight = comma;
unicode = 806;
userData = {
KernOnSpecialSpacing = {
L = NoKerning;
R = NoKerning;
};
};
},
{
glyphname = cedillacomb;
layers = (
{
anchors = (
{
name = _bottom;
pos = (149,0);
},
{
name = bottom;
pos = (147,-219);
}
);
layerId = m01;
shapes = (
{
closed = 1;
nodes = (
(112,-75,l),
(132,-75,ls),
(166,-75,o),
(185,-94,o),
(185,-120,cs),
(185,-147,o),
(167,-166,o),
(142,-166,cs),
(117,-166,o),
(89,-149,o),
(99,-92,c),
(43,-133,l),
(48,-178,o),
(84,-214,o),
(142,-214,cs),
(199,-214,o),
(241,-175,o),
(241,-120,cs),
(241,-65,o),
(197,-26,o),
(140,-28,c),
(159,-73,l),
(168,0,l),
(124,0,l)
);
}
);
width = 284;
}
);
metricLeft = o;
metricRight = o;
unicode = 807;
userData = {
KernOnSpecialSpacing = {
L = NoKerning;
R = NoKerning;
};
};
},
{
glyphname = ogonekcomb;
layers = (
{
anchors = (
{
name = _ogonek;
pos = (241,0);
}
);
layerId = m01;
shapes = (
{
closed = 1;
nodes = (
(10,-206,o),
(157,-206,cs),
(181,-206,o),
(216,-197,o),
(241,-175,c),
(241,-91,l),
(216,-138,o),
(189,-147,o),
(165,-147,cs),
(87,-147,o),
(88,0,o),
(213,0,c),
(203,25,l),
(10,25,o)
);
}
);
width = 288;
}
);
metricLeft = O;
metricRight = c;
unicode = 808;
userData = {
KernOnSpecialSpacing = {
L = NoKerning;
R = NoKerning;
};
};
},
{
color = 1;
glyphname = dieresiscomb.case;
layers = (
{
anchors = (
{
name = _top;
pos = (243,700);
},
{
name = top;
pos = (243,898);
}
);
layerId = m01;
shapes = (
{
attr = {
fillColor = (0,255);
identifier = ID0x580cfbf90;
};
closed = 1;
nodes = (
(191,793,l),
(191,898,l),
(85,898,l),
(85,793,l)
);
},
{
attr = {
fillColor = (0,255);
identifier = ID0x580cfbf90;
};
closed = 1;
nodes = (
(401,793,l),
(401,898,l),
(295,898,l),
(295,793,l)
);
}
);
width = 486;
}
);
metricLeft = period;
metricRight = period;
},
{
color = 1;
glyphname = dotaccentcomb.case;
layers = (
{
anchors = (
{
name = _top;
pos = (141,700);
},
{
name = top;
pos = (141,899);
}
);
layerId = m01;
shapes = (
{
attr = {
fillColor = (0,255);
identifier = ID0x56ffc3ad0;
};
closed = 1;
nodes = (
(197,787,l),
(197,899,l),
(85,899,l),
(85,787,l)
);
}
);
width = 282;
}
);
metricLeft = period;
metricRight = period;
},
{
color = 1;
glyphname = gravecomb.case;
layers = (
{
anchors = (
{
name = _top;
pos = (213,700);
},
{
name = top;
pos = (213,911);
}
);
layerId = m01;
shapes = (
{
attr = {
fillColor = (0,255);
identifier = ID0x5809efc20;
};
closed = 1;
nodes = (
(162,921,l),
(40,921,l),
(189,773,l),
(233,773,l)
);
}
);
width = 293;
}
);
metricLeft = gravecomb;
metricRight = gravecomb;
},
{
color = 1;
glyphname = hungarumlautcomb.case;
layers = (
{
anchors = (
{
name = _top;
pos = (162,700);
},
{
name = top;
pos = (162,911);
}
);
layerId = m01;
shapes = (
{
attr = {
fillColor = (0,255);
identifier = ID0x56fb5aea0;
};
closed = 1;
nodes = (
(102,773,l),
(228,921,l),
(111,921,l),
(60,773,l)
);
},
{
attr = {
fillColor = (0,255);
identifier = ID0x56fb5aea0;
};
closed = 1;
nodes = (
(266,773,l),
(415,921,l),
(293,921,l),
(222,773,l)
);
}
);
width = 455;
}
);
metricLeft = hungarumlautcomb;
metricRight = hungarumlautcomb;
},
{
color = 1;
glyphname = circumflexcomb.case;
layers = (
{
anchors = (
{
name = _top;
pos = (203,700);
},
{
name = top;
pos = (203,911);
}
);
layerId = m01;
shapes = (
{
closed = 1;
nodes = (
(388,773,l),
(227,921,l),
(178,921,l),
(17,773,l),
(111,773,l),
(229,884,l),
(175,884,l),
(293,773,l)
);
}
);
width = 405;
}
);
metricLeft = circumflexcomb;
metricRight = "=|";
},
{
color = 1;
glyphname = caroncomb.case;
layers = (
{
anchors = (
{
name = _top;
pos = (203,700);
},
{
name = top;
pos = (203,911);
}
);
layerId = m01;
shapes = (
{
closed = 1;
nodes = (
(17,921,l),
(178,773,l),
(227,773,l),
(388,921,l),
(294,921,l),
(176,810,l),
(230,810,l),
(112,921,l)
);
}
);
width = 405;
}
);
metricLeft = "=|circumflexcomb";
metricRight = "=|";
},
{
color = 1;
glyphname = brevecomb.case;
layers = (
{
anchors = (
{
name = _top;
pos = (193,700);
},
{
name = top;
pos = (193,911);
}
);
layerId = m01;
shapes = (
{
closed = 1;
nodes = (
(31,921,l),
(31,832,o),
(99,767,o),
(193,767,cs),
(286,767,o),
(354,832,o),
(354,921,c),
(286,921,l),
(282,866,o),
(243,826,o),
(193,826,cs),
(142,826,o),
(103,866,o),
(100,921,c)
);
}
);
width = 385;
}
);
},
{
color = 1;
glyphname = ringcomb.case;
layers = (
{
anchors = (
{
name = _top;
pos = (152,700);
},
{
name = top;
pos = (152,977);
}
);
layerId = m01;
shapes = (
{
closed = 1;
nodes = (
(216,768,o),
(261,811,o),
(261,872,cs),
(261,932,o),
(216,975,o),
(152,975,cs),
(88,975,o),
(43,932,o),
(43,872,cs),
(43,811,o),
(88,768,o),
(152,768,cs)
);
},
{
closed = 1;
nodes = (
(124,820,o),
(103,842,o),
(103,872,cs),
(103,901,o),
(124,923,o),
(152,923,cs),
(180,923,o),
(201,901,o),
(201,872,cs),
(201,842,o),
(180,820,o),
(152,820,cs)
);
}
);
width = 304;
}
);
metricLeft = ringcomb;
metricRight = ringcomb;
},
{
color = 1;
glyphname = tildecomb.case;
layers = (
{
anchors = (
{
name = _top;
pos = (224,700);
},
{
name = top;
pos = (224,922);
}
);
layerId = m01;
shapes = (
{
closed = 1;
nodes = (
(193,844,o),
(216,769,o),
(306,769,cs),
(376,769,o),
(419,815,o),
(408,902,c),
(345,902,l),
(355,851,o),
(336,827,o),
(306,827,cs),
(254,827,o),
(231,902,o),
(141,902,cs),
(71,902,o),
(28,856,o),
(39,769,c),
(102,769,l),
(92,820,o),
(111,844,o),
(141,844,cs)
);
}
);
width = 447;
}
);
},
{
color = 1;
glyphname = macroncomb.case;
layers = (
{
anchors = (
{
name = _top;
pos = (237,700);
},
{
name = top;
pos = (237,867);
}
);
layerId = m01;
shapes = (
{
closed = 1;
nodes = (
(60,813,l),
(413,813,l),
(413,872,l),
(60,872,l)
);
}
);
width = 473;
}
);
metricLeft = hyphen;
metricRight = hyphen;
},
{
export = 0;
glyphname = strokeshortcomb;
layers = (
{
anchors = (
{
name = _topright;
pos = (350,800);
}
);
layerId = m01;
shapes = (
{
closed = 1;
nodes = (
(60,623,l),
(413,623,l),
(413,658,l),
(60,658,l)
);
}
);
width = 473;
}
);
metricLeft = hyphen;
metricRight = hyphen;
unicode = 821;
userData = {
KernOnSpecialSpacing = {
L = NoKerning;
R = NoKerning;
};
};
},
{
export = 0;
glyphname = slashshortcomb;
layers = (
{
anchors = (
{
name = _center;
pos = (197,400);
}
);
layerId = m01;
shapes = (
{
closed = 1;
nodes = (
(60,307,l),
(333,447,l),
(333,510,l),
(60,370,l)
);
}
);
width = 393;
}
);
metricLeft = hyphen;
metricRight = hyphen;
unicode = 823;
userData = {
KernOnSpecialSpacing = {
L = NoKerning;
R = NoKerning;
};
};
},
{
export = 0;
glyphname = slashlongcomb;
layers = (
{
anchors = (
{
name = _center;
pos = (264,250);
}
);
layerId = m01;
shapes = (
{
attr = {
fillColor = (0,255);
identifier = ID0x7f7b65e29660;
};
closed = 1;
nodes = (
(70,-10,l),
(507,510,l),
(457,510,l),
(20,-10,l)
);
}
);
width = 527;
}
);
metricLeft = slash;
metricRight = slash;
unicode = 824;
},
{
export = 0;
glyphname = strokeshortcomb.case;
layers = (
{
anchors = (
{
name = _center;
pos = (237,350);
}
);
layerId = m01;
shapes = (
{
closed = 1;
nodes = (
(60,340,l),
(413,340,l),
(413,375,l),
(60,375,l)
);
}
);
width = 473;
}
);
metricLeft = hyphen;
metricRight = hyphen;
userData = {
KernOnSpecialSpacing = {
L = NoKerning;
R = NoKerning;
};
};
},
{
export = 0;
glyphname = slashshortcomb.case;
layers = (
{
anchors = (
{
name = _center;
pos = (390,350);
}
);
layerId = m01;
shapes = (
{
closed = 1;
nodes = (
(60,270,l),
(413,410,l),
(413,448,l),
(60,308,l)
);
}
);
width = 473;
}
);
metricLeft = hyphen;
metricRight = hyphen;
},
{
export = 0;
glyphname = slashlongcomb.case;
layers = (
{
anchors = (
{
name = _center;
pos = (348,350);
}
);
layerId = m01;
shapes = (
{
attr = {
fillColor = (0,255);
identifier = ID0x7f7b65e29660;
};
closed = 1;
nodes = (
(72,-10,l),
(676,710,l),
(624,710,l),
(20,-10,l)
);
}
);
width = 696;
}
);
metricLeft = slash;
metricRight = slash;
},
{
export = 0;
glyphname = dieresiscomb.i;
layers = (
{
anchors = (
{
name = _top;
pos = (221,500);
},
{
name = top;
pos = (221,705);
}
);
layerId = m01;
shapes = (
{
attr = {
fillColor = (0,255);
identifier = ID0x7f7b6618d910;
};
closed = 1;
nodes = (
(186,605,l),
(186,705,l),
(85,705,l),
(85,605,l)
);
},
{
attr = {
fillColor = (0,255);
identifier = ID0x7f7b6618d910;
};
closed = 1;
nodes = (
(357,605,l),
(357,705,l),
(256,705,l),
(256,605,l)
);
}
);
width = 442;
}
);
metricLeft = period;
metricRight = period;
userData = {
KernOnSpecialSpacing = {
L = NoKerning;
R = NoKerning;
};
};
},
{
export = 0;
glyphname = circumflexcomb.i;
layers = (
{
anchors = (
{
name = _top;
pos = (159,500);
},
{
name = top;
pos = (159,760);
}
);
layerId = m01;
shapes = (
{
closed = 1;
nodes = (
(300,570,l),
(183,741,l),
(134,741,l),
(17,570,l),
(92,570,l),
(176,704,l),
(140,704,l),
(224,570,l)
);
}
);
width = 317;
}
);
metricLeft = V;
metricRight = "=|";
userData = {
KernOnSpecialSpacing = {
L = NoKerning;
R = NoKerning;
};
};
},
{
export = 0;
glyphname = brevecomb.i;
layers = (
{
anchors = (
{
name = _top;
pos = (173,500);
},
{
name = top;
pos = (173,737);
}
);
layerId = m01;
shapes = (
{
closed = 1;
nodes = (
(31,737,l),
(31,633,o),
(86,568,o),
(173,568,cs),
(260,568,o),
(314,633,o),
(314,737,c),
(250,737,l),
(247,668,o),
(217,624,o),
(173,624,cs),
(128,624,o),
(98,668,o),
(96,737,c)
);
}
);
width = 345;
}
);
metricRight = "=|";
userData = {
KernOnSpecialSpacing = {
L = NoKerning;
R = NoKerning;
};
};
},
{
export = 0;
glyphname = tildecomb.i;
layers = (
{
anchors = (
{
name = _top;
pos = (205,500);
},
{
name = top;
pos = (205,720);
}
);
layerId = m01;
shapes = (
{
closed = 1;
nodes = (
(182,666,o),
(192,591,o),
(272,591,cs),
(338,591,o),
(380,642,o),
(367,720,c),
(308,720,l),
(318,670,o),
(299,645,o),
(273,645,cs),
(227,645,o),
(217,720,o),
(137,720,cs),
(71,720,o),
(29,669,o),
(42,591,c),
(101,591,l),
(91,641,o),
(110,666,o),
(136,666,cs)
);
}
);
width = 409;
}
);
metricLeft = tildecomb;
metricRight = "=|";
userData = {
KernOnSpecialSpacing = {
L = NoKerning;
R = NoKerning;
};
};
},
{
export = 0;
glyphname = macroncomb.i;
layers = (
{
anchors = (
{
name = _top;
pos = (187,500);
},
{
name = top;
pos = (187,681);
}
);
layerId = m01;
shapes = (
{
closed = 1;
nodes = (
(60,632,l),
(313,632,l),
(313,691,l),
(60,691,l)
);
}
);
width = 373;
}
);
metricLeft = hyphen;
metricRight = hyphen;
userData = {
KernOnSpecialSpacing = {
L = NoKerning;
R = NoKerning;
};
};
},
{
export = 0;
glyphname = strokeshortcomb.i;
layers = (
{
anchors = (
{
name = _center;
pos = (197,250);
}
);
layerId = m01;
shapes = (
{
closed = 1;
nodes = (
(60,273,l),
(333,273,l),
(333,308,l),
(60,308,l)
);
}
);
width = 393;
}
);
metricLeft = hyphen;
metricRight = hyphen;
},
{
export = 0;
glyphname = strokeshortcomb.t;
layers = (
{
anchors = (
{
name = _center;
pos = (217,250);
}
);
layerId = m01;
shapes = (
{
closed = 1;
nodes = (
(40,273,l),
(393,273,l),
(393,308,l),
(40,308,l)
);
}
);
width = 422;
}
);
},
{
export = 0;
glyphname = strokelongcomb.case.H;
layers = (
{
anchors = (
{
name = _center;
pos = (448,531);
}
);
layerId = m01;
shapes = (
{
closed = 1;
nodes = (
(60,513,l),
(833,513,l),
(833,548,l),
(60,548,l)
);
}
);
width = 893;
}
);
metricLeft = hyphen;
metricRight = hyphen;
},
{
color = 1;
export = 0;
glyphname = macroncomb.case.I;
layers = (
{
anchors = (
{
name = _top;
pos = (237,700);
},
{
name = top;
pos = (237,857);
}
);
layerId = m01;
shapes = (
{
closed = 1;
nodes = (
(90,803,l),
(383,803,l),
(383,862,l),
(90,862,l)
);
}
);
width = 473;
}
);
},
{
export = 0;
glyphname = strokeshortcomb.case.I;
layers = (
{
anchors = (
{
name = _center;
pos = (207,350);
}
);
layerId = m01;
shapes = (
{
closed = 1;
nodes = (
(60,340,l),
(353,340,l),
(353,375,l),
(60,375,l)
);
}
);
width = 413;
}
);
metricLeft = hyphen;
metricRight = hyphen;
userData = {
KernOnSpecialSpacing = {
L = NoKerning;
R = NoKerning;
};
};
},
{
glyphname = _g.lowear;
layers = (
{
anchors = (
{
name = bottom;
pos = (305,-200);
},
{
name = top;
pos = (305,500);
}
);
layerId = m01;
shapes = (
{
closed = 1;
nodes = (
(32,-40,l),
(40,-137,o),
(145,-209,o),
(310,-209,cs),
(453,-209,o),
(590,-153,o),
(590,-33,cs),
(590,87,o),
(466,100,o),
(366,85,cs),
(235,66,ls),
(196,60,o),
(122,54,o),
(122,113,cs),
(122,152,o),
(158,172,o),
(206,172,cs),
(245,172,o),
(268,164,o),
(311,164,cs),
(439,164,o),
(515,236,o),
(515,336,cs),
(515,435,o),
(439,507,o),
(312,507,cs),
(189,507,o),
(109,435,o),
(109,336,cs),
(109,267,o),
(146,211,o),
(206,184,c),
(224,195,l),
(155,223,o),
(52,194,o),
(52,102,cs),
(52,-1,o),
(175,-10,o),
(242,0,cs),
(363,18,ls),
(437,29,o),
(521,32,o),
(521,-39,cs),
(521,-113,o),
(416,-149,o),
(310,-149,cs),
(185,-149,o),
(77,-94,o),
(103,27,c)
);
},
{
closed = 1;
nodes = (
(178,401,o),
(234,449,o),
(312,449,cs),
(394,449,o),
(446,401,o),
(446,336,cs),
(446,270,o),
(394,221,o),
(312,221,cs),
(230,221,o),
(178,270,o),
(178,336,cs)
);
},
{
closed = 1;
nodes = (
(471,438,l),
(471,504,o),
(509,557,o),
(588,557,cs),
(595,557,o),
(602,557,o),
(609,556,c),
(543,623,l),
(468,611,o),
(412,545,o),
(432,437,c)
);
}
);
width = 615;
}
);
},
{
export = 0;
glyphname = _j.lig;
layers = (
{
anchors = (
{
name = bottom;
pos = (122,-200);
},
{
name = top;
pos = (122,708);
}
);
layerId = m01;
shapes = (
{
closed = 1;
nodes = (
(87,-200,l),
(124,-180,o),
(157,-114,o),
(157,8,cs),
(157,500,l),
(85,500,l),
(85,-5,ls),
(85,-110,o),
(46,-162,o),
(-8,-200,c)
);
},
{
attr = {
fillColor = (0,255);
identifier = ID0x56fff0300;
};
closed = 1;
nodes = (
(175,602,l),
(175,708,l),
(69,708,l),
(69,602,l)
);
}
);
width = 232;
},
{
associatedMasterId = m01;
layerId = "6AD78342-80A4-4654-9220-481EFF1399CE";
name = "6 Mar 23 at 00:14";
shapes = (
{
attr = {
fillColor = (0,255);
identifier = ID0x7f7b7914c350;
};
closed = 1;
nodes = (
(170,606,l),
(170,704,l),
(72,704,l),
(72,606,l)
);
},
{
closed = 1;
nodes = (
(157,500,l),
(85,500,l),
(85,-67,ls),
(85,-119,o),
(70,-147,o),
(35,-147,cs),
(8,-147,o),
(-19,-126,o),
(-20,-62,c),
(-69,-129,l),
(-55,-181,o),
(-18,-206,o),
(41,-206,cs),
(118,-206,o),
(157,-155,o),
(157,-77,cs)
);
}
);
width = 222;
}
);
metricRight = i;
},
{
export = 0;
glyphname = _b.rightsidelig;
layers = (
{
anchors = (
{
name = "#entry";
pos = (41,0);
}
);
layerId = m01;
shapes = (
{
attr = {
fillColor = (0,255);
identifier = ID0x46f709340;
};
closed = 1;
nodes = (
(0,250,l),
(0,100,o),
(103,-8,o),
(243,-8,cs),
(383,-8,o),
(485,100,o),
(485,250,cs),
(485,399,o),
(383,507,o),
(243,507,cs),
(103,507,o),
(0,399,o),
(0,250,c),
(41,250,l),
(41,365,o),
(119,447,o),
(226,447,cs),
(333,447,o),
(410,365,o),
(410,250,cs),
(410,135,o),
(333,52,o),
(226,52,cs),
(119,52,o),
(41,135,o),
(41,250,c)
);
}
);
width = 528;
}
);
metricRight = b;
},
{
export = 0;
glyphname = _f.rightsidelig;
layers = (
{
anchors = (
{
name = "#exit";
pos = (468,0);
}
);
layerId = m01;
shapes = (
{
closed = 1;
nodes = (
(135,0,l),
(207,0,l),
(207,561,ls),
(207,668,o),
(260,718,o),
(342,718,cs),
(409,718,o),
(468,680,o),
(468,581,c),
(525,647,l),
(519,722,o),
(436,777,o),
(339,777,cs),
(220,777,o),
(135,696,o),
(135,561,cs)
);
},
{
closed = 1;
nodes = (
(442,441,l),
(442,500,l),
(30,500,l),
(30,441,l)
);
}
);
width = 525;
}
);
metricLeft = f;
},
{
export = 0;
glyphname = _k.rightsidelig;
layers = (
{
anchors = (
{
name = "#entry";
pos = (42,0);
}
);
layerId = m01;
shapes = (
{
attr = {
fillColor = (0,255);
identifier = ID0x580827820;
};
closed = 1;
nodes = (
(42,180,l),
(402,500,l),
(309,500,l),
(0,222,l)
);
},
{
attr = {
fillColor = (0,255);
identifier = ID0x580827820;
};
closed = 1;
nodes = (
(337,0,l),
(422,0,l),
(178,344,l),
(112,313,l)
);
}
);
width = 422;
}
);
metricRight = k;
},
